<svg width="320" height="240" viewBox="0 0 320 240" fill="none" xmlns="http://www.w3.org/2000/svg">
<g clip-path="url(#clip0_1_7517)">
<rect width="320" height="240" fill="white"/>
<rect width="16" height="16" fill="#D9D9D9"/>
<rect y="16" width="16" height="16" fill="#D9D9D9"/>
<rect y="32" width="16" height="16" fill="#D9D9D9"/>
<rect y="48" width="16" height="16" fill="#D9D9D9"/>
<rect y="64" width="16" height="16" fill="#D9D9D9"/>
<rect y="80" width="16" height="16" fill="#D9D9D9"/>
<rect y="96" width="16" height="16" fill="#D9D9D9"/>
<rect y="112" width="16" height="16" fill="#D9D9D9"/>
<rect y="128" width="16" height="16" fill="#D9D9D9"/>
<rect y="144" width="16" height="16" fill="#D9D9D9"/>
<rect y="160" width="16" height="16" fill="#D9D9D9"/>
<rect y="176" width="16" height="16" fill="#D9D9D9"/>
<rect y="192" width="16" height="16" fill="#D9D9D9"/>
<rect y="208" width="16" height="16" fill="#D9D9D9"/>
<rect y="224" width="16" height="16" fill="#D9D9D9"/>
<rect x="16" width="16" height="16" fill="#D9D9D9"/>
<rect x="16" y="16" width="16" height="16" fill="#BDC755" fill-opacity="0.2"/>
<rect x="16" y="32" width="16" height="16" fill="#BDC755" fill-opacity="0.2"/>
<rect x="16" y="48" width="16" height="16" fill="#BDC755" fill-opacity="0.2"/>
<rect x="16" y="64" width="16" height="16" fill="#BDC755" fill-opacity="0.2"/>
<rect x="16" y="80" width="16" height="16" fill="#BDC755" fill-opacity="0.2"/>
<rect x="16" y="96" width="16" height="16" fill="#BDC755" fill-opacity="0.2"/>
<rect x="16" y="112" width="16" height="16" fill="#BDC755" fill-opacity="0.2"/>
<rect x="16" y="128" width="16" height="16" fill="#BDC755" fill-opacity="0.2"/>
<rect x="16" y="144" width="16" height="16" fill="#BDC755" fill-opacity="0.2"/>
<rect x="16" y="160" width="16" height="16" fill="#BDC755" fill-opacity="0.2"/>
<rect x="16" y="176" width="16" height="16" fill="#BDC755" fill-opacity="0.2"/>
<rect x="16" y="192" width="16" height="16" fill="#BDC755" fill-opacity="0.2"/>
<rect x="16" y="208" width="16" height="16" fill="#BDC755" fill-opacity="0.2"/>
<rect x="16" y="224" width="16" height="16" fill="#D9D9D9"/>
<rect x="32" width="16" height="16" fill="#D9D9D9"/>
<rect x="32" y="16" width="16" height="16" fill="#BDC755" fill-opacity="0.2"/>
<rect x="32" y="32" width="16" height="16" fill="#BDC755" fill-opacity="0.2"/>
<rect x="32" y="48" width="16" height="16" fill="#BDC755" fill-opacity="0.2"/>
<rect x="32" y="64" width="16" height="16" fill="#BDC755" fill-opacity="0.2"/>
<rect x="32" y="80" width="16" height="16" fill="#BDC755" fill-opacity="0.2"/>
<rect x="32" y="96" width="16" height="16" fill="#BDC755" fill-opacity="0.2"/>
<rect x="32" y="112" width="16" height="16" fill="#BDC755" fill-opacity="0.2"/>
<rect x="32" y="128" width="16" height="16" fill="#BDC755" fill-opacity="0.2"/>
<rect x="32" y="144" width="16" height="16" fill="#BDC755" fill-opacity="0.2"/>
<rect x="32" y="160" width="16" height="16" fill="#BDC755" fill-opacity="0.2"/>
<rect x="32" y="176" width="16" height="16" fill="#BDC755" fill-opacity="0.2"/>
<rect x="32" y="192" width="16" height="16" fill="#BDC755" fill-opacity="0.2"/>
<rect x="32" y="208" width="16" height="16" fill="#BDC755" fill-opacity="0.2"/>
<rect x="32" y="224" width="16" height="16" fill="#D9D9D9"/>
<rect x="48" width="16" height="16" fill="#D9D9D9"/>
<rect x="48" y="16" width="16" height="16" fill="white"/>
<rect x="48" y="32" width="16" height="16" fill="white"/>
<rect x="48" y="48" width="16" height="16" fill="white"/>
<rect x="48" y="64" width="16" height="16" fill="white"/>
<rect x="48" y="80" width="16" height="16" fill="white"/>
<rect x="48" y="96" width="16" height="16" fill="white"/>
<rect x="48" y="112" width="16" height="16" fill="white"/>
<rect x="48" y="128" width="16" height="16" fill="white"/>
<rect x="48" y="144" width="16" height="16" fill="white"/>
<rect x="48" y="160" width="16" height="16" fill="white"/>
<rect x="48" y="176" width="16" height="16" fill="white"/>
<rect x="48" y="192" width="16" height="16" fill="white"/>
<rect x="48" y="208" width="16" height="16" fill="white"/>
<rect x="48" y="224" width="16" height="16" fill="#D9D9D9"/>
<rect x="64" width="16" height="16" fill="#D9D9D9"/>
<rect x="64" y="16" width="16" height="16" fill="#939393"/>
<rect x="64" y="32" width="16" height="16" fill="#939393"/>
<rect x="64" y="48" width="16" height="16" fill="#939393"/>
<rect x="64" y="64" width="16" height="16" fill="#939393"/>
<rect x="64" y="80" width="16" height="16" fill="#939393"/>
<rect x="64" y="96" width="16" height="16" fill="#939393"/>
<rect x="64" y="112" width="16" height="16" fill="#939393"/>
<rect x="64" y="128" width="16" height="16" fill="#939393"/>
<rect x="64" y="144" width="16" height="16" fill="#939393"/>
<rect x="64" y="160" width="16" height="16" fill="#939393"/>
<rect x="64" y="176" width="16" height="16" fill="#939393"/>
<rect x="64" y="192" width="16" height="16" fill="#939393"/>
<rect x="64" y="208" width="16" height="16" fill="#939393"/>
<rect x="64" y="224" width="16" height="16" fill="#D9D9D9"/>
<rect x="80" width="16" height="16" fill="#D9D9D9"/>
<rect x="80" y="16" width="16" height="16" fill="#939393"/>
<rect x="80" y="32" width="16" height="16" fill="#939393"/>
<rect x="80" y="48" width="16" height="16" fill="#939393"/>
<rect x="80" y="64" width="16" height="16" fill="#939393"/>
<rect x="80" y="80" width="16" height="16" fill="#939393"/>
<rect x="80" y="96" width="16" height="16" fill="#939393"/>
<rect x="80" y="112" width="16" height="16" fill="#939393"/>
<rect x="80" y="128" width="16" height="16" fill="#939393"/>
<rect x="80" y="144" width="16" height="16" fill="#939393"/>
<rect x="80" y="160" width="16" height="16" fill="#939393"/>
<rect x="80" y="176" width="16" height="16" fill="#939393"/>
<rect x="80" y="192" width="16" height="16" fill="#939393"/>
<rect x="80" y="208" width="16" height="16" fill="#939393"/>
<rect x="80" y="224" width="16" height="16" fill="#D9D9D9"/>
<rect x="96" width="16" height="16" fill="#D9D9D9"/>
<rect x="96" y="16" width="16" height="16" fill="#939393"/>
<rect x="96" y="32" width="16" height="16" fill="#939393"/>
<rect x="96" y="48" width="16" height="16" fill="#939393"/>
<rect x="96" y="64" width="16" height="16" fill="#939393"/>
<rect x="96" y="80" width="16" height="16" fill="#939393"/>
<rect x="96" y="96" width="16" height="16" fill="#939393"/>
<rect x="96" y="112" width="16" height="16" fill="#939393"/>
<rect x="96" y="128" width="16" height="16" fill="#939393"/>
<rect x="96" y="144" width="16" height="16" fill="#939393"/>
<rect x="96" y="160" width="16" height="16" fill="#939393"/>
<rect x="96" y="176" width="16" height="16" fill="#939393"/>
<rect x="96" y="192" width="16" height="16" fill="#939393"/>
<rect x="96" y="208" width="16" height="16" fill="#939393"/>
<rect x="96" y="224" width="16" height="16" fill="#D9D9D9"/>
<rect x="112" width="16" height="16" fill="#D9D9D9"/>
<rect x="112" y="16" width="16" height="16" fill="#939393"/>
<rect x="112" y="32" width="16" height="16" fill="#939393"/>
<rect x="112" y="48" width="16" height="16" fill="#939393"/>
<rect x="112" y="64" width="16" height="16" fill="#939393"/>
<rect x="112" y="80" width="16" height="16" fill="#939393"/>
<rect x="112" y="96" width="16" height="16" fill="#939393"/>
<rect x="112" y="112" width="16" height="16" fill="#939393"/>
<rect x="112" y="128" width="16" height="16" fill="#939393"/>
<rect x="112" y="144" width="16" height="16" fill="#939393"/>
<rect x="112" y="160" width="16" height="16" fill="#939393"/>
<rect x="112" y="176" width="16" height="16" fill="#939393"/>
<rect x="112" y="192" width="16" height="16" fill="#939393"/>
<rect x="112" y="208" width="16" height="16" fill="#939393"/>
<rect x="112" y="224" width="16" height="16" fill="#D9D9D9"/>
<rect x="128" width="16" height="16" fill="#D9D9D9"/>
<rect x="128" y="16" width="16" height="16" fill="#939393"/>
<rect x="128" y="32" width="16" height="16" fill="#939393"/>
<rect x="128" y="48" width="16" height="16" fill="#939393"/>
<rect x="128" y="64" width="16" height="16" fill="#939393"/>
<rect x="128" y="80" width="16" height="16" fill="#939393"/>
<rect x="128" y="96" width="16" height="16" fill="#939393"/>
<rect x="128" y="112" width="16" height="16" fill="#939393"/>
<rect x="128" y="128" width="16" height="16" fill="#939393"/>
<rect x="128" y="144" width="16" height="16" fill="#939393"/>
<rect x="128" y="160" width="16" height="16" fill="#939393"/>
<rect x="128" y="176" width="16" height="16" fill="#939393"/>
<rect x="128" y="192" width="16" height="16" fill="#939393"/>
<rect x="128" y="208" width="16" height="16" fill="#939393"/>
<rect x="128" y="224" width="16" height="16" fill="#D9D9D9"/>
<rect x="144" width="16" height="16" fill="#D9D9D9"/>
<rect x="144" y="16" width="16" height="16" fill="#939393"/>
<rect x="144" y="32" width="16" height="16" fill="#939393"/>
<rect x="144" y="48" width="16" height="16" fill="#939393"/>
<rect x="144" y="64" width="16" height="16" fill="#939393"/>
<rect x="144" y="80" width="16" height="16" fill="#939393"/>
<rect x="144" y="96" width="16" height="16" fill="#939393"/>
<rect x="144" y="112" width="16" height="16" fill="#939393"/>
<rect x="144" y="128" width="16" height="16" fill="#939393"/>
<rect x="144" y="144" width="16" height="16" fill="#939393"/>
<rect x="144" y="160" width="16" height="16" fill="#939393"/>
<rect x="144" y="176" width="16" height="16" fill="#939393"/>
<rect x="144" y="192" width="16" height="16" fill="#939393"/>
<rect x="144" y="208" width="16" height="16" fill="#939393"/>
<rect x="144" y="224" width="16" height="16" fill="#D9D9D9"/>
<rect x="160" width="16" height="16" fill="#D9D9D9"/>
<rect x="160" y="16" width="16" height="16" fill="white"/>
<rect x="160" y="32" width="16" height="16" fill="white"/>
<rect x="160" y="48" width="16" height="16" fill="white"/>
<rect x="160" y="64" width="16" height="16" fill="white"/>
<rect x="160" y="80" width="16" height="16" fill="white"/>
<rect x="160" y="96" width="16" height="16" fill="white"/>
<rect x="160" y="112" width="16" height="16" fill="white"/>
<rect x="160" y="128" width="16" height="16" fill="white"/>
<rect x="160" y="144" width="16" height="16" fill="white"/>
<rect x="160" y="160" width="16" height="16" fill="white"/>
<rect x="160" y="176" width="16" height="16" fill="white"/>
<rect x="160" y="192" width="16" height="16" fill="white"/>
<rect x="160" y="208" width="16" height="16" fill="white"/>
<rect x="160" y="224" width="16" height="16" fill="#D9D9D9"/>
<rect x="176" width="16" height="16" fill="#D9D9D9"/>
<rect x="176" y="16" width="16" height="16" fill="#939393"/>
<rect x="176" y="32" width="16" height="16" fill="#939393"/>
<rect x="176" y="48" width="16" height="16" fill="#939393"/>
<rect x="176" y="64" width="16" height="16" fill="#939393"/>
<rect x="176" y="80" width="16" height="16" fill="#939393"/>
<rect x="176" y="96" width="16" height="16" fill="#939393"/>
<rect x="176" y="112" width="16" height="16" fill="#939393"/>
<rect x="176" y="128" width="16" height="16" fill="#939393"/>
<rect x="176" y="144" width="16" height="16" fill="#939393"/>
<rect x="176" y="160" width="16" height="16" fill="#939393"/>
<rect x="176" y="176" width="16" height="16" fill="#939393"/>
<rect x="176" y="192" width="16" height="16" fill="#939393"/>
<rect x="176" y="208" width="16" height="16" fill="#939393"/>
<rect x="176" y="224" width="16" height="16" fill="#D9D9D9"/>
<rect x="192" width="16" height="16" fill="#D9D9D9"/>
<rect x="192" y="16" width="16" height="16" fill="#939393"/>
<rect x="192" y="32" width="16" height="16" fill="#939393"/>
<rect x="192" y="48" width="16" height="16" fill="#939393"/>
<rect x="192" y="64" width="16" height="16" fill="#939393"/>
<rect x="192" y="80" width="16" height="16" fill="#939393"/>
<rect x="192" y="96" width="16" height="16" fill="#939393"/>
<rect x="192" y="112" width="16" height="16" fill="#939393"/>
<rect x="192" y="128" width="16" height="16" fill="#939393"/>
<rect x="192" y="144" width="16" height="16" fill="#939393"/>
<rect x="192" y="160" width="16" height="16" fill="#939393"/>
<rect x="192" y="176" width="16" height="16" fill="#939393"/>
<rect x="192" y="192" width="16" height="16" fill="#939393"/>
<rect x="192" y="208" width="16" height="16" fill="#939393"/>
<rect x="192" y="224" width="16" height="16" fill="#D9D9D9"/>
<rect x="208" width="16" height="16" fill="#D9D9D9"/>
<rect x="208" y="16" width="16" height="16" fill="#939393"/>
<rect x="208" y="32" width="16" height="16" fill="#939393"/>
<rect x="208" y="48" width="16" height="16" fill="#939393"/>
<rect x="208" y="64" width="16" height="16" fill="#939393"/>
<rect x="208" y="80" width="16" height="16" fill="#939393"/>
<rect x="208" y="96" width="16" height="16" fill="#939393"/>
<rect x="208" y="112" width="16" height="16" fill="#939393"/>
<rect x="208" y="128" width="16" height="16" fill="#939393"/>
<rect x="208" y="144" width="16" height="16" fill="#939393"/>
<rect x="208" y="160" width="16" height="16" fill="#939393"/>
<rect x="208" y="176" width="16" height="16" fill="#939393"/>
<rect x="208" y="192" width="16" height="16" fill="#939393"/>
<rect x="208" y="208" width="16" height="16" fill="#939393"/>
<rect x="208" y="224" width="16" height="16" fill="#D9D9D9"/>
<rect x="224" width="16" height="16" fill="#D9D9D9"/>
<rect x="224" y="16" width="16" height="16" fill="#939393"/>
<rect x="224" y="32" width="16" height="16" fill="#939393"/>
<rect x="224" y="48" width="16" height="16" fill="#939393"/>
<rect x="224" y="64" width="16" height="16" fill="#939393"/>
<rect x="224" y="80" width="16" height="16" fill="#939393"/>
<rect x="224" y="96" width="16" height="16" fill="#939393"/>
<rect x="224" y="112" width="16" height="16" fill="#939393"/>
<rect x="224" y="128" width="16" height="16" fill="#939393"/>
<rect x="224" y="144" width="16" height="16" fill="#939393"/>
<rect x="224" y="160" width="16" height="16" fill="#939393"/>
<rect x="224" y="176" width="16" height="16" fill="#939393"/>
<rect x="224" y="192" width="16" height="16" fill="#939393"/>
<rect x="224" y="208" width="16" height="16" fill="#939393"/>
<rect x="224" y="224" width="16" height="16" fill="#D9D9D9"/>
<rect x="240" width="16" height="16" fill="#D9D9D9"/>
<rect x="240" y="16" width="16" height="16" fill="#939393"/>
<rect x="240" y="32" width="16" height="16" fill="#939393"/>
<rect x="240" y="48" width="16" height="16" fill="#939393"/>
<rect x="240" y="64" width="16" height="16" fill="#939393"/>
<rect x="240" y="80" width="16" height="16" fill="#939393"/>
<rect x="240" y="96" width="16" height="16" fill="#939393"/>
<rect x="240" y="112" width="16" height="16" fill="#939393"/>
<rect x="240" y="128" width="16" height="16" fill="#939393"/>
<rect x="240" y="144" width="16" height="16" fill="#939393"/>
<rect x="240" y="160" width="16" height="16" fill="#939393"/>
<rect x="240" y="176" width="16" height="16" fill="#939393"/>
<rect x="240" y="192" width="16" height="16" fill="#939393"/>
<rect x="240" y="208" width="16" height="16" fill="#939393"/>
<rect x="240" y="224" width="16" height="16" fill="#D9D9D9"/>
<rect x="256" width="16" height="16" fill="#D9D9D9"/>
<rect x="256" y="16" width="16" height="16" fill="white"/>
<rect x="256" y="32" width="16" height="16" fill="white"/>
<rect x="256" y="48" width="16" height="16" fill="white"/>
<rect x="256" y="64" width="16" height="16" fill="white"/>
<rect x="256" y="80" width="16" height="16" fill="white"/>
<rect x="256" y="96" width="16" height="16" fill="white"/>
<rect x="256" y="112" width="16" height="16" fill="white"/>
<rect x="256" y="128" width="16" height="16" fill="white"/>
<rect x="256" y="144" width="16" height="16" fill="white"/>
<rect x="256" y="160" width="16" height="16" fill="white"/>
<rect x="256" y="176" width="16" height="16" fill="white"/>
<rect x="256" y="192" width="16" height="16" fill="white"/>
<rect x="256" y="208" width="16" height="16" fill="white"/>
<rect x="256" y="224" width="16" height="16" fill="#D9D9D9"/>
<rect x="272" width="16" height="16" fill="#D9D9D9"/>
<rect x="272" y="16" width="16" height="16" fill="#952525" fill-opacity="0.2"/>
<rect x="272" y="32" width="16" height="16" fill="#952525" fill-opacity="0.2"/>
<rect x="272" y="48" width="16" height="16" fill="#952525" fill-opacity="0.2"/>
<rect x="272" y="64" width="16" height="16" fill="#952525" fill-opacity="0.2"/>
<rect x="272" y="80" width="16" height="16" fill="#952525" fill-opacity="0.2"/>
<rect x="272" y="96" width="16" height="16" fill="#952525" fill-opacity="0.2"/>
<rect x="272" y="112" width="16" height="16" fill="#952525" fill-opacity="0.2"/>
<rect x="272" y="128" width="16" height="16" fill="#952525" fill-opacity="0.2"/>
<rect x="272" y="144" width="16" height="16" fill="#952525" fill-opacity="0.2"/>
<rect x="272" y="160" width="16" height="16" fill="#952525" fill-opacity="0.2"/>
<rect x="272" y="176" width="16" height="16" fill="#952525" fill-opacity="0.2"/>
<rect x="272" y="192" width="16" height="16" fill="#952525" fill-opacity="0.2"/>
<rect x="272" y="208" width="16" height="16" fill="#952525" fill-opacity="0.2"/>
<rect x="272" y="224" width="16" height="16" fill="#D9D9D9"/>
<rect x="288" width="16" height="16" fill="#D9D9D9"/>
<rect x="288" y="16" width="16" height="16" fill="#952525" fill-opacity="0.2"/>
<rect x="288" y="32" width="16" height="16" fill="#952525" fill-opacity="0.2"/>
<rect x="288" y="48" width="16" height="16" fill="#952525" fill-opacity="0.2"/>
<rect x="288" y="64" width="16" height="16" fill="#952525" fill-opacity="0.2"/>
<rect x="288" y="80" width="16" height="16" fill="#952525" fill-opacity="0.2"/>
<rect x="288" y="96" width="16" height="16" fill="#952525" fill-opacity="0.2"/>
<rect x="288" y="112" width="16" height="16" fill="#952525" fill-opacity="0.2"/>
<rect x="288" y="128" width="16" height="16" fill="#952525" fill-opacity="0.2"/>
<rect x="288" y="144" width="16" height="16" fill="#952525" fill-opacity="0.2"/>
<rect x="288" y="160" width="16" height="16" fill="#952525" fill-opacity="0.2"/>
<rect x="288" y="176" width="16" height="16" fill="#952525" fill-opacity="0.2"/>
<rect x="288" y="192" width="16" height="16" fill="#952525" fill-opacity="0.2"/>
<rect x="288" y="208" width="16" height="16" fill="#952525" fill-opacity="0.2"/>
<rect x="288" y="224" width="16" height="16" fill="#D9D9D9"/>
<rect x="304" width="16" height="16" fill="#D9D9D9"/>
<rect x="304" y="16" width="16" height="16" fill="#D9D9D9"/>
<rect x="304" y="32" width="16" height="16" fill="#D9D9D9"/>
<rect x="304" y="48" width="16" height="16" fill="#D9D9D9"/>
<rect x="304" y="64" width="16" height="16" fill="#D9D9D9"/>
<rect x="304" y="80" width="16" height="16" fill="#D9D9D9"/>
<rect x="304" y="96" width="16" height="16" fill="#D9D9D9"/>
<rect x="304" y="112" width="16" height="16" fill="#D9D9D9"/>
<rect x="304" y="128" width="16" height="16" fill="#D9D9D9"/>
<rect x="304" y="144" width="16" height="16" fill="#D9D9D9"/>
<rect x="304" y="160" width="16" height="16" fill="#D9D9D9"/>
<rect x="304" y="176" width="16" height="16" fill="#D9D9D9"/>
<rect x="304" y="192" width="16" height="16" fill="#D9D9D9"/>
<rect x="304" y="208" width="16" height="16" fill="#D9D9D9"/>
<rect x="304" y="224" width="16" height="16" fill="#D9D9D9"/>
<path d="M113.488 122.791H110.641L109.955 125H108.871L111.625 116.469H112.533L115.24 125H114.162L113.488 122.791ZM110.934 121.848H113.201L112.076 118.145L110.934 121.848Z" fill="black"/>
<path d="M213.404 125V116.469H215.941C216.293 116.473 216.637 116.52 216.973 116.609C217.309 116.695 217.607 116.83 217.869 117.014C218.131 117.197 218.34 117.432 218.496 117.717C218.652 118.002 218.729 118.344 218.725 118.742C218.721 118.965 218.684 119.168 218.613 119.352C218.547 119.535 218.455 119.699 218.338 119.844C218.217 119.992 218.082 120.117 217.934 120.219C217.789 120.32 217.613 120.416 217.406 120.506V120.523C217.621 120.574 217.828 120.666 218.027 120.799C218.227 120.932 218.391 121.078 218.52 121.238C218.656 121.414 218.762 121.611 218.836 121.83C218.914 122.049 218.953 122.285 218.953 122.539C218.957 122.938 218.881 123.289 218.725 123.594C218.568 123.898 218.359 124.152 218.098 124.355C217.836 124.562 217.533 124.721 217.189 124.83C216.85 124.939 216.498 124.996 216.135 125H213.404ZM214.494 121.01V124.08H216.164C216.391 124.076 216.605 124.039 216.809 123.969C217.012 123.895 217.191 123.793 217.348 123.664C217.504 123.535 217.627 123.377 217.717 123.189C217.811 123.002 217.857 122.789 217.857 122.551C217.861 122.309 217.82 122.094 217.734 121.906C217.652 121.719 217.537 121.559 217.389 121.426C217.24 121.297 217.066 121.197 216.867 121.127C216.668 121.057 216.453 121.018 216.223 121.01H214.494ZM214.494 120.107H216.006C216.209 120.104 216.408 120.072 216.604 120.014C216.799 119.951 216.973 119.861 217.125 119.744C217.277 119.631 217.4 119.49 217.494 119.322C217.588 119.154 217.635 118.959 217.635 118.736C217.635 118.498 217.588 118.295 217.494 118.127C217.404 117.959 217.283 117.82 217.131 117.711C216.975 117.605 216.795 117.527 216.592 117.477C216.393 117.426 216.188 117.398 215.977 117.395H214.494V120.107Z" fill="black"/>
</g>
<defs>
<clipPath id="clip0_1_7517">
<rect width="320" height="240" fill="white"/>
</clipPath>
</defs>
</svg>
