<svg width="320" height="240" viewBox="0 0 320 240" fill="none" xmlns="http://www.w3.org/2000/svg">
<g clip-path="url(#clip0_1_6910)">
<rect width="320" height="240" fill="white"/>
<rect width="16" height="16" fill="#D9D9D9"/>
<rect y="16" width="16" height="16" fill="#D9D9D9"/>
<rect y="32" width="16" height="16" fill="#D9D9D9"/>
<rect y="48" width="16" height="16" fill="#D9D9D9"/>
<rect y="64" width="16" height="16" fill="#D9D9D9"/>
<rect y="80" width="16" height="16" fill="#D9D9D9"/>
<rect y="96" width="16" height="16" fill="#D9D9D9"/>
<rect y="112" width="16" height="16" fill="#D9D9D9"/>
<rect y="128" width="16" height="16" fill="#D9D9D9"/>
<rect y="144" width="16" height="16" fill="#D9D9D9"/>
<rect y="160" width="16" height="16" fill="#D9D9D9"/>
<rect y="176" width="16" height="16" fill="#D9D9D9"/>
<rect y="192" width="16" height="16" fill="#D9D9D9"/>
<rect y="208" width="16" height="16" fill="#D9D9D9"/>
<rect y="224" width="16" height="16" fill="#D9D9D9"/>
<rect x="16" width="16" height="16" fill="#D9D9D9"/>
<rect width="16" height="16" transform="translate(16 16)" fill="#281414"/>
<rect x="16" y="16" width="16" height="16" fill="#939393"/>
<rect x="16" y="32" width="16" height="16" fill="#939393"/>
<rect x="16" y="48" width="16" height="16" fill="#939393"/>
<rect x="16" y="64" width="16" height="16" fill="#939393"/>
<rect x="16" y="80" width="16" height="16" fill="#939393"/>
<rect x="16" y="96" width="16" height="16" fill="#939393"/>
<rect x="16" y="112" width="16" height="16" fill="#939393"/>
<rect x="16" y="128" width="16" height="16" fill="#939393"/>
<rect x="16" y="144" width="16" height="16" fill="#939393"/>
<rect x="16" y="160" width="16" height="16" fill="#939393"/>
<rect x="16" y="176" width="16" height="16" fill="#939393"/>
<rect x="16" y="192" width="16" height="16" fill="#939393"/>
<rect x="16" y="208" width="16" height="16" fill="#939393"/>
<rect x="16" y="224" width="16" height="16" fill="#D9D9D9"/>
<rect x="32" width="16" height="16" fill="#D9D9D9"/>
<rect width="16" height="16" transform="translate(32 16)" fill="#281414"/>
<rect x="32" y="16" width="16" height="16" fill="#939393"/>
<rect x="32" y="32" width="16" height="16" fill="#939393"/>
<rect x="32" y="48" width="16" height="16" fill="#939393"/>
<rect x="32" y="64" width="16" height="16" fill="#939393"/>
<rect x="32" y="80" width="16" height="16" fill="#939393"/>
<rect x="32" y="96" width="16" height="16" fill="#939393"/>
<rect x="32" y="112" width="16" height="16" fill="#939393"/>
<rect x="32" y="128" width="16" height="16" fill="#939393"/>
<rect x="32" y="144" width="16" height="16" fill="#939393"/>
<rect x="32" y="160" width="16" height="16" fill="#939393"/>
<rect x="32" y="176" width="16" height="16" fill="#939393"/>
<rect x="32" y="192" width="16" height="16" fill="#939393"/>
<rect x="32" y="208" width="16" height="16" fill="#939393"/>
<rect x="32" y="224" width="16" height="16" fill="#D9D9D9"/>
<rect x="48" width="16" height="16" fill="#D9D9D9"/>
<rect width="16" height="16" transform="translate(48 16)" fill="#281414"/>
<rect x="48" y="16" width="16" height="16" fill="#939393"/>
<rect x="48" y="32" width="16" height="16" fill="#939393"/>
<rect x="48" y="48" width="16" height="16" fill="#939393"/>
<rect x="48" y="64" width="16" height="16" fill="#939393"/>
<rect x="48" y="80" width="16" height="16" fill="#939393"/>
<rect x="48" y="96" width="16" height="16" fill="#939393"/>
<rect x="48" y="112" width="16" height="16" fill="#939393"/>
<rect x="48" y="128" width="16" height="16" fill="#939393"/>
<rect x="48" y="144" width="16" height="16" fill="#939393"/>
<rect x="48" y="160" width="16" height="16" fill="#939393"/>
<rect x="48" y="176" width="16" height="16" fill="#939393"/>
<rect x="48" y="192" width="16" height="16" fill="#939393"/>
<rect x="48" y="208" width="16" height="16" fill="#939393"/>
<rect x="48" y="224" width="16" height="16" fill="#D9D9D9"/>
<rect x="64" width="16" height="16" fill="#D9D9D9"/>
<rect width="16" height="16" transform="translate(64 16)" fill="#281414"/>
<rect x="64" y="16" width="16" height="16" fill="#939393"/>
<rect x="64" y="32" width="16" height="16" fill="#939393"/>
<rect x="64" y="48" width="16" height="16" fill="#939393"/>
<rect x="64" y="64" width="16" height="16" fill="#939393"/>
<rect x="64" y="80" width="16" height="16" fill="#939393"/>
<rect x="64" y="96" width="16" height="16" fill="#939393"/>
<rect x="64" y="112" width="16" height="16" fill="#939393"/>
<rect x="64" y="128" width="16" height="16" fill="#939393"/>
<rect x="64" y="144" width="16" height="16" fill="#939393"/>
<rect x="64" y="160" width="16" height="16" fill="#939393"/>
<rect x="64" y="176" width="16" height="16" fill="#939393"/>
<rect x="64" y="192" width="16" height="16" fill="#939393"/>
<rect x="64" y="208" width="16" height="16" fill="#939393"/>
<rect x="64" y="224" width="16" height="16" fill="#D9D9D9"/>
<rect x="80" width="16" height="16" fill="#D9D9D9"/>
<rect width="16" height="16" transform="translate(80 16)" fill="#281414"/>
<rect x="80" y="16" width="16" height="16" fill="white"/>
<rect x="80" y="32" width="16" height="16" fill="white"/>
<rect x="80" y="48" width="16" height="16" fill="white"/>
<rect x="80" y="64" width="16" height="16" fill="white"/>
<rect x="80" y="80" width="16" height="16" fill="white"/>
<rect x="80" y="96" width="16" height="16" fill="white"/>
<rect x="80" y="112" width="16" height="16" fill="white"/>
<rect x="80" y="128" width="16" height="16" fill="white"/>
<rect x="80" y="144" width="16" height="16" fill="white"/>
<rect x="80" y="160" width="16" height="16" fill="white"/>
<rect x="80" y="176" width="16" height="16" fill="white"/>
<rect x="80" y="192" width="16" height="16" fill="white"/>
<rect x="80" y="208" width="16" height="16" fill="white"/>
<rect x="80" y="224" width="16" height="16" fill="#D9D9D9"/>
<rect x="96" width="16" height="16" fill="#D9D9D9"/>
<rect width="16" height="16" transform="translate(96 16)" fill="#281414"/>
<rect x="96" y="16" width="16" height="16" fill="#939393"/>
<rect x="96" y="32" width="16" height="16" fill="#939393"/>
<rect x="96" y="48" width="16" height="16" fill="#939393"/>
<rect x="96" y="64" width="16" height="16" fill="#939393"/>
<rect x="96" y="80" width="16" height="16" fill="#939393"/>
<rect x="96" y="96" width="16" height="16" fill="#939393"/>
<rect x="96" y="112" width="16" height="16" fill="#939393"/>
<rect x="96" y="128" width="16" height="16" fill="#939393"/>
<rect x="96" y="144" width="16" height="16" fill="#939393"/>
<rect x="96" y="160" width="16" height="16" fill="#939393"/>
<rect x="96" y="176" width="16" height="16" fill="#939393"/>
<rect x="96" y="192" width="16" height="16" fill="#939393"/>
<rect x="96" y="208" width="16" height="16" fill="#939393"/>
<rect x="96" y="224" width="16" height="16" fill="#D9D9D9"/>
<rect x="112" width="16" height="16" fill="#D9D9D9"/>
<rect width="16" height="16" transform="translate(112 16)" fill="#281414"/>
<rect x="112" y="16" width="16" height="16" fill="#939393"/>
<rect x="112" y="32" width="16" height="16" fill="#939393"/>
<rect x="112" y="48" width="16" height="16" fill="#939393"/>
<rect x="112" y="64" width="16" height="16" fill="#939393"/>
<rect x="112" y="80" width="16" height="16" fill="#939393"/>
<rect x="112" y="96" width="16" height="16" fill="#939393"/>
<rect x="112" y="112" width="16" height="16" fill="#939393"/>
<rect x="112" y="128" width="16" height="16" fill="#939393"/>
<rect x="112" y="144" width="16" height="16" fill="#939393"/>
<rect x="112" y="160" width="16" height="16" fill="#939393"/>
<rect x="112" y="176" width="16" height="16" fill="#939393"/>
<rect x="112" y="192" width="16" height="16" fill="#939393"/>
<rect x="112" y="208" width="16" height="16" fill="#939393"/>
<rect x="112" y="224" width="16" height="16" fill="#D9D9D9"/>
<rect x="128" width="16" height="16" fill="#D9D9D9"/>
<rect width="16" height="16" transform="translate(128 16)" fill="#281414"/>
<rect x="128" y="16" width="16" height="16" fill="#939393"/>
<rect x="128" y="32" width="16" height="16" fill="#939393"/>
<rect x="128" y="48" width="16" height="16" fill="#939393"/>
<rect x="128" y="64" width="16" height="16" fill="#939393"/>
<rect x="128" y="80" width="16" height="16" fill="#939393"/>
<rect x="128" y="96" width="16" height="16" fill="#939393"/>
<rect x="128" y="112" width="16" height="16" fill="#939393"/>
<rect x="128" y="128" width="16" height="16" fill="#939393"/>
<rect x="128" y="144" width="16" height="16" fill="#939393"/>
<rect x="128" y="160" width="16" height="16" fill="#939393"/>
<rect x="128" y="176" width="16" height="16" fill="#939393"/>
<rect x="128" y="192" width="16" height="16" fill="#939393"/>
<rect x="128" y="208" width="16" height="16" fill="#939393"/>
<rect x="128" y="224" width="16" height="16" fill="#D9D9D9"/>
<rect x="144" width="16" height="16" fill="#D9D9D9"/>
<rect width="16" height="16" transform="translate(144 16)" fill="#281414"/>
<rect x="144" y="16" width="16" height="16" fill="#939393"/>
<rect x="144" y="32" width="16" height="16" fill="#939393"/>
<rect x="144" y="48" width="16" height="16" fill="#939393"/>
<rect x="144" y="64" width="16" height="16" fill="#939393"/>
<rect x="144" y="80" width="16" height="16" fill="#939393"/>
<rect x="144" y="96" width="16" height="16" fill="#939393"/>
<rect x="144" y="112" width="16" height="16" fill="#939393"/>
<rect x="144" y="128" width="16" height="16" fill="#939393"/>
<rect x="144" y="144" width="16" height="16" fill="#939393"/>
<rect x="144" y="160" width="16" height="16" fill="#939393"/>
<rect x="144" y="176" width="16" height="16" fill="#939393"/>
<rect x="144" y="192" width="16" height="16" fill="#939393"/>
<rect x="144" y="208" width="16" height="16" fill="#939393"/>
<rect x="144" y="224" width="16" height="16" fill="#D9D9D9"/>
<rect x="160" width="16" height="16" fill="#D9D9D9"/>
<rect width="16" height="16" transform="translate(160 16)" fill="#281414"/>
<rect x="160" y="16" width="16" height="16" fill="#939393"/>
<rect x="160" y="32" width="16" height="16" fill="#939393"/>
<rect x="160" y="48" width="16" height="16" fill="#939393"/>
<rect x="160" y="64" width="16" height="16" fill="#939393"/>
<rect x="160" y="80" width="16" height="16" fill="#939393"/>
<rect x="160" y="96" width="16" height="16" fill="#939393"/>
<rect x="160" y="112" width="16" height="16" fill="#939393"/>
<rect x="160" y="128" width="16" height="16" fill="#939393"/>
<rect x="160" y="144" width="16" height="16" fill="#939393"/>
<rect x="160" y="160" width="16" height="16" fill="#939393"/>
<rect x="160" y="176" width="16" height="16" fill="#939393"/>
<rect x="160" y="192" width="16" height="16" fill="#939393"/>
<rect x="160" y="208" width="16" height="16" fill="#939393"/>
<rect x="160" y="224" width="16" height="16" fill="#D9D9D9"/>
<rect x="176" width="16" height="16" fill="#D9D9D9"/>
<rect width="16" height="16" transform="translate(176 16)" fill="#281414"/>
<rect x="176" y="16" width="16" height="16" fill="#939393"/>
<rect x="176" y="32" width="16" height="16" fill="#939393"/>
<rect x="176" y="48" width="16" height="16" fill="#939393"/>
<rect x="176" y="64" width="16" height="16" fill="#939393"/>
<rect x="176" y="80" width="16" height="16" fill="#939393"/>
<rect x="176" y="96" width="16" height="16" fill="#939393"/>
<rect x="176" y="112" width="16" height="16" fill="#939393"/>
<rect x="176" y="128" width="16" height="16" fill="#939393"/>
<rect x="176" y="144" width="16" height="16" fill="#939393"/>
<rect x="176" y="160" width="16" height="16" fill="#939393"/>
<rect x="176" y="176" width="16" height="16" fill="#939393"/>
<rect x="176" y="192" width="16" height="16" fill="#939393"/>
<rect x="176" y="208" width="16" height="16" fill="#939393"/>
<rect x="176" y="224" width="16" height="16" fill="#D9D9D9"/>
<rect x="192" width="16" height="16" fill="#D9D9D9"/>
<rect width="16" height="16" transform="translate(192 16)" fill="#281414"/>
<rect x="192" y="16" width="16" height="16" fill="white"/>
<rect x="192" y="32" width="16" height="16" fill="white"/>
<rect x="192" y="48" width="16" height="16" fill="white"/>
<rect x="192" y="64" width="16" height="16" fill="white"/>
<rect x="192" y="80" width="16" height="16" fill="white"/>
<rect x="192" y="96" width="16" height="16" fill="white"/>
<rect x="192" y="112" width="16" height="16" fill="white"/>
<rect x="192" y="128" width="16" height="16" fill="white"/>
<rect x="192" y="144" width="16" height="16" fill="white"/>
<rect x="192" y="160" width="16" height="16" fill="white"/>
<rect x="192" y="176" width="16" height="16" fill="white"/>
<rect x="192" y="192" width="16" height="16" fill="white"/>
<rect x="192" y="208" width="16" height="16" fill="white"/>
<rect x="192" y="224" width="16" height="16" fill="#D9D9D9"/>
<rect x="208" width="16" height="16" fill="#D9D9D9"/>
<rect width="16" height="16" transform="translate(208 16)" fill="#281414"/>
<rect x="208" y="16" width="16" height="16" fill="#939393"/>
<rect x="208" y="32" width="16" height="16" fill="#939393"/>
<rect x="208" y="48" width="16" height="16" fill="#939393"/>
<rect x="208" y="64" width="16" height="16" fill="#939393"/>
<rect x="208" y="80" width="16" height="16" fill="#939393"/>
<rect x="208" y="96" width="16" height="16" fill="#939393"/>
<rect x="208" y="112" width="16" height="16" fill="#939393"/>
<rect x="208" y="128" width="16" height="16" fill="#939393"/>
<rect x="208" y="144" width="16" height="16" fill="#939393"/>
<rect x="208" y="160" width="16" height="16" fill="#939393"/>
<rect x="208" y="176" width="16" height="16" fill="#939393"/>
<rect x="208" y="192" width="16" height="16" fill="#939393"/>
<rect x="208" y="208" width="16" height="16" fill="#939393"/>
<rect x="208" y="224" width="16" height="16" fill="#D9D9D9"/>
<rect x="224" width="16" height="16" fill="#D9D9D9"/>
<rect width="16" height="16" transform="translate(224 16)" fill="#281414"/>
<rect x="224" y="16" width="16" height="16" fill="#939393"/>
<rect x="224" y="32" width="16" height="16" fill="#939393"/>
<rect x="224" y="48" width="16" height="16" fill="#939393"/>
<rect x="224" y="64" width="16" height="16" fill="#939393"/>
<rect x="224" y="80" width="16" height="16" fill="#939393"/>
<rect x="224" y="96" width="16" height="16" fill="#939393"/>
<rect x="224" y="112" width="16" height="16" fill="#939393"/>
<rect x="224" y="128" width="16" height="16" fill="#939393"/>
<rect x="224" y="144" width="16" height="16" fill="#939393"/>
<rect x="224" y="160" width="16" height="16" fill="#939393"/>
<rect x="224" y="176" width="16" height="16" fill="#939393"/>
<rect x="224" y="192" width="16" height="16" fill="#939393"/>
<rect x="224" y="208" width="16" height="16" fill="#939393"/>
<rect x="224" y="224" width="16" height="16" fill="#D9D9D9"/>
<rect x="240" width="16" height="16" fill="#D9D9D9"/>
<rect width="16" height="16" transform="translate(240 16)" fill="#281414"/>
<rect x="240" y="16" width="16" height="16" fill="white"/>
<rect x="240" y="32" width="16" height="16" fill="white"/>
<rect x="240" y="48" width="16" height="16" fill="white"/>
<rect x="240" y="64" width="16" height="16" fill="white"/>
<rect x="240" y="80" width="16" height="16" fill="white"/>
<rect x="240" y="96" width="16" height="16" fill="white"/>
<rect x="240" y="112" width="16" height="16" fill="white"/>
<rect x="240" y="128" width="16" height="16" fill="white"/>
<rect x="240" y="144" width="16" height="16" fill="white"/>
<rect x="240" y="160" width="16" height="16" fill="white"/>
<rect x="240" y="176" width="16" height="16" fill="white"/>
<rect x="240" y="192" width="16" height="16" fill="white"/>
<rect x="240" y="208" width="16" height="16" fill="white"/>
<rect x="240" y="224" width="16" height="16" fill="#D9D9D9"/>
<rect x="256" width="16" height="16" fill="#D9D9D9"/>
<rect width="16" height="16" transform="translate(256 16)" fill="#281414"/>
<rect x="256" y="16" width="16" height="16" fill="white"/>
<rect x="256" y="32" width="16" height="16" fill="white"/>
<rect x="256" y="48" width="16" height="16" fill="white"/>
<rect x="256" y="64" width="16" height="16" fill="white"/>
<rect x="256" y="80" width="16" height="16" fill="white"/>
<rect x="256" y="96" width="16" height="16" fill="white"/>
<rect x="256" y="112" width="16" height="16" fill="white"/>
<rect x="256" y="128" width="16" height="16" fill="white"/>
<rect x="256" y="144" width="16" height="16" fill="white"/>
<rect x="256" y="160" width="16" height="16" fill="white"/>
<rect x="256" y="176" width="16" height="16" fill="white"/>
<rect x="256" y="192" width="16" height="16" fill="white"/>
<rect x="256" y="208" width="16" height="16" fill="white"/>
<rect x="256" y="224" width="16" height="16" fill="#D9D9D9"/>
<rect x="272" width="16" height="16" fill="#D9D9D9"/>
<rect width="16" height="16" transform="translate(272 16)" fill="#281414"/>
<rect x="272" y="16" width="16" height="16" fill="white"/>
<rect x="272" y="32" width="16" height="16" fill="white"/>
<rect x="272" y="48" width="16" height="16" fill="white"/>
<rect x="272" y="64" width="16" height="16" fill="white"/>
<rect x="272" y="80" width="16" height="16" fill="white"/>
<rect x="272" y="96" width="16" height="16" fill="white"/>
<rect x="272" y="112" width="16" height="16" fill="white"/>
<rect x="272" y="128" width="16" height="16" fill="white"/>
<rect x="272" y="144" width="16" height="16" fill="white"/>
<rect x="272" y="160" width="16" height="16" fill="white"/>
<rect x="272" y="176" width="16" height="16" fill="white"/>
<rect x="272" y="192" width="16" height="16" fill="white"/>
<rect x="272" y="208" width="16" height="16" fill="white"/>
<rect x="272" y="224" width="16" height="16" fill="#D9D9D9"/>
<rect x="288" width="16" height="16" fill="#D9D9D9"/>
<rect width="16" height="16" transform="translate(288 16)" fill="#281414"/>
<rect x="288" y="16" width="16" height="16" fill="white"/>
<rect x="288" y="32" width="16" height="16" fill="white"/>
<rect x="288" y="48" width="16" height="16" fill="white"/>
<rect x="288" y="64" width="16" height="16" fill="white"/>
<rect x="288" y="80" width="16" height="16" fill="white"/>
<rect x="288" y="96" width="16" height="16" fill="white"/>
<rect x="288" y="112" width="16" height="16" fill="white"/>
<rect x="288" y="128" width="16" height="16" fill="white"/>
<rect x="288" y="144" width="16" height="16" fill="white"/>
<rect x="288" y="160" width="16" height="16" fill="white"/>
<rect x="288" y="176" width="16" height="16" fill="white"/>
<rect x="288" y="192" width="16" height="16" fill="white"/>
<rect x="288" y="208" width="16" height="16" fill="white"/>
<rect x="288" y="224" width="16" height="16" fill="#D9D9D9"/>
<rect x="304" width="16" height="16" fill="#D9D9D9"/>
<rect x="304" y="16" width="16" height="16" fill="#D9D9D9"/>
<rect x="304" y="32" width="16" height="16" fill="#D9D9D9"/>
<rect x="304" y="48" width="16" height="16" fill="#D9D9D9"/>
<rect x="304" y="64" width="16" height="16" fill="#D9D9D9"/>
<rect x="304" y="80" width="16" height="16" fill="#D9D9D9"/>
<rect x="304" y="96" width="16" height="16" fill="#D9D9D9"/>
<rect x="304" y="112" width="16" height="16" fill="#D9D9D9"/>
<rect x="304" y="128" width="16" height="16" fill="#D9D9D9"/>
<rect x="304" y="144" width="16" height="16" fill="#D9D9D9"/>
<rect x="304" y="160" width="16" height="16" fill="#D9D9D9"/>
<rect x="304" y="176" width="16" height="16" fill="#D9D9D9"/>
<rect x="304" y="192" width="16" height="16" fill="#D9D9D9"/>
<rect x="304" y="208" width="16" height="16" fill="#D9D9D9"/>
<rect x="304" y="224" width="16" height="16" fill="#D9D9D9"/>
<rect x="16.5" y="16.5" width="15" height="15" stroke="black"/>
<rect x="16" y="16" width="16" height="16" fill="#939393"/>
<path d="M84.6523 13.2539C84.5638 13.3581 84.4701 13.4531 84.3711 13.5391C84.2721 13.6224 84.1693 13.6953 84.0625 13.7578C83.8802 13.8672 83.6836 13.9479 83.4727 14C83.2617 14.0547 83.0404 14.0807 82.8086 14.0781C82.5742 14.0755 82.3581 14.0404 82.1602 13.9727C81.9648 13.9023 81.7891 13.806 81.6328 13.6836C81.4766 13.5638 81.3398 13.4219 81.2227 13.2578C81.1055 13.0938 81.0078 12.9154 80.9297 12.7227C80.849 12.5326 80.7878 12.3333 80.7461 12.125C80.707 11.9141 80.6862 11.7018 80.6836 11.4883V10.8281C80.6862 10.6172 80.7044 10.4076 80.7383 10.1992C80.7747 9.98828 80.8294 9.78646 80.9023 9.59375C80.9753 9.40104 81.0664 9.22266 81.1758 9.05859C81.2852 8.89193 81.4167 8.7474 81.5703 8.625C81.7214 8.50521 81.8932 8.41016 82.0859 8.33984C82.2786 8.26953 82.4948 8.23438 82.7344 8.23438C83 8.23438 83.2448 8.27604 83.4688 8.35938C83.6927 8.4401 83.888 8.55599 84.0547 8.70703C84.2214 8.86068 84.3555 9.04557 84.457 9.26172C84.5586 9.47526 84.6211 9.71484 84.6445 9.98047H83.9297C83.901 9.81641 83.8568 9.66536 83.7969 9.52734C83.737 9.38672 83.6589 9.26693 83.5625 9.16797C83.4635 9.06901 83.3464 8.99219 83.2109 8.9375C83.0755 8.88021 82.918 8.85156 82.7383 8.85156C82.5664 8.85156 82.4141 8.88151 82.2812 8.94141C82.1484 8.9987 82.0326 9.07682 81.9336 9.17578C81.8346 9.27474 81.7526 9.39062 81.6875 9.52344C81.6224 9.65365 81.569 9.79167 81.5273 9.9375C81.4857 10.0833 81.4557 10.2318 81.4375 10.3828C81.4193 10.5339 81.4102 10.6797 81.4102 10.8203V11.4883C81.4128 11.6315 81.4245 11.7799 81.4453 11.9336C81.4688 12.0846 81.5039 12.2331 81.5508 12.3789C81.5977 12.5247 81.6576 12.6628 81.7305 12.793C81.8034 12.9232 81.8919 13.0378 81.9961 13.1367C82.0977 13.2357 82.2161 13.3151 82.3516 13.375C82.487 13.4323 82.6406 13.4622 82.8125 13.4648C82.9115 13.4674 83.0143 13.4635 83.1211 13.4531C83.2305 13.4427 83.3359 13.4219 83.4375 13.3906C83.5391 13.3594 83.6341 13.3177 83.7227 13.2656C83.8112 13.2109 83.8854 13.1406 83.9453 13.0547L83.9531 11.7773H82.7969V11.168H84.6406L84.6523 13.2539ZM88.4922 12.5273L86.5938 12.5273L86.1367 14L85.4141 14L87.25 8.3125H87.8555L89.6602 14H88.9414L88.4922 12.5273ZM86.7891 11.8984L88.3008 11.8984L87.5508 9.42969L86.7891 11.8984ZM91.3711 11.7187V14H90.6484V8.3125H92.4922C92.7474 8.31771 92.9883 8.35807 93.2148 8.43359C93.444 8.50911 93.6445 8.61849 93.8164 8.76172C93.9883 8.90495 94.1237 9.08203 94.2227 9.29297C94.3242 9.50391 94.375 9.74609 94.375 10.0195C94.375 10.293 94.3242 10.5352 94.2227 10.7461C94.1237 10.9544 93.9883 11.1302 93.8164 11.2734C93.6445 11.4167 93.444 11.526 93.2148 11.6016C92.9883 11.6771 92.7474 11.7161 92.4922 11.7187H91.3711ZM91.3711 11.125H92.4922C92.6589 11.1224 92.8125 11.0964 92.9531 11.0469C93.0938 10.9948 93.2161 10.9219 93.3203 10.8281C93.4245 10.7344 93.5052 10.6211 93.5625 10.4883C93.6224 10.3529 93.6523 10.1992 93.6523 10.0273C93.6523 9.85547 93.6224 9.70052 93.5625 9.5625C93.5052 9.42448 93.4258 9.30729 93.3242 9.21094C93.2201 9.11458 93.0964 9.04036 92.9531 8.98828C92.8125 8.9362 92.6589 8.90885 92.4922 8.90625H91.3711V11.125Z" fill="black"/>
<path d="M196.652 13.2539C196.564 13.3581 196.47 13.4531 196.371 13.5391C196.272 13.6224 196.169 13.6953 196.062 13.7578C195.88 13.8672 195.684 13.9479 195.473 14C195.262 14.0547 195.04 14.0807 194.809 14.0781C194.574 14.0755 194.358 14.0404 194.16 13.9727C193.965 13.9023 193.789 13.806 193.633 13.6836C193.477 13.5638 193.34 13.4219 193.223 13.2578C193.105 13.0938 193.008 12.9154 192.93 12.7227C192.849 12.5326 192.788 12.3333 192.746 12.125C192.707 11.9141 192.686 11.7018 192.684 11.4883V10.8281C192.686 10.6172 192.704 10.4076 192.738 10.1992C192.775 9.98828 192.829 9.78646 192.902 9.59375C192.975 9.40104 193.066 9.22266 193.176 9.05859C193.285 8.89193 193.417 8.7474 193.57 8.625C193.721 8.50521 193.893 8.41016 194.086 8.33984C194.279 8.26953 194.495 8.23438 194.734 8.23438C195 8.23438 195.245 8.27604 195.469 8.35938C195.693 8.4401 195.888 8.55599 196.055 8.70703C196.221 8.86068 196.355 9.04557 196.457 9.26172C196.559 9.47526 196.621 9.71484 196.645 9.98047H195.93C195.901 9.81641 195.857 9.66536 195.797 9.52734C195.737 9.38672 195.659 9.26693 195.562 9.16797C195.464 9.06901 195.346 8.99219 195.211 8.9375C195.076 8.88021 194.918 8.85156 194.738 8.85156C194.566 8.85156 194.414 8.88151 194.281 8.94141C194.148 8.9987 194.033 9.07682 193.934 9.17578C193.835 9.27474 193.753 9.39062 193.688 9.52344C193.622 9.65365 193.569 9.79167 193.527 9.9375C193.486 10.0833 193.456 10.2318 193.438 10.3828C193.419 10.5339 193.41 10.6797 193.41 10.8203V11.4883C193.413 11.6315 193.424 11.7799 193.445 11.9336C193.469 12.0846 193.504 12.2331 193.551 12.3789C193.598 12.5247 193.658 12.6628 193.73 12.793C193.803 12.9232 193.892 13.0378 193.996 13.1367C194.098 13.2357 194.216 13.3151 194.352 13.375C194.487 13.4323 194.641 13.4622 194.812 13.4648C194.911 13.4674 195.014 13.4635 195.121 13.4531C195.23 13.4427 195.336 13.4219 195.438 13.3906C195.539 13.3594 195.634 13.3177 195.723 13.2656C195.811 13.2109 195.885 13.1406 195.945 13.0547L195.953 11.7773H194.797V11.168H196.641L196.652 13.2539ZM200.492 12.5273L198.594 12.5273L198.137 14L197.414 14L199.25 8.3125H199.855L201.66 14H200.941L200.492 12.5273ZM198.789 11.8984L200.301 11.8984L199.551 9.42969L198.789 11.8984ZM203.371 11.7187V14H202.648V8.3125H204.492C204.747 8.31771 204.988 8.35807 205.215 8.43359C205.444 8.50911 205.645 8.61849 205.816 8.76172C205.988 8.90495 206.124 9.08203 206.223 9.29297C206.324 9.50391 206.375 9.74609 206.375 10.0195C206.375 10.293 206.324 10.5352 206.223 10.7461C206.124 10.9544 205.988 11.1302 205.816 11.2734C205.645 11.4167 205.444 11.526 205.215 11.6016C204.988 11.6771 204.747 11.7161 204.492 11.7187H203.371ZM203.371 11.125H204.492C204.659 11.1224 204.812 11.0964 204.953 11.0469C205.094 10.9948 205.216 10.9219 205.32 10.8281C205.424 10.7344 205.505 10.6211 205.562 10.4883C205.622 10.3529 205.652 10.1992 205.652 10.0273C205.652 9.85547 205.622 9.70052 205.562 9.5625C205.505 9.42448 205.426 9.30729 205.324 9.21094C205.22 9.11458 205.096 9.04036 204.953 8.98828C204.812 8.9362 204.659 8.90885 204.492 8.90625H203.371V11.125Z" fill="black"/>
<path d="M270.223 32.8359C270.695 32.8359 271.129 32.8926 271.523 33.0059C271.922 33.123 272.264 33.291 272.549 33.5098C272.834 33.7285 273.057 33.9941 273.217 34.3066C273.377 34.6191 273.457 34.9727 273.457 35.3672C273.457 35.6211 273.428 35.8535 273.369 36.0645C273.311 36.2793 273.225 36.4727 273.111 36.6445C273.053 36.7383 272.984 36.8262 272.906 36.9082C272.828 36.9941 272.742 37.0742 272.648 37.1484L273.34 37.2012L273.34 38.1855L267.135 38.1855C266.717 38.1855 266.346 38.1191 266.021 37.9863C265.697 37.8574 265.422 37.6758 265.195 37.4414C264.969 37.2031 264.797 36.9199 264.68 36.5918C264.562 36.2637 264.504 35.9004 264.504 35.502C264.504 35.3379 264.523 35.1504 264.562 34.9395C264.598 34.7285 264.658 34.5156 264.744 34.3008C264.826 34.082 264.937 33.8711 265.078 33.668C265.219 33.4687 265.393 33.2969 265.6 33.1523L266.25 33.7148C266.09 33.8477 265.955 33.9844 265.846 34.125C265.732 34.2656 265.643 34.4082 265.576 34.5527C265.51 34.6973 265.463 34.8418 265.436 34.9863C265.404 35.1309 265.389 35.2754 265.389 35.4199C265.389 35.6777 265.426 35.9102 265.5 36.1172C265.574 36.3242 265.684 36.502 265.828 36.6504C265.969 36.7949 266.145 36.9062 266.355 36.9844C266.566 37.0625 266.809 37.1016 267.082 37.1016L267.627 37.1016C267.533 37.0195 267.447 36.9316 267.369 36.8379C267.291 36.748 267.223 36.6504 267.164 36.5449C267.074 36.3809 267.006 36.1992 266.959 36C266.908 35.8008 266.883 35.5859 266.883 35.3555C266.883 34.9687 266.965 34.6191 267.129 34.3066C267.293 33.9941 267.52 33.7305 267.809 33.5156C268.098 33.2969 268.437 33.1289 268.828 33.0117C269.223 32.8945 269.646 32.8359 270.1 32.8359L270.223 32.8359ZM270.1 33.9199C269.791 33.9199 269.498 33.9512 269.221 34.0137C268.943 34.0801 268.699 34.1836 268.488 34.3242C268.277 34.4609 268.109 34.6367 267.984 34.8516C267.863 35.0664 267.803 35.3242 267.803 35.625C267.803 35.8125 267.824 35.9805 267.867 36.1289C267.914 36.2812 267.979 36.418 268.061 36.5391C268.143 36.6562 268.24 36.7617 268.354 36.8555C268.467 36.9492 268.592 37.0312 268.729 37.1016L271.635 37.1016C271.768 37.0312 271.889 36.9492 271.998 36.8555C272.107 36.7617 272.203 36.6543 272.285 36.5332C272.363 36.4121 272.424 36.2773 272.467 36.1289C272.514 35.9805 272.537 35.8164 272.537 35.6367C272.537 35.332 272.475 35.0703 272.35 34.8516C272.225 34.6367 272.057 34.4609 271.846 34.3242C271.631 34.1836 271.383 34.0801 271.102 34.0137C270.824 33.9512 270.531 33.9199 270.223 33.9199L270.1 33.9199ZM267 44.4082C267.082 44.3652 267.184 44.3301 267.305 44.3027C267.43 44.2793 267.559 44.2617 267.691 44.25C267.582 44.1406 267.479 44.0176 267.381 43.8809C267.283 43.748 267.197 43.6016 267.123 43.4414C267.049 43.2773 266.99 43.1035 266.947 42.9199C266.904 42.7363 266.883 42.541 266.883 42.334C266.883 41.998 266.932 41.6934 267.029 41.4199C267.127 41.1504 267.26 40.9219 267.428 40.7344C267.592 40.543 267.787 40.3945 268.014 40.2891C268.244 40.1875 268.492 40.1367 268.758 40.1367C269.105 40.1367 269.41 40.2051 269.672 40.3418C269.934 40.4824 270.152 40.6797 270.328 40.9336C270.5 41.1875 270.629 41.4922 270.715 41.8477C270.801 42.207 270.844 42.6074 270.844 43.0488L270.844 44.2324L271.342 44.2324C271.533 44.2324 271.705 44.1973 271.857 44.127C272.01 44.0566 272.141 43.957 272.25 43.8281C272.355 43.6992 272.437 43.541 272.496 43.3535C272.555 43.1699 272.584 42.9629 272.584 42.7324C272.584 42.5176 272.557 42.3242 272.502 42.1523C272.447 41.9844 272.375 41.8418 272.285 41.7246C272.195 41.6074 272.088 41.5156 271.963 41.4492C271.842 41.3867 271.715 41.3555 271.582 41.3555L271.582 40.2656C271.812 40.2695 272.039 40.3281 272.262 40.4414C272.484 40.5586 272.686 40.7266 272.865 40.9453C273.041 41.1602 273.184 41.4219 273.293 41.7305C273.402 42.043 273.457 42.3965 273.457 42.791C273.457 43.1504 273.412 43.4844 273.322 43.793C273.236 44.1016 273.105 44.3691 272.93 44.5957C272.75 44.8184 272.527 44.9941 272.262 45.123C271.996 45.252 271.686 45.3164 271.33 45.3164L268.383 45.3164C268.172 45.3164 267.947 45.3359 267.709 45.375C267.475 45.4141 267.27 45.4687 267.094 45.5391L267 45.5391L267 44.4082ZM267.826 42.4922C267.826 42.7031 267.854 42.9004 267.908 43.084C267.963 43.2676 268.035 43.4355 268.125 43.5879C268.215 43.7363 268.316 43.8652 268.43 43.9746C268.547 44.084 268.668 44.1699 268.793 44.2324L270.076 44.2324L270.076 43.2246C270.076 42.8496 270.043 42.5215 269.977 42.2402C269.914 41.9629 269.816 41.7422 269.684 41.5781C269.59 41.4609 269.479 41.3711 269.35 41.3086C269.221 41.25 269.074 41.2207 268.91 41.2207C268.754 41.2207 268.609 41.2461 268.477 41.2969C268.344 41.3516 268.23 41.4316 268.137 41.5371C268.039 41.6426 267.963 41.7754 267.908 41.9355C267.854 42.0957 267.826 42.2812 267.826 42.4922ZM264.562 47.4434L273.34 47.4434L273.34 48.4336L272.648 48.4863C272.758 48.5723 272.855 48.666 272.941 48.7676C273.031 48.8691 273.107 48.9785 273.17 49.0957C273.264 49.2598 273.334 49.4414 273.381 49.6406C273.432 49.8437 273.457 50.0605 273.457 50.291C273.457 50.6973 273.377 51.0566 273.217 51.3691C273.057 51.6816 272.834 51.9434 272.549 52.1543C272.264 52.3652 271.922 52.5254 271.523 52.6348C271.129 52.7441 270.695 52.7988 270.223 52.7988L270.1 52.7988C269.646 52.7988 269.223 52.7441 268.828 52.6348C268.437 52.5254 268.098 52.3652 267.809 52.1543C267.52 51.9434 267.293 51.6816 267.129 51.3691C266.965 51.0605 266.883 50.707 266.883 50.3086C266.883 50.0664 266.908 49.8398 266.959 49.6289C267.01 49.4219 267.082 49.2344 267.176 49.0664C267.234 48.9648 267.299 48.8691 267.369 48.7793C267.443 48.6895 267.523 48.6055 267.609 48.5273L264.562 48.5273L264.562 47.4434ZM270.223 51.7148C270.531 51.7148 270.824 51.6797 271.102 51.6094C271.383 51.543 271.631 51.4395 271.846 51.2988C272.057 51.1543 272.225 50.9727 272.35 50.7539C272.475 50.5352 272.537 50.2734 272.537 49.9687C272.537 49.8008 272.518 49.6445 272.479 49.5C272.439 49.3594 272.383 49.2324 272.309 49.1191C272.234 48.9941 272.143 48.8828 272.033 48.7852C271.924 48.6875 271.803 48.6016 271.67 48.5273L268.617 48.5273C268.5 48.5937 268.391 48.6699 268.289 48.7559C268.187 48.8418 268.102 48.9395 268.031 49.0488C267.949 49.1738 267.885 49.3125 267.838 49.4648C267.791 49.6211 267.768 49.793 267.768 49.9805C267.768 50.2812 267.83 50.541 267.955 50.7598C268.084 50.9785 268.256 51.1582 268.471 51.2988C268.686 51.4395 268.934 51.543 269.215 51.6094C269.496 51.6797 269.791 51.7148 270.1 51.7148L270.223 51.7148ZM271.57 67.0898L271.57 61.8574L272.514 61.8574L272.514 67.0898L271.57 67.0898ZM269.139 67.0898L269.139 61.8574L270.076 61.8574L270.076 67.0898L269.139 67.0898ZM270.264 81.6328C269.721 81.6328 269.238 81.5703 268.816 81.4453C268.398 81.3203 268.047 81.1406 267.762 80.9062C267.473 80.6719 267.254 80.3848 267.105 80.0449C266.957 79.7051 266.883 79.3164 266.883 78.8789C266.883 78.4453 266.955 78.0566 267.1 77.7129C267.248 77.3691 267.469 77.0781 267.762 76.8398C268.047 76.6016 268.398 76.4199 268.816 76.2949C269.238 76.1699 269.721 76.1074 270.264 76.1074L272.262 76.1074C272.805 76.1074 273.285 76.1699 273.703 76.2949C274.125 76.4199 274.48 76.6016 274.77 76.8398C275.059 77.0742 275.277 77.3613 275.426 77.7012C275.578 78.0449 275.654 78.4336 275.654 78.8672C275.654 79.3047 275.578 79.6934 275.426 80.0332C275.277 80.377 275.059 80.668 274.77 80.9062C274.48 81.1406 274.125 81.3203 273.703 81.4453C273.285 81.5703 272.805 81.6328 272.262 81.6328L270.264 81.6328ZM270.48 77.1973L273.029 80.5195C273.311 80.4883 273.559 80.4316 273.773 80.3496C273.992 80.2715 274.174 80.1641 274.318 80.0273C274.467 79.8945 274.578 79.7305 274.652 79.5352C274.727 79.3437 274.764 79.1211 274.764 78.8672C274.764 78.6094 274.723 78.3809 274.641 78.1816C274.562 77.9863 274.447 77.8203 274.295 77.6836C274.104 77.5195 273.855 77.3965 273.551 77.3145C273.25 77.2363 272.9 77.1973 272.502 77.1973L271.072 77.1973C270.975 77.1973 270.877 77.1973 270.779 77.1973C270.682 77.1973 270.582 77.1973 270.48 77.1973ZM270.035 80.543L271.242 80.543C271.301 80.543 271.412 80.543 271.576 80.543C271.744 80.543 271.883 80.543 271.992 80.543L269.455 77.2266C269.17 77.2617 268.918 77.3242 268.699 77.4141C268.484 77.5039 268.307 77.6211 268.166 77.7656C268.033 77.8984 267.932 78.0586 267.861 78.2461C267.795 78.4336 267.762 78.6445 267.762 78.8789C267.762 79.125 267.799 79.3437 267.873 79.5352C267.947 79.7266 268.055 79.8887 268.195 80.0215C268.387 80.2012 268.637 80.332 268.945 80.4141C269.254 80.5 269.617 80.543 270.035 80.543ZM267.252 86.2324C266.861 86.2324 266.463 86.1406 266.057 85.957C265.65 85.7734 265.309 85.5254 265.031 85.2129L265.4 84.5391C265.674 84.7266 265.965 84.8594 266.273 84.9375C266.582 85.0156 266.902 85.0547 267.234 85.0547L268.283 85.0547L268.283 86.2324L267.252 86.2324ZM267 101.414L267 100.33L274.148 100.33L273.299 98.0977L274.289 98.0977L275.531 101.326L275.531 101.414L267 101.414ZM267.252 107.854C266.861 107.854 266.463 107.762 266.057 107.578C265.65 107.395 265.309 107.146 265.031 106.834L265.4 106.16C265.674 106.348 265.965 106.48 266.273 106.559C266.582 106.637 266.902 106.676 267.234 106.676L268.283 106.676L268.283 107.854L267.252 107.854ZM267 124.752L267 119.162L267.779 119.162L270.885 121.957C271.162 122.207 271.408 122.416 271.623 122.584C271.838 122.752 272.037 122.887 272.221 122.988C272.4 123.09 272.57 123.162 272.73 123.205C272.895 123.248 273.062 123.27 273.234 123.27C273.445 123.27 273.643 123.234 273.826 123.164C274.014 123.098 274.176 123 274.312 122.871C274.449 122.738 274.557 122.578 274.635 122.391C274.717 122.207 274.758 121.998 274.758 121.764C274.758 121.479 274.717 121.23 274.635 121.02C274.553 120.812 274.437 120.641 274.289 120.504C274.137 120.363 273.953 120.258 273.738 120.187C273.523 120.121 273.283 120.088 273.018 120.088L273.018 118.998C273.377 118.998 273.715 119.061 274.031 119.186C274.352 119.311 274.631 119.492 274.869 119.73C275.107 119.965 275.297 120.252 275.437 120.592C275.578 120.936 275.648 121.326 275.648 121.764C275.648 122.166 275.588 122.527 275.467 122.848C275.35 123.172 275.186 123.445 274.975 123.668C274.764 123.891 274.514 124.061 274.225 124.178C273.936 124.299 273.621 124.359 273.281 124.359C273.027 124.359 272.775 124.316 272.525 124.23C272.279 124.145 272.035 124.029 271.793 123.885C271.551 123.736 271.311 123.564 271.072 123.369C270.838 123.178 270.604 122.975 270.369 122.76L267.885 120.469L267.885 124.752L267 124.752ZM267.252 129.475C266.861 129.475 266.463 129.383 266.057 129.199C265.65 129.016 265.309 128.768 265.031 128.455L265.4 127.781C265.674 127.969 265.965 128.102 266.273 128.18C266.582 128.258 266.902 128.297 267.234 128.297L268.283 128.297L268.283 129.475L267.252 129.475ZM271.787 142.406L271.787 143.18C271.787 143.453 271.824 143.693 271.898 143.9C271.973 144.111 272.074 144.289 272.203 144.434C272.332 144.574 272.486 144.682 272.666 144.756C272.846 144.83 273.043 144.867 273.258 144.867C273.512 144.867 273.732 144.834 273.92 144.768C274.111 144.701 274.27 144.604 274.395 144.475C274.516 144.35 274.605 144.193 274.664 144.006C274.727 143.822 274.758 143.611 274.758 143.373C274.758 143.143 274.723 142.932 274.652 142.74C274.586 142.553 274.488 142.393 274.359 142.26C274.23 142.123 274.076 142.018 273.896 141.943C273.717 141.869 273.516 141.832 273.293 141.832L273.293 140.742C273.617 140.742 273.922 140.805 274.207 140.93C274.496 141.059 274.748 141.238 274.963 141.469C275.174 141.699 275.34 141.975 275.461 142.295C275.586 142.619 275.648 142.979 275.648 143.373C275.648 143.756 275.596 144.105 275.49 144.422C275.389 144.738 275.236 145.01 275.033 145.236C274.83 145.463 274.578 145.639 274.277 145.764C273.977 145.889 273.629 145.951 273.234 145.951C273.07 145.951 272.9 145.926 272.725 145.875C272.549 145.824 272.379 145.746 272.215 145.641C272.047 145.535 271.889 145.398 271.74 145.23C271.596 145.066 271.475 144.869 271.377 144.639C271.287 144.916 271.17 145.146 271.025 145.33C270.881 145.518 270.719 145.668 270.539 145.781C270.359 145.891 270.17 145.967 269.971 146.01C269.771 146.057 269.574 146.08 269.379 146.08C268.98 146.08 268.627 146.012 268.318 145.875C268.01 145.738 267.75 145.549 267.539 145.307C267.324 145.064 267.16 144.777 267.047 144.445C266.937 144.117 266.883 143.762 266.883 143.379C266.883 143.004 266.936 142.65 267.041 142.318C267.146 141.99 267.301 141.705 267.504 141.463C267.707 141.221 267.955 141.027 268.248 140.883C268.541 140.742 268.875 140.672 269.25 140.672L269.25 141.756C269.027 141.756 268.824 141.793 268.641 141.867C268.457 141.945 268.301 142.055 268.172 142.195C268.043 142.336 267.943 142.506 267.873 142.705C267.803 142.908 267.768 143.133 267.768 143.379C267.768 143.625 267.799 143.848 267.861 144.047C267.928 144.246 268.027 144.416 268.16 144.557C268.293 144.697 268.457 144.805 268.652 144.879C268.852 144.957 269.086 144.996 269.355 144.996C269.621 144.996 269.85 144.951 270.041 144.861C270.236 144.775 270.398 144.654 270.527 144.498C270.656 144.338 270.752 144.145 270.814 143.918C270.877 143.695 270.908 143.449 270.908 143.18L270.908 142.406L271.787 142.406ZM267.252 151.096C266.861 151.096 266.463 151.004 266.057 150.82C265.65 150.637 265.309 150.389 265.031 150.076L265.4 149.402C265.674 149.59 265.965 149.723 266.273 149.801C266.582 149.879 266.902 149.918 267.234 149.918L268.283 149.918L268.283 151.096L267.252 151.096ZM269.865 167.156L269.865 168.346L268.98 168.346L268.98 167.156L267 167.156L267 166.072L268.98 166.072L268.98 162.182L269.619 162.182L275.531 166.002L275.531 167.156L269.865 167.156ZM269.865 163.383L269.865 166.072L274.09 166.072L273.762 165.896L269.865 163.383ZM266.883 179.977C266.883 179.531 266.959 179.121 267.111 178.746C267.264 178.375 267.477 178.057 267.75 177.791C268.023 177.525 268.348 177.318 268.723 177.17C269.098 177.021 269.506 176.947 269.947 176.947L270.193 176.947C270.705 176.947 271.162 177.029 271.564 177.193C271.971 177.357 272.314 177.576 272.596 177.85C272.873 178.119 273.086 178.426 273.234 178.77C273.383 179.117 273.457 179.473 273.457 179.836C273.457 180.293 273.377 180.691 273.217 181.031C273.061 181.375 272.844 181.66 272.566 181.887C272.285 182.113 271.955 182.281 271.576 182.391C271.197 182.504 270.787 182.561 270.346 182.561L269.859 182.561L269.859 178.031L269.818 178.031C269.51 178.059 269.238 178.119 269.004 178.213C268.77 178.311 268.562 178.443 268.383 178.611C268.191 178.783 268.041 178.99 267.932 179.232C267.822 179.475 267.768 179.742 267.768 180.035C267.768 180.422 267.846 180.766 268.002 181.066C268.158 181.367 268.365 181.617 268.623 181.816L268.107 182.479C267.787 182.268 267.502 181.951 267.252 181.529C267.006 181.111 266.883 180.594 266.883 179.977ZM272.566 179.836C272.566 179.617 272.525 179.41 272.443 179.215C272.365 179.02 272.25 178.844 272.098 178.687C271.941 178.531 271.75 178.398 271.523 178.289C271.301 178.184 271.043 178.109 270.75 178.066L270.75 181.477L270.803 181.477C270.998 181.477 271.207 181.439 271.43 181.365C271.656 181.291 271.852 181.187 272.016 181.055C272.18 180.922 272.312 180.754 272.414 180.551C272.516 180.352 272.566 180.113 272.566 179.836ZM274.875 186.949L273.34 186.949L273.34 189.363L272.502 189.363L272.502 186.949L269.057 186.949C268.811 186.949 268.607 186.98 268.447 187.043C268.287 187.105 268.16 187.191 268.066 187.301C267.969 187.41 267.9 187.535 267.861 187.676C267.822 187.82 267.803 187.973 267.803 188.133C267.803 188.25 267.809 188.371 267.82 188.496C267.836 188.621 267.854 188.744 267.873 188.865C267.893 188.982 267.912 189.092 267.932 189.193C267.955 189.299 267.975 189.385 267.99 189.451L267.223 189.604C267.168 189.514 267.119 189.404 267.076 189.275C267.037 189.146 267.004 189.006 266.977 188.854C266.945 188.701 266.922 188.539 266.906 188.367C266.891 188.199 266.883 188.031 266.883 187.863C266.883 187.582 266.922 187.318 267 187.072C267.082 186.83 267.211 186.619 267.387 186.439C267.559 186.26 267.781 186.117 268.055 186.012C268.332 185.91 268.666 185.859 269.057 185.859L272.502 185.859L272.502 184.195L273.34 184.195L273.34 185.859L274.875 185.859L274.875 186.949ZM267.762 194.291C267.762 194.486 267.793 194.676 267.855 194.859C267.918 195.047 268.006 195.213 268.119 195.357C268.229 195.502 268.357 195.617 268.506 195.703C268.658 195.793 268.822 195.84 268.998 195.844L268.998 196.869C268.717 196.865 268.447 196.791 268.189 196.646C267.936 196.506 267.713 196.316 267.521 196.078C267.326 195.84 267.17 195.566 267.053 195.258C266.939 194.949 266.883 194.627 266.883 194.291C266.883 193.811 266.969 193.391 267.141 193.031C267.312 192.672 267.545 192.373 267.838 192.135C268.127 191.893 268.461 191.711 268.84 191.59C269.223 191.469 269.625 191.408 270.047 191.408L270.293 191.408C270.711 191.408 271.111 191.469 271.494 191.59C271.877 191.711 272.215 191.893 272.508 192.135C272.797 192.373 273.027 192.672 273.199 193.031C273.371 193.391 273.457 193.811 273.457 194.291C273.457 194.666 273.396 195.01 273.275 195.322C273.158 195.639 272.998 195.912 272.795 196.143C272.588 196.369 272.344 196.547 272.062 196.676C271.781 196.805 271.48 196.869 271.16 196.869L271.16 195.844C271.352 195.84 271.531 195.797 271.699 195.715C271.871 195.637 272.021 195.529 272.15 195.393C272.279 195.256 272.381 195.092 272.455 194.9C272.529 194.713 272.566 194.51 272.566 194.291C272.566 193.955 272.498 193.672 272.361 193.441C272.229 193.215 272.055 193.031 271.84 192.891C271.621 192.75 271.377 192.648 271.107 192.586C270.838 192.527 270.566 192.498 270.293 192.498L270.047 192.498C269.77 192.498 269.494 192.527 269.221 192.586C268.951 192.648 268.709 192.75 268.494 192.891C268.275 193.027 268.098 193.209 267.961 193.436C267.828 193.666 267.762 193.951 267.762 194.291ZM267.703 200.684C267.934 200.684 268.131 200.754 268.295 200.895C268.459 201.035 268.541 201.248 268.541 201.533C268.541 201.814 268.459 202.027 268.295 202.172C268.135 202.32 267.937 202.395 267.703 202.395C267.473 202.395 267.279 202.32 267.123 202.172C266.967 202.023 266.889 201.811 266.889 201.533C266.889 201.252 266.967 201.039 267.123 200.895C267.283 200.754 267.477 200.684 267.703 200.684Z" fill="black"/>
</g>
<defs>
<clipPath id="clip0_1_6910">
<rect width="320" height="240" fill="white"/>
</clipPath>
</defs>
</svg>
