
<svg width="647" height="689" viewBox="0 0 647 689" fill="none" xmlns="http://www.w3.org/2000/svg">
<path d="M176.54 123.332C177.385 123.434 178.1 123.62 178.915 123.849C182.415 127 183.918 133.17 185.509 137.525C189.094 139.49 197.377 141.866 199.654 145.18C200.414 146.287 200.254 146.575 199.956 147.776C196.621 151.637 190.591 153.31 186.165 155.797C183.488 160.259 182.622 165.514 179.59 169.763C179.08 169.795 178.721 169.842 178.193 169.744C172.883 168.756 172.021 159.547 169.54 155.543C169.443 155.386 169.34 155.233 169.239 155.078C165.454 153.052 160.436 151.801 157.366 148.69C156.345 147.655 156.259 147.043 156.262 145.642C158.47 141.769 165.79 139.643 169.736 137.983C171.94 133.106 173.064 127.528 176.54 123.332Z" fill="#F8C588"/>
<path d="M306.608 635.44C308.021 635.445 309.363 635.545 310.644 636.215C312.115 636.98 312.975 638.25 313.4 639.81C315.63 647.965 314.985 674.43 310.75 681.355C308.547 684.96 305.075 687.54 300.91 688.355C294.935 689.52 289.053 687.995 284.021 684.76C282.063 683.05 280.424 681.255 279.636 678.715C279.096 676.98 278.974 675 280.029 673.42C281.066 671.865 283.236 670.855 285.048 670.625C289.126 670.11 289.569 674.715 292.505 676.305C293.881 677.045 295.738 676.91 297.128 676.235C304.097 672.86 299.506 646.94 302.151 639.62C302.989 637.3 304.496 636.515 306.608 635.44Z" fill="#5E2C60"/>
<path d="M424.04 647.62C428.415 647.28 432.845 647.865 436.705 650.065C441.15 652.6 444.21 656.94 445.34 661.91C445.936 664.443 446.027 667.068 445.607 669.636C445.188 672.204 444.266 674.664 442.895 676.875C439.64 682.035 434.71 684.515 428.985 685.945C424.62 686.15 420.855 685.84 416.95 683.63C414.631 682.293 412.612 680.495 411.017 678.345C409.423 676.196 408.287 673.742 407.68 671.135C406.45 666.045 407.205 660.535 410.08 656.12C413.405 651.015 418.29 648.815 424.04 647.62Z" fill="#5E2C60"/>
<path d="M220.981 646.685C225.202 646.695 229.294 647.46 232.898 649.78C237.344 652.645 240.186 657.41 241.089 662.575C241.541 665.202 241.463 667.893 240.859 670.489C240.255 673.085 239.136 675.533 237.57 677.69C234.001 682.62 228.789 684.805 222.946 685.695C218.338 685.64 214.203 684.84 210.317 682.22C208.099 680.736 206.216 678.806 204.786 676.553C203.357 674.3 202.413 671.773 202.015 669.135C201.619 666.53 201.742 663.872 202.379 661.314C203.015 658.757 204.151 656.351 205.722 654.235C209.568 649.135 214.934 647.455 220.981 646.685Z" fill="#5E2C60"/>
<path d="M333.99 634.65C336.29 634.51 338.565 634.4 340.87 634.675C345.96 635.275 351.06 637.595 354.13 641.825C355.27 643.376 356.075 645.148 356.493 647.027C356.912 648.906 356.934 650.852 356.56 652.74C355.46 658.035 351.61 660.69 347.455 663.54C350.5 666.965 359.105 672.92 359.32 677.58C359.38 678.895 358.785 679.785 357.875 680.665C356.535 681.955 354.32 682.725 352.485 682.645C348.87 682.495 345.64 677.995 343.38 675.605C340.235 672.505 337.24 669.385 333.595 666.87C334.04 671.08 337.275 678.78 334.435 682.46C333.305 683.925 331.035 684.335 329.285 684.34C327.585 684.345 325.84 683.86 324.65 682.595C319.955 677.605 319.41 648.83 319.505 641.015C323.555 636.89 328.48 635.53 333.99 634.65Z" fill="#5E2C60"/>
<path d="M332.73 646.155C333.544 646.106 334.359 646.069 335.175 646.045C337.69 645.98 340.125 646.485 341.88 648.47C342.69 649.39 343.035 650.535 342.855 651.745C342.515 654.05 340.86 655.47 339.205 656.92C337.02 657.87 334.595 658.39 332.3 659.025C331.65 656.045 329.72 650.265 330.815 647.445C331.1 646.705 332.06 646.49 332.73 646.155Z" fill="#FEFEFE"/>
<path d="M298.914 507.06C301.549 506.915 304.254 507.1 306.649 508.31C308.593 509.295 310.721 511.27 311.362 513.4C314.3 523.14 314.905 535.335 316.295 545.54C318.42 561.18 321.28 577.09 322.36 592.815C322.545 595.475 323.155 599.645 321.805 602.04C319.925 605.365 315.905 606.73 312.465 607.76C309.798 607.695 307.405 607.6 304.907 606.505C302.762 605.565 300.74 603.965 299.951 601.69C298.435 597.31 298.16 592.01 297.524 587.41L294.066 562.225L290.073 533.07C289.362 527.84 288.341 522.425 288.094 517.16C288.037 515.935 288.169 514.925 288.756 513.83C290.974 509.71 294.57 508.185 298.914 507.06Z" fill="#5E2C60"/>
<path d="M196.085 178.358C205.99 179.412 206.755 196.592 212.991 202.986C217.298 207.403 225.572 209.54 231.029 212.469C232.93 213.489 235.102 214.592 235.752 216.793C233.667 222.961 218.039 225.468 213.176 230.669C206.637 237.663 206.337 249.547 199.47 256.116C198.872 256.089 198.335 256.087 197.742 255.948C193.231 254.894 185.551 234.664 182.566 229.666C176.973 225.812 165.105 223.474 161.271 218.997C160.663 218.288 160.26 217.305 160.457 216.372C161.369 212.076 177.938 206.057 182.356 203.466L182.978 203.096C187.388 195.538 190.273 184.572 196.085 178.358Z" fill="#F8C588"/>
<path d="M198.119 197.236C200.636 198.885 202.375 208.073 208.154 212.625C210.495 214.469 213.468 215.764 216.112 217.125C209.462 220.238 205.548 223.77 201.701 230.005C200.663 231.686 199.706 233.603 198.414 235.098C198.253 235.284 198.088 235.467 197.924 235.651C192.157 225.458 189.816 222.684 178.978 217.331C181.344 215.491 184.088 214.233 186.633 212.66C192.776 208.863 194.698 203.256 198.119 197.236Z" fill="#FEFEFE"/>
<path d="M261.752 508.595C265.111 508.435 269.861 508.825 272.445 511.24C274.102 512.79 274.524 515.145 274.987 517.28C277.965 531.03 279.219 546.775 280.987 560.85C282.924 576.27 285.515 591.84 286.815 607.31C283.431 611.25 280.733 613.255 275.632 614.425C272.808 614.31 270.275 613.97 267.724 612.67C265.099 611.335 263.298 609.38 262.471 606.53C259.621 596.72 258.453 578.495 257.053 567.42C255.115 552.09 251.909 536.245 251.371 520.82C251.293 518.605 251.228 516.68 252.394 514.715C254.413 511.31 258.071 509.57 261.752 508.595Z" fill="#5E2C60"/>
<path d="M204.672 534.14C215.382 533.145 226.347 534.91 234.976 541.79C239.906 545.72 244.358 551.775 244.839 558.205C244.954 559.745 244.987 561.64 244.27 563.035C240.402 570.565 211.351 580.605 205.02 587.625C205.419 588.735 208.199 589.86 209.327 590.48C221.525 589.325 225.251 583.745 234.966 581.1C237.459 580.42 240.138 580.495 242.359 581.925C246.07 584.31 247.202 588.83 248.136 592.86C247.827 594.195 247.457 595.265 246.677 596.405C241.596 603.845 229.048 608.345 220.535 609.9C209.671 611.88 197.908 610.53 188.702 604.08C180.12 598.065 174.148 587.935 172.403 577.655C170.783 568.11 172.363 557.19 178.07 549.215C184.276 540.55 194.434 535.905 204.672 534.14Z" fill="#5E2C60"/>
<path d="M208.875 554.045C211.676 553.82 214.941 554.195 217.529 555.33C218.007 556.075 218.344 556.155 217.921 557.15C216.638 560.175 205.042 565.875 201.871 567.685C200.61 568.395 198.72 569.7 197.272 569.895C196.261 570.035 195.987 569.72 195.237 569.155C194.662 567.475 195.113 566.095 195.825 564.53C198.47 558.72 203.124 556.045 208.875 554.045Z" fill="#FEFEFE"/>
<path d="M591.795 509.56C592.146 509.536 592.498 509.518 592.85 509.505C596.495 509.395 599.86 510.335 602.465 512.985C604.21 514.76 605.335 517.155 605.895 519.56C607.935 528.265 607.425 548.625 607.4 558.185C613.41 553.55 618.935 548.43 624.815 543.66C627.48 541.5 630.36 539.97 633.885 540.445C637.44 540.925 640.14 542.64 642.205 545.505C644.24 548.33 645.495 551.71 644.815 555.22C643.245 563.31 631.605 569.735 625.365 574.2C630.745 579.46 646.04 594.06 646.73 601.03C647.14 605.23 645.375 608.07 642.735 611.15C640.12 612.94 637.415 614.305 634.15 613.925C631.595 613.625 629.4 612.47 627.41 610.88C621.98 606.545 612.155 592.8 607.435 586.655C607.745 593.01 609.175 601.405 606.98 607.485C605.78 610.81 603.425 613.21 600.165 614.55C598.561 615.224 596.837 615.569 595.097 615.563C593.357 615.558 591.635 615.203 590.035 614.52C587.37 613.365 584.945 611.015 583.97 608.24C581.59 601.435 582.505 565.075 582.365 556.165C582.205 545.795 581.34 535.27 581.7 524.91C581.8 521.995 581.81 518.395 583.125 515.74C584.885 512.18 588.19 510.665 591.795 509.56Z" fill="#5E2C60"/>
<path d="M109.885 526.7C125.207 526.095 141.247 526.015 153.699 536.33C160.189 541.71 164.626 549.535 165.403 557.98C165.75 562.153 165.269 566.353 163.987 570.339C162.704 574.325 160.646 578.018 157.93 581.205C146.898 594.21 133.038 593.435 117.603 594.7C117.409 601.635 118.212 614.13 114.435 620.02C113.193 621.96 111.366 623.165 109.102 623.56C104.14 624.425 97.4075 624.45 93.1875 621.43C91.94 620.535 90.9755 619.585 90.7285 618.005C89.5545 610.505 92.6025 590.125 93.3515 581.295C94.6115 566.445 95.069 550.99 97.3295 536.3C97.648 534.23 97.8985 531.76 99.272 530.095C101.751 527.09 106.321 527.02 109.885 526.7Z" fill="#5E2C60"/>
<path d="M119.637 548.895C125.996 548.79 132.325 548.84 137.16 553.68C139.405 555.925 141.234 559.27 141.005 562.54C140.763 565.99 138.981 568.89 136.444 571.105C130.503 574.27 125.112 574.205 118.573 574.19C118.99 565.761 119.344 557.329 119.637 548.895Z" fill="#FEFEFE"/>
<path d="M337.18 504.6C340.955 504.16 344.345 503.87 347.47 506.42C349.075 507.725 350.06 509.45 350.69 511.4C352.68 517.595 353.37 534.71 354.12 542.41C361.53 539.275 369.065 538.25 377 539.825C384.995 541.415 392.07 545.585 396.625 552.445C401.685 560.075 403.635 570.505 401.81 579.455C399.89 588.885 394.24 595.77 386.365 600.995C377.24 606.18 368.57 606.625 358.345 606.78C357.435 607.52 356.515 608.215 355.52 608.835C352.23 610.88 347.77 611.68 344 610.675C342.03 610.145 339.16 608.685 338.185 606.785C335.27 601.105 327.965 530.305 327.35 518.855C327.22 516.51 326.92 513.43 327.86 511.235C329.46 507.495 333.65 505.91 337.18 504.6Z" fill="#5E2C60"/>
<path d="M365.9 559.15C367.24 559.255 368.65 559.325 369.95 559.69C372.85 560.51 375.41 562.81 376.81 565.445C378.575 568.755 378.905 572.925 377.6 576.45C376.04 580.665 373.33 582.47 369.41 584.235C366.35 584.775 361.605 585.155 358.82 583.675C358.375 582.64 358.05 581.68 357.79 580.58C356.59 575.545 355.04 567.575 358.11 563.02C359.92 560.335 362.895 559.655 365.9 559.15Z" fill="#FEFEFE"/>
<path d="M443.855 528.175C453.04 527.045 462.765 528.485 470.635 533.525C479.575 539.255 485.715 548.955 487.945 559.25C490.385 570.485 488.895 581.73 482.575 591.455C476.065 601.48 466.94 606.03 455.51 608.41C444.705 609.43 434.89 607.92 425.945 601.405C417.015 594.905 411.28 585.54 409.665 574.605C408.015 563.43 410.585 551.68 417.465 542.63C424.215 533.75 433.01 529.69 443.855 528.175Z" fill="#5E2C60"/>
<path d="M447.055 550.565C450.21 550.41 453.41 550.855 456.215 552.385C460.09 554.505 462.51 558.255 463.61 562.46C464.96 567.61 464.59 573.345 461.835 577.985C459.265 582.315 455.665 584.345 450.895 585.495C447.28 585.61 444.355 585.23 441.175 583.365C437.39 581.14 434.785 577.465 433.72 573.23C432.485 568.3 433.205 562.455 435.825 558.085C438.485 553.65 442.175 551.73 447.055 550.565Z" fill="#FEFEFE"/>
<path d="M531.865 528.695C541.755 528.095 550.77 529.14 559.04 535.035C567.83 541.305 573.39 552 575.115 562.51C576.895 573.375 574.61 585.1 568.1 594.08C561.15 603.665 550.99 608.105 539.615 609.915C528.93 610.765 518.645 607.99 510.19 601.295C506.151 598.077 502.796 594.085 500.321 589.554C497.846 585.022 496.3 580.042 495.775 574.905C494.555 563.825 497.175 551.345 504.34 542.585C511.435 533.905 520.89 529.795 531.865 528.695Z" fill="#5E2C60"/>
<path d="M534.42 550.66C537.77 550.855 540.7 551.365 543.535 553.275C547.59 556.01 549.82 560.395 550.545 565.155C551.375 570.575 550.61 576.69 547.09 581.08C544.045 584.88 540.405 586.23 535.73 586.835C532.66 586.665 530.16 586.375 527.495 584.73C523.48 582.26 520.945 578.065 519.985 573.505C518.84 568.065 519.885 562.07 523.045 557.46C525.915 553.275 529.55 551.505 534.42 550.66Z" fill="#FEFEFE"/>
<path d="M37.824 501.705C46.2225 501.255 55.634 503.08 63.2875 506.565C70.5925 509.885 76.6605 514.885 79.502 522.56C77.492 526.595 75.0445 530.385 71.021 532.685C62.9525 537.3 54.5915 530.985 46.778 528.775C43.1465 527.75 36.7355 526.22 33.4485 528.52C31.773 529.69 30.1885 532.475 30.181 534.54C30.1715 537.2 32.4715 539.19 34.6035 540.355C38.044 542.235 42.146 543.02 45.92 544.015C56.845 546.895 70.3755 549.83 78.669 557.98C83.7555 562.98 85.6945 569.32 85.6885 576.285C85.6805 586.445 81.9365 596.805 74.643 604C64.723 613.78 51.423 616.17 38.021 616.135C31.0915 615.695 24.471 614.18 18.111 611.355C11.9755 608.63 4.1465 603.855 1.812 597.235C0.404497 593.245 1.368 589.44 3.2 585.77C5.5925 580.975 8.66001 578.86 13.5545 577.2C13.9445 577.31 14.334 577.425 14.7195 577.55L15.2685 577.735C25.517 581.1 29.195 588.775 42.8005 589.185C47.085 589.315 51.852 588.405 55.031 585.3C56.4485 583.915 57.943 581.42 57.6505 579.36C56.706 572.7 33.3425 569.645 27.4365 567.72C21.6445 565.83 15.98 563.3 11.2905 559.34C5.0675 554.085 1.4785 547.06 0.919999 538.9C0.606924 534.396 1.18581 529.875 2.62347 525.595C4.06114 521.315 6.32933 517.361 9.29801 513.96C16.8125 505.47 26.8445 502.425 37.824 501.705Z" fill="#5E2C60"/>
<path d="M324.975 100.265C325.345 99.8825 325.715 99.496 326.11 99.1315C333.21 92.5145 341.84 86.899 349.71 81.176C371.41 65.3404 393.866 50.5688 417 36.9135C434.84 26.1445 453.155 15.2685 472.515 7.44349C482.45 3.42849 493.285 -0.194006 504.145 0.316994C513.105 0.738494 521.875 4.72299 527.84 11.4735C531.745 15.894 534.045 21.6015 535.755 27.1805C541.905 47.229 554.55 126.518 553.105 145.375C552.815 149.161 551.665 152.854 548.61 155.327C546.52 157.021 544.11 157.573 541.47 157.18C529.745 155.437 515.26 136.888 508.61 127.743L508.22 127.198C506.564 136.243 504.807 145.27 502.95 154.276C500.495 165.633 497.59 177.256 496.16 188.785C500.17 194.264 505.855 199.201 510.6 204.134C522.35 216.353 534.38 228.889 543.635 243.17C547.785 249.577 553.95 259.447 552.015 267.428C551.355 270.143 549.65 272.272 547.29 273.721C538.54 279.089 523.065 276.081 513.705 273.916C508.895 272.804 500.81 271.22 498.095 266.839L496.63 267.716C498.07 269.399 499.19 271.183 499.955 273.276C502.1 279.159 501.44 286.097 498.765 291.701C495.175 299.236 487.485 305.764 479.57 308.358C472.8 310.576 467.78 308.781 461.795 305.646C456.195 312.242 450.58 316.469 442.155 318.8C439.625 319.5 436.635 319.939 434.23 320.952C433.045 321.451 432.135 322.067 431.61 323.268C434.135 326.897 439.43 330.407 442.685 333.518C450.01 340.507 457.23 347.875 463.655 355.7C472.275 366.2 480.88 376.975 488.25 388.4C493.794 397.132 499.054 406.042 504.02 415.115C509.65 425.485 536.56 477.91 535.295 487.125C535.15 488.185 534.975 488.565 534.05 489.135C528.71 492.41 407.745 499.875 392.345 499.925C387.185 499.94 381.875 499.56 376.925 498.02C364.05 494.025 354.44 485.625 348.2 473.785C329.6 479.58 310.266 483.91 291.362 488.635C273.903 493 242.839 502.29 225.692 500.715C222.856 500.455 220.268 499.435 217.708 498.25C205.684 492.685 194.081 485.34 182.493 478.885C171.481 472.755 160.087 467.205 149.281 460.725C146.411 455.12 144.527 448.95 142.407 443.03C137.696 443.285 133.063 443.36 128.561 441.705C119.356 438.32 113.769 429.975 109.79 421.445C104.927 411.02 100.445 396.065 104.849 384.77C107.451 378.095 112.343 374.52 118.649 371.725C114.652 362.61 111.393 353.105 107.706 343.852L77.178 267.301C82.188 270.401 87.2785 273.306 92.422 276.176C98.658 270.751 105.607 266.61 113.517 264.124C127.828 259.626 143.466 261.884 156.618 268.817C174.671 278.333 186.994 295.308 193.013 314.493C212.451 290.128 243.313 271.828 274.012 266.062C272.483 261.062 271.029 256.095 270.631 250.857C269.556 236.693 275.9 227.143 284.655 216.845C279.221 211.732 274.027 207.405 269.935 201.033C261.861 188.459 261.252 175.083 264.406 160.806C256.168 155.747 248.578 148.373 242.265 141.112C235.881 133.768 227.855 121.926 228.856 111.634C229.123 108.886 230.234 106.717 232.469 105.061C236.462 102.102 242.466 100.993 247.243 100.047C272.383 95.0655 299.784 96.368 324.975 100.265Z" fill="#5E2C60"/>
<path d="M415.315 299.345C410.895 300.417 407.83 302.935 403.865 304.879C403.13 305.237 403.515 305.192 402.66 304.893C402.42 303.477 402.495 302.75 402.94 301.387C404.85 300.094 412.59 298.24 415.415 297.136L413.905 298.758L415.315 299.345Z" fill="#834A7A"/>
<path d="M384.945 465.25L385.15 465.365L385.085 465.93C379.335 469.32 373.32 471.245 366.62 470.705L365.7 470.185C368.215 467.77 381.165 465.73 384.945 465.25Z" fill="#F4AD9A"/>
<path d="M488.855 230.823C491.4 231.839 493.315 233.348 495.45 235.015C495.115 240.089 494.285 244.724 492.8 249.591C492.54 250.388 492.17 251.122 491.815 251.881L491.24 251.863C490.92 244.522 490.68 237.985 488.855 230.823Z" fill="#834A7A"/>
<path d="M344.86 315.956C350.265 319.676 355.52 324.526 360.395 328.954C364.395 332.591 370.63 337.566 370.92 343.316C367.14 342.768 356.2 336.014 351.335 334.06C348.97 328.282 346.18 322.064 344.86 315.956Z" fill="#FED58B"/>
<path d="M354.52 345.885C359.8 347.965 365.02 350.245 370.255 352.435C370.765 360.115 371.65 367.695 371.59 375.405C369.135 375.49 366.67 375.86 364.23 376.135C360.893 366.084 357.656 356.001 354.52 345.885Z" fill="#F4AD9A"/>
<path d="M392.445 305.148C393.53 307.06 393.26 310.431 393.39 312.656C386.99 317.914 381.34 323.58 376.325 330.178L373.295 326.803C369.34 321.323 368.875 316.771 368.29 310.174C376.55 309.292 384.415 307.194 392.445 305.148Z" fill="#FEFEFE"/>
<path d="M274.693 105.862C281.963 105.362 289.492 106.023 296.743 106.653C320.105 108.683 341.59 113.606 364.045 120.156C353.42 122.005 342.555 117.723 331.865 118.918C312.715 114.704 294.125 108.97 274.693 105.862Z" fill="#FEFEFE"/>
<path d="M361.405 84.9045C367.348 86.3133 373.25 87.8871 379.105 89.624C371.155 94.9665 364.485 101.725 356.8 107.366C350.525 105.48 344.01 104.184 337.64 102.656C345.445 96.6015 353.45 90.761 361.405 84.9045Z" fill="#FEFEFE"/>
<path d="M416.07 309.546C418.355 309.196 421.59 308.99 423.575 310.409C425.05 311.46 425.38 313.2 425.725 314.844C424.235 318.107 392.07 335.843 386.31 339.197C383.67 340.708 381.215 342.205 378.27 343.065C378.48 342.699 378.695 342.337 378.9 341.969C384.795 331.406 404.835 314.361 416.07 309.546Z" fill="#F8C588"/>
<path d="M504.21 240.886C516.1 247.309 531.035 257.316 540.69 266.606C527.695 267.657 513.995 263.73 501.21 261.681C500.185 262.319 499.98 262.912 499.54 263.984C499.19 264.822 498.9 265.564 498.43 266.345C498.325 266.515 498.205 266.675 498.095 266.84L496.63 267.716C495.74 267.006 495.02 265.904 494.3 265.016C499.19 257.345 503.34 250.085 504.21 240.886Z" fill="#F8C588"/>
<path d="M427.96 187.374C432.775 190.07 436.735 194.892 441.15 198.254C450.43 205.329 460.365 211.513 469.565 218.708C465.435 218.267 461.69 218.259 457.555 218.616C448.25 220.723 443.115 224.375 437.185 231.776C430.795 218.037 428.315 202.421 427.96 187.374Z" fill="#834A7A"/>
<path d="M245.401 111.146C261.641 110.319 279.322 115.29 294.745 120.125C286.179 123.838 279.489 129.029 274.257 136.76C271.6 141.302 269.925 145.915 268.341 150.921C259.361 144.135 242.04 127.158 239.303 116.498C238.931 115.05 239.068 114.131 239.803 112.858C241.628 111.841 243.373 111.531 245.401 111.146Z" fill="#F8C588"/>
<path d="M124.451 381.115C125.961 381.055 127.542 381.18 129.019 381.51C133.596 382.545 136.321 385.79 138.629 389.61C135.091 393.175 129.082 396.225 126.403 400.305C125.691 401.39 125.647 401.96 125.862 403.2C126.504 403.775 127.012 404.24 127.896 404.41C132.166 405.25 138.553 399.365 141.982 397.04C143.658 399.765 144.898 402.29 146.005 405.285C142.308 414.185 137.744 413.61 134.565 418.94C133.94 419.985 134.294 420.46 134.608 421.56C135.502 422.315 135.78 422.585 136.993 422.71C140.019 423.025 143.052 421.115 145.305 419.34C146.9 417.795 148.709 416.525 150.486 415.2C151.569 418.65 152.543 421.7 150.617 425.11C148.628 428.635 144.104 431.535 140.23 432.455C138.349 432.914 136.393 432.978 134.485 432.643C132.578 432.309 130.761 431.582 129.148 430.51C120.463 424.78 115.36 410.785 113.551 401.025C112.602 395.905 112.401 390.45 115.588 386.025C117.899 382.815 120.694 381.805 124.451 381.115Z" fill="#FEFEFE"/>
<path d="M295.259 271.172C297.404 271.682 303.482 281.41 305.141 283.666C294.071 288.467 282.229 291.871 270.747 295.552C254.524 300.753 238.446 306.067 222.668 312.505C238.25 301.914 255.505 297.072 272.483 289.542C273.578 289.056 274.355 288.794 274.793 287.633C274.665 287.558 274.547 287.465 274.41 287.409C270.317 285.719 255.117 290.742 250.635 292.365C239.608 296.442 229.105 301.816 219.348 308.374C211.948 313.425 204.249 319.97 196.07 323.658L196.476 323.092C217.159 294.908 261.567 276.664 295.259 271.172Z" fill="#FEFEFE"/>
<path d="M441.04 282.585C451.84 284.817 465.525 282.127 474.71 276.045C478.68 273.416 482.24 270.111 485.75 266.908C489.71 270.245 492.705 273.865 493.055 279.306C493.365 284.155 491.04 288.538 487.765 291.964C482.505 297.466 476.155 299.869 468.69 300.233C469.425 297.024 471.015 291.924 468.78 289.021C467.755 287.693 466.15 287.472 464.615 287.237C460.355 288.984 456.485 303.537 440.92 308.431C439.33 308.932 436.785 309.771 435.21 309.147C433.84 308.602 432.62 307.249 431.565 306.246C426.28 301.223 422.615 299.586 415.315 299.345L413.905 298.758L415.415 297.136C424.015 292.306 432.805 288.07 441.04 282.585Z" fill="#834A7A"/>
<path d="M126.279 271.682C134.881 270.833 143.809 273.675 151.382 277.564C166.721 285.441 178.702 300.517 183.729 316.961C184.28 318.76 184.692 320.464 183.767 322.211C182.498 322.886 182.271 322.846 180.82 322.743C177.137 318.782 174.601 313.423 171.364 309.027C162.372 296.813 147.271 285.668 131.962 283.518C129.104 283.117 125.367 282.654 122.922 284.507C123.125 285.033 123.286 285.619 123.604 286.086C144.582 289.612 159.53 303.834 171.766 320.209C165.615 315.881 158.766 312.315 152.243 308.572C135.656 299.052 118.727 290.27 101.926 281.147C109.594 275.687 116.985 272.951 126.279 271.682Z" fill="#FEFEFE"/>
<path d="M397.39 384.93C404.195 386.325 414.265 389.835 418.45 395.695C427.42 408.25 429.715 427.895 426.96 442.725C424.065 458.345 415.035 473.775 401.725 482.705C394.38 487.63 388.255 488.84 379.55 487.115C373.115 485.15 368.395 482.65 363.235 478.335C365.05 478.715 366.915 479.14 368.755 479.345C377.22 480.295 385.34 476.655 391.785 471.43C403.155 462.22 410.845 447.54 412.33 433.025C414.195 414.805 408.85 398.945 397.39 384.93Z" fill="#F4AD9A"/>
<path d="M371.34 77.774C379.215 71.76 388.175 66.6765 396.535 61.343C418.12 47.5785 440.295 33.7415 463.31 22.489C476.1 16.235 496.5 6.0325 510.665 11.2145C517.47 13.705 521.83 18.668 524.82 25.084C522.1 25.4555 517.39 21.511 514.335 20.622C510.26 19.438 505.095 19.601 500.92 20.252C477.345 23.9245 429.56 55.3465 408.985 69.173C402.505 73.529 395.42 77.773 389.565 82.924C383.61 80.83 377.475 79.2405 371.34 77.774Z" fill="#FEFEFE"/>
<path d="M370.615 384.575C376.255 384.135 381.25 384.59 386.07 387.885C396.625 395.105 400.085 408.56 402.515 420.315C392.59 429.64 390.945 433.81 376.535 436.94C371.1 438.115 361.325 439.62 356.545 436.19C355.365 435.345 354.785 434.47 354.6 433.055C356.555 431.465 360.57 430.595 363.015 429.585C364.45 428.635 366.255 427.665 366.845 425.97C366.475 424.975 365.775 423.53 364.92 422.84C364.025 422.115 349.29 426.36 343.575 423.245L343.76 422.735L343.08 422.015C344.525 416.5 354.89 414.23 358.065 409.395C358.115 408.045 357.995 407.34 357.43 406.11C352.39 402.28 346.63 409.35 341.21 408.935C340.255 408.86 340.62 408.955 339.925 408.08C340.055 406.34 340.66 405 341.585 403.52C347.45 394.18 360.04 386.83 370.615 384.575Z" fill="#FEFEFE"/>
<path d="M306.952 122.466C318.58 122.688 342.985 133.503 353.65 138.621C340.14 149.591 326.225 161.929 308.128 163.673C301.854 164.278 295.321 163.466 289.134 164.78C284.343 165.798 281.132 167.887 278.553 172.027C277.992 173.504 277.215 175.264 277.549 176.883C277.789 178.045 278.383 178.777 279.499 179.176C281.197 179.782 283.163 178.696 284.706 178.065C284.466 182.085 283.784 186.104 283.293 190.101C282.751 194.518 281.602 197.879 284.464 201.548L283.845 201.984C280.976 200.841 278.229 195.17 276.861 192.514C271.385 181.885 271.501 166.349 275.276 155.228C280.75 139.101 292.175 129.812 306.952 122.466Z" fill="#834A7A"/>
<path d="M188.706 332.777L195.387 332.486C203.988 362.533 212.749 392.535 221.667 422.49C228.234 444.515 235.493 466.74 240.397 489.195C236.022 489.68 231.754 490.01 227.35 489.995C226.173 489.775 224.699 489.61 223.641 489.04C222.232 488.28 221.518 486.715 220.966 485.3C218.414 478.76 216.693 471.69 214.724 464.94C211.45 453.618 208.112 442.315 204.711 431.03C198.641 410.74 193.001 390.365 187.208 370C183.731 357.775 179.486 345.314 177.02 332.856L188.706 332.777Z" fill="#F8C588"/>
<path d="M379.105 89.624C415.9 100.399 448.6 120.236 477.03 145.809C482.17 150.432 486.77 155.524 491.74 160.306C490.15 167.516 488.825 174.783 487.235 181.988C456.625 153.979 413.015 125.626 373.46 112.24C368.25 110.477 362.22 108.154 356.8 107.366C364.485 101.725 371.155 94.9665 379.105 89.624Z" fill="#F8C588"/>
<path d="M331.865 118.918C342.555 117.723 353.42 122.005 364.045 120.156C418.7 135.604 472.45 177.295 510.61 218.352C520.32 228.796 528.38 240.552 537.975 251.012C512.205 233.743 485.57 218.161 460.315 200.05C441.955 186.885 425.61 171.099 407.48 157.586C392.23 146.222 374.915 136.156 357.405 128.724C349 125.157 340.3 122.389 331.865 118.918Z" fill="#D3A7CA"/>
<path d="M96.943 289.8C104.049 292.863 110.981 297.566 117.759 301.358C133.303 310.151 148.917 318.819 164.601 327.361C173.839 361.805 183.548 396.121 193.724 430.3C198.615 447.115 203.123 463.98 208.535 480.64C206.553 479.735 204.602 478.735 202.641 477.78C193.623 472.821 184.568 467.931 175.477 463.11C169.071 459.71 162.365 456.54 156.338 452.495C155.132 447.585 153.529 442.935 151.766 438.205C155.708 434.91 159.209 431.305 160.708 426.24C161.587 423.27 161.841 420.02 161.208 416.975C160.541 413.765 158.55 410.86 157.342 407.82C154.639 401.02 152.771 394.51 149.148 388.035C144.288 379.355 139.389 373.615 129.427 370.835L96.943 289.8Z" fill="#F8C588"/>
<path d="M422.33 329.97L423.215 329.984C430.515 333.897 437.435 342.123 443.25 348.02C471.47 376.645 492.375 411.605 509.46 447.755C514.475 458.365 518.21 469.74 523.615 480.115L524.01 480.865C512.505 482.72 500.255 483 488.625 483.865L434.02 487.885C424.91 488.51 415.78 488.845 406.69 489.65C409.615 488.2 412.195 486.655 414.81 484.695C423.445 477.355 429.855 466.94 433.745 456.385C441.26 436.015 439.005 417.62 430.07 398.3C436.33 400.825 459.655 416.83 462.965 416.645C464.05 416.58 465.055 416.04 465.66 415.11C466.485 413.85 466.69 411.965 466.325 410.525C465.53 407.36 460.695 404.455 458.075 402.735C444.83 394.055 413.685 377.48 398.69 375.33C392.86 374.49 387.27 375.595 381.575 376.805C381.545 368.665 381.1 360.525 380.76 352.395C394.95 345.685 408.815 337.955 422.33 329.97Z" fill="#D3A7CA"/>
<path d="M393.99 352.065C395.365 351.995 396.845 351.855 398.17 352.29C400.04 352.905 401.665 354.435 402.5 356.2C403.25 357.795 403.31 359.59 402.715 361.245C401.895 363.535 400.235 364.595 398.15 365.63C397.19 365.72 396.185 365.825 395.225 365.68C394.285 365.535 393.386 365.196 392.585 364.685C391.784 364.173 391.097 363.501 390.57 362.71C389.475 361.08 389.22 359.06 389.685 357.17C390.335 354.525 391.72 353.41 393.99 352.065Z" fill="#5E2C60"/>
<path d="M389.565 82.924C395.42 77.773 402.505 73.529 408.985 69.173C429.56 55.3465 477.345 23.9245 500.92 20.252C505.095 19.601 510.26 19.438 514.335 20.622C517.39 21.511 522.1 25.4555 524.82 25.084C531.86 41.2095 544.5 128.551 543.4 147.948C541.515 147.225 539.535 146.521 537.845 145.393C528.9 139.414 516.99 122.874 510.75 113.733C511.9 104.827 519.49 62.4135 515.415 56.9375C514.97 56.3455 514.63 56.385 513.97 56.1945C512.23 56.7525 510.73 57.754 509.91 59.4525C507.58 64.3075 503.425 97.443 502.09 105.209C499.615 119.637 496.305 134.054 494.17 148.518C465.185 122.327 442.295 103.478 405.505 88.729C400.63 86.7745 394.725 83.5715 389.565 82.924Z" fill="#D3A7CA"/>
<path d="M361.335 142.064C382.575 150.589 402.245 164.869 419.325 179.917C417.205 197.82 419.87 221.151 429.305 236.858C430.82 239.376 433.75 244.639 436.885 245.013C441.11 245.519 446.285 235.935 449.175 233.052C453.455 228.778 458.645 225.815 464.855 225.962C469.58 226.074 473.985 228.295 477.085 231.829C480.675 235.92 482.495 241.56 482.12 246.964C481.65 253.725 477.53 261.35 472.25 265.667C462.605 273.549 448.66 274.315 436.87 273.02C419.775 284.307 408.8 290.05 389.375 296.236C372.475 300.819 356.785 302.167 339.35 302.033C336.346 292.484 333.179 282.987 329.85 273.546C324.92 274.895 320.42 277.466 315.895 279.779C310.591 273.59 306.011 267.014 301.938 259.962C296.184 260.456 290.52 261.713 284.86 262.824C282.96 259.014 281.43 255.225 280.99 250.951C279.504 236.535 287.52 229.311 295.803 219.187C298.279 207.614 295.973 186.058 296.002 173.463C299.456 173.168 302.884 173.25 306.345 173.311C303.815 176.286 301.96 178.673 300.762 182.471C300.292 183.961 300.115 184.98 300.844 186.379C301.718 186.751 302.276 186.8 303.193 186.611C307.294 185.763 310.333 179.98 313.855 177.527C330.26 166.094 349.995 160.125 361.335 142.064Z" fill="#FEFEFE"/>
<path d="M331.5 233.501C333.235 233.413 334.78 233.38 336.46 233.907C339.645 234.905 343.13 236.889 344.59 240.047C345.12 241.192 345.34 241.838 344.915 243.063C341.83 244.452 338.305 241.184 335.215 240.787C334.895 240.746 334.575 240.722 334.255 240.689C334.945 242.756 336.365 245.568 335.385 247.682C334.995 248.524 334.63 248.442 333.83 248.759C332.045 248.347 330.965 247.546 329.84 246.129C328.175 244.031 327.19 241.317 327.575 238.621C327.95 235.998 329.455 234.92 331.5 233.501Z" fill="#5E2C60"/>
<path d="M465.015 236.615C466.02 236.575 467.01 236.724 467.975 237.02C469.59 237.514 470.49 238.29 471.195 239.756C470.19 243.955 459.725 246.305 456.185 248.599C456.025 248.703 455.87 248.812 455.71 248.919C456.735 249.828 457.835 250.747 458.71 251.803C459.895 253.23 460.85 256.208 460.435 258.063C460.13 259.4 459.765 259.689 458.65 260.22C457.015 259.951 456.37 259.586 455.06 258.571L452.65 253.977C450.74 254.907 448.205 256.562 446.03 255.931C445.25 255.705 445.23 255.345 444.83 254.705C444.81 252.444 445.83 250.683 447.085 248.864C451.28 242.788 457.735 238.032 465.015 236.615Z" fill="#5E2C60"/>
<path d="M387.485 174.664C388.415 174.677 389.35 174.699 390.275 174.802C395.24 175.355 399.62 177.913 402.75 181.777C407.055 187.096 409.4 195.369 408.495 202.22C408.21 204.396 407.42 206.86 405.48 208.117C404.005 209.068 402.675 208.951 401.075 208.505C398.77 206.246 399.66 201.045 399.445 197.761C398.465 193.478 397.075 189.175 393.575 186.257C385.79 179.765 380.345 188.04 374.26 187.866C372.74 187.822 372.6 187.53 371.61 186.487C371.535 184.424 372.415 183.13 373.66 181.494C377.155 176.918 382.025 175.424 387.485 174.664Z" fill="#5E2C60"/>
<path d="M317.005 192.952C317.825 193.081 318.67 193.198 319.42 193.58C321.02 194.394 321.93 196.198 322.52 197.81C325.27 205.321 323.265 218.265 319.965 225.392C318.4 228.778 317.105 230.306 313.6 231.586C311.609 230.47 310.192 229.448 309.099 227.392C305.62 220.849 307.02 210.299 309.172 203.457C310.639 198.792 312.61 195.257 317.005 192.952Z" fill="#5E2C60"/>
<path d="M378.505 199.335C379.415 199.339 380.365 199.325 381.265 199.474C382.86 199.739 384.25 201.013 385.075 202.349C388.44 207.795 386.865 217.74 385.455 223.689C384.19 229.02 382.105 235.808 377.235 238.823C376.985 238.824 376.73 238.836 376.48 238.827C374.515 238.756 373.215 238.149 371.995 236.639C368.72 232.604 368.845 225.121 369.25 220.153C369.86 212.66 372.655 204.301 378.505 199.335Z" fill="#5E2C60"/>
<path d="M377.425 242.188C380.14 241.984 383.41 241.399 385.945 242.615C388.33 243.76 389.885 245.884 390.66 248.369C392.99 255.846 390.46 266.316 386.845 273.055C382.685 280.81 375.515 287.001 367.01 289.46C359.5 291.631 352.545 290.527 345.79 286.805C337.99 281.793 329.835 271.974 327.29 262.957C326.785 261.16 326.585 259.034 327.665 257.393C328.76 255.721 331.13 254.733 332.895 253.988C337.46 252.064 342.67 251.096 347.445 249.772C357.29 247.04 367.275 243.427 377.425 242.188Z" fill="#5E2C60"/>
<path d="M374.79 249.118C376.465 249 377.845 248.853 379.385 249.696C381.385 250.793 382.29 253.137 382.685 255.259C383.81 261.297 381.64 267.749 378.305 272.772C374.785 278.066 369.04 283.176 362.64 284.257C357.59 285.109 353.475 283.305 349.475 280.399C347.3 278.312 345.575 276.139 344.185 273.466C342.45 270.126 339.64 263.779 341.325 260.167C343.02 256.523 356.785 254.083 360.935 252.997C361.045 253.178 361.155 253.358 361.265 253.54C362.25 255.208 362.865 256.795 364.655 257.699C365.445 257.706 365.78 257.944 366.345 257.287C367.84 255.538 367.27 253.188 367.04 251.097C369.615 250.25 372.135 249.65 374.79 249.118Z" fill="#FEFEFE"/>
<path d="M323.25 288.488C323.575 288.683 324.01 288.759 324.22 289.073C326.085 291.869 331.315 310.63 332.81 315.184C336.23 325.582 339.97 335.872 343.47 346.245C347.255 357.47 350.785 368.785 354.96 379.88C348.34 383.96 342.025 388.26 336.99 394.27C333.755 398.135 330.42 403.355 331.06 408.6C331.485 412.12 333.015 413.915 335.66 416.1C335.583 417.36 335.532 418.622 335.505 419.885C335.405 425.725 337.815 426.99 342.005 430.365C342.315 430.61 343.545 431.46 343.69 431.71C345.24 434.34 343.31 437.06 347.59 441.19C353.75 447.135 364.6 447.575 372.62 447.45C373.34 450.35 374.26 453.165 375.19 456C364.095 459.3 352.78 461.93 341.575 464.83L276.48 481.345L251.468 487.37C247.053 468.8 240.449 450.105 235.077 431.74C225.388 397.59 215.453 363.51 205.272 329.503C243.809 313.276 284.016 302.652 323.25 288.488Z" fill="#F8C588"/>
<path d="M289.653 335.828C291.85 336.193 293.581 337.105 294.99 338.875C295.689 339.739 296.196 340.742 296.477 341.818C296.758 342.893 296.807 344.015 296.62 345.111C296.23 347.375 295.03 348.46 293.252 349.775C291.212 349.86 289.586 349.88 288.01 348.35C286.761 347.135 286.209 345.385 286.189 343.677C286.15 340.329 287.339 338.114 289.653 335.828Z" fill="#5E2C60"/>
<path d="M290.194 339.142C291.4 339.634 292.356 340.343 292.917 341.572C293.83 343.571 293.254 345.457 292.596 347.42C291.262 347.05 290.097 346.41 289.493 345.078C288.597 343.103 289.479 341.01 290.194 339.142Z" fill="#FED58B"/>
<path d="M268.823 343.966C271.632 343.899 273.786 344.282 275.933 346.245C277.736 347.89 278.792 350.02 278.824 352.48C278.864 355.505 277.582 357.35 275.536 359.425C275.117 359.52 274.699 359.625 274.275 359.7C272.255 360.035 270.456 359.79 268.799 358.51C266.983 357.1 266.106 354.91 265.892 352.675C265.557 349.185 266.58 346.58 268.823 343.966Z" fill="#5E2C60"/>
<path d="M270.901 346.88C271.993 347.28 272.909 347.705 273.787 348.47C274.978 349.51 275.713 350.86 275.66 352.48C275.602 354.235 274.725 355.185 273.598 356.42C272.64 356.215 271.965 356.01 271.117 355.485C270.007 354.805 269.226 353.54 269.07 352.25C268.819 350.19 269.784 348.505 270.901 346.88Z" fill="#FED58B"/>
</svg>
