<svg version="1.1" xmlns="http://www.w3.org/2000/svg" style="display: block;" viewBox="0 0 2048 2048" width="1024" height="1024">
<path transform="translate(0,0)" fill="rgb(254,254,254)" d="M 0 0 L 2048 0 L 2048 2048 L 0 2048 L 0 0 z"/>
<path transform="translate(0,0)" fill="rgb(248,197,136)" d="M 729.08 554.665 C 730.769 554.869 732.199 555.24 733.83 555.699 C 740.83 562 743.835 574.339 747.017 583.049 C 754.187 586.98 770.754 591.732 775.307 598.36 C 776.828 600.574 776.507 601.15 775.912 603.553 C 769.241 611.275 757.181 614.619 748.329 619.593 C 742.976 628.517 741.244 639.029 735.18 647.527 C 734.16 647.59 733.442 647.684 732.385 647.488 C 721.765 645.512 720.041 627.094 715.08 619.085 C 714.886 618.771 714.679 618.466 714.478 618.156 C 706.907 614.103 696.872 611.602 690.731 605.379 C 688.689 603.31 688.517 602.087 688.523 599.284 C 692.939 591.538 707.579 587.286 715.471 583.967 C 719.88 574.213 722.127 563.056 729.08 554.665 z"/>
<path transform="translate(0,0)" fill="rgb(94,44,96)" d="M 989.215 1578.88 C 992.041 1578.89 994.725 1579.09 997.288 1580.43 C 1000.23 1581.96 1001.95 1584.5 1002.8 1587.62 C 1007.26 1603.93 1005.97 1656.86 997.501 1670.71 C 993.095 1677.92 986.151 1683.08 977.821 1684.71 C 965.871 1687.04 954.106 1683.99 944.041 1677.52 C 940.125 1674.1 936.848 1670.51 935.271 1665.43 C 934.192 1661.96 933.948 1658 936.058 1654.84 C 938.133 1651.73 942.472 1649.71 946.096 1649.25 C 954.251 1648.22 955.137 1657.43 961.01 1660.61 C 963.761 1662.09 967.475 1661.82 970.255 1660.47 C 984.194 1653.72 975.012 1601.88 980.301 1587.24 C 981.978 1582.6 984.992 1581.03 989.215 1578.88 z"/>
<path transform="translate(0,0)" fill="rgb(94,44,96)" d="M 1224.08 1603.24 C 1232.83 1602.56 1241.69 1603.73 1249.41 1608.13 C 1258.3 1613.2 1264.42 1621.88 1266.68 1631.82 A 39.5911 39.5911 0 0 1 1261.79 1661.75 C 1255.28 1672.07 1245.42 1677.03 1233.97 1679.89 C 1225.24 1680.3 1217.71 1679.68 1209.9 1675.26 A 39.0686 39.0686 0 0 1 1191.36 1650.27 C 1188.9 1640.09 1190.41 1629.07 1196.16 1620.24 C 1202.81 1610.03 1212.58 1605.63 1224.08 1603.24 z"/>
<path transform="translate(0,0)" fill="rgb(94,44,96)" d="M 817.962 1601.37 C 826.404 1601.39 834.588 1602.92 841.795 1607.56 C 850.688 1613.29 856.372 1622.82 858.177 1633.15 A 39.9043 39.9043 0 0 1 851.14 1663.38 C 844.001 1673.24 833.578 1677.61 821.891 1679.39 C 812.675 1679.28 804.406 1677.68 796.633 1672.44 A 38.3765 38.3765 0 0 1 780.03 1646.27 A 39.9225 39.9225 0 0 1 787.444 1616.47 C 795.136 1606.27 805.869 1602.91 817.962 1601.37 z"/>
<path transform="translate(0,0)" fill="rgb(94,44,96)" d="M 1043.98 1577.3 C 1048.58 1577.02 1053.13 1576.8 1057.74 1577.35 C 1067.92 1578.55 1078.12 1583.19 1084.26 1591.65 A 27.7492 27.7492 0 0 1 1089.12 1613.48 C 1086.92 1624.07 1079.22 1629.38 1070.91 1635.08 C 1077 1641.93 1094.21 1653.84 1094.64 1663.16 C 1094.76 1665.79 1093.57 1667.57 1091.75 1669.33 C 1089.07 1671.91 1084.64 1673.45 1080.97 1673.29 C 1073.74 1672.99 1067.28 1663.99 1062.76 1659.21 C 1056.47 1653.01 1050.48 1646.77 1043.19 1641.74 C 1044.08 1650.16 1050.55 1665.56 1044.87 1672.92 C 1042.61 1675.85 1038.07 1676.67 1034.57 1676.68 C 1031.17 1676.69 1027.68 1675.72 1025.3 1673.19 C 1015.91 1663.21 1014.82 1605.66 1015.01 1590.03 C 1023.11 1581.78 1032.96 1579.06 1043.98 1577.3 z"/>
<path transform="translate(0,0)" fill="rgb(254,254,254)" d="M 1041.46 1600.31 A 160.184 160.184 0 0 1 1046.35 1600.09 C 1051.38 1599.96 1056.25 1600.97 1059.76 1604.94 C 1061.38 1606.78 1062.07 1609.07 1061.71 1611.49 C 1061.03 1616.1 1057.72 1618.94 1054.41 1621.84 C 1050.04 1623.74 1045.19 1624.78 1040.6 1626.05 C 1039.3 1620.09 1035.44 1608.53 1037.63 1602.89 C 1038.2 1601.41 1040.12 1600.98 1041.46 1600.31 z"/>
<path transform="translate(0,0)" fill="rgb(94,44,96)" d="M 973.828 1322.12 C 979.097 1321.83 984.507 1322.2 989.297 1324.62 C 993.186 1326.59 997.441 1330.54 998.724 1334.8 C 1004.6 1354.28 1005.81 1378.67 1008.59 1399.08 C 1012.84 1430.36 1018.56 1462.18 1020.72 1493.63 C 1021.09 1498.95 1022.31 1507.29 1019.61 1512.08 C 1015.85 1518.73 1007.81 1521.46 1000.93 1523.52 C 995.595 1523.39 990.81 1523.2 985.814 1521.01 C 981.524 1519.13 977.48 1515.93 975.901 1511.38 C 972.869 1502.62 972.32 1492.02 971.048 1482.82 L 964.132 1432.45 L 956.146 1374.14 C 954.723 1363.68 952.681 1352.85 952.188 1342.32 C 952.073 1339.87 952.337 1337.85 953.512 1335.66 C 957.948 1327.42 965.139 1324.37 973.828 1322.12 z"/>
<path transform="translate(0,0)" fill="rgb(248,197,136)" d="M 768.17 664.717 C 787.981 666.824 789.51 701.185 801.982 713.972 C 810.597 722.806 827.144 727.079 838.057 732.937 C 841.86 734.978 846.204 737.185 847.504 741.587 C 843.333 753.922 812.077 758.937 802.351 769.339 C 789.273 783.326 788.673 807.094 774.939 820.231 C 773.744 820.177 772.671 820.175 771.485 819.897 C 762.463 817.788 747.101 777.328 741.132 767.332 C 729.946 759.625 706.209 754.947 698.541 745.994 C 697.326 744.575 696.519 742.61 696.914 740.745 C 698.738 732.152 731.877 720.113 740.712 714.931 L 741.955 714.193 C 750.776 699.076 756.546 677.145 768.17 664.717 z"/>
<path transform="translate(0,0)" fill="rgb(254,254,254)" d="M 772.238 702.471 C 777.273 705.769 780.751 724.146 792.308 733.25 C 796.99 736.938 802.935 739.527 808.223 742.249 C 794.924 748.475 787.097 755.54 779.402 768.01 C 777.327 771.371 775.412 775.207 772.828 778.196 C 772.506 778.569 772.175 778.933 771.848 779.301 C 760.313 758.915 755.633 753.367 733.957 742.661 C 738.689 738.982 744.175 736.466 749.265 733.32 C 761.552 725.725 765.396 714.511 772.238 702.471 z"/>
<path transform="translate(0,0)" fill="rgb(94,44,96)" d="M 899.504 1325.19 C 906.222 1324.87 915.722 1325.65 920.89 1330.48 C 924.203 1333.58 925.048 1338.29 925.975 1342.56 C 931.93 1370.06 934.437 1401.55 937.973 1429.7 C 941.847 1460.54 947.029 1491.68 949.629 1522.62 C 942.862 1530.5 937.466 1534.51 927.264 1536.85 C 921.617 1536.62 916.55 1535.94 911.449 1533.34 C 906.199 1530.67 902.596 1526.76 900.942 1521.06 C 895.241 1501.44 892.906 1464.99 890.106 1442.84 C 886.229 1412.18 879.818 1380.49 878.742 1349.64 C 878.587 1345.21 878.457 1341.36 880.789 1337.43 C 884.827 1330.62 892.141 1327.14 899.504 1325.19 z"/>
<path transform="translate(0,0)" fill="rgb(94,44,96)" d="M 785.343 1376.28 C 806.764 1374.29 828.693 1377.82 845.951 1391.58 C 855.811 1399.44 864.716 1411.55 865.677 1424.41 C 865.907 1427.49 865.973 1431.28 864.539 1434.07 C 856.804 1449.13 798.703 1469.21 786.04 1483.25 C 786.838 1485.47 792.398 1487.72 794.654 1488.96 C 819.049 1486.65 826.501 1475.49 845.931 1470.2 C 850.918 1468.84 856.276 1468.99 860.718 1471.85 C 868.139 1476.62 870.404 1485.66 872.272 1493.72 C 871.654 1496.39 870.915 1498.53 869.355 1500.81 C 859.192 1515.69 834.096 1524.69 817.07 1527.8 C 795.341 1531.76 771.816 1529.06 753.403 1516.16 C 736.239 1504.13 724.296 1483.87 720.806 1463.31 C 717.566 1444.22 720.725 1422.38 732.14 1406.43 C 744.552 1389.1 764.867 1379.81 785.343 1376.28 z"/>
<path transform="translate(0,0)" fill="rgb(254,254,254)" d="M 793.75 1416.09 C 799.353 1415.64 805.883 1416.39 811.058 1418.66 C 812.015 1420.15 812.688 1420.31 811.843 1422.3 C 809.276 1428.35 786.085 1439.75 779.742 1443.37 C 777.22 1444.79 773.441 1447.4 770.545 1447.79 C 768.523 1448.07 767.974 1447.44 766.474 1446.31 C 765.324 1442.95 766.226 1440.19 767.65 1437.06 C 772.94 1425.44 782.249 1420.09 793.75 1416.09 z"/>
<path transform="translate(0,0)" fill="rgb(94,44,96)" d="M 1559.59 1327.12 A 65.8812 65.8812 0 0 1 1561.7 1327.01 C 1568.99 1326.79 1575.72 1328.67 1580.93 1333.97 C 1584.42 1337.52 1586.67 1342.31 1587.79 1347.12 C 1591.87 1364.53 1590.85 1405.25 1590.8 1424.37 C 1602.82 1415.1 1613.87 1404.86 1625.63 1395.32 C 1630.96 1391 1636.72 1387.94 1643.77 1388.89 C 1650.88 1389.85 1656.28 1393.28 1660.41 1399.01 C 1664.48 1404.66 1666.99 1411.42 1665.63 1418.44 C 1662.49 1434.62 1639.21 1447.47 1626.73 1456.4 C 1637.49 1466.92 1668.08 1496.12 1669.46 1510.06 C 1670.28 1518.46 1666.75 1524.14 1661.47 1530.3 C 1656.24 1533.88 1650.83 1536.61 1644.3 1535.85 C 1639.19 1535.25 1634.8 1532.94 1630.82 1529.76 C 1619.96 1521.09 1600.31 1493.6 1590.87 1481.31 C 1591.49 1494.02 1594.35 1510.81 1589.96 1522.97 C 1587.56 1529.62 1582.85 1534.42 1576.33 1537.1 A 25.9734 25.9734 0 0 1 1556.07 1537.04 C 1550.74 1534.73 1545.89 1530.03 1543.94 1524.48 C 1539.18 1510.87 1541.01 1438.15 1540.73 1420.33 C 1540.41 1399.59 1538.68 1378.54 1539.4 1357.82 C 1539.6 1351.99 1539.62 1344.79 1542.25 1339.48 C 1545.77 1332.36 1552.38 1329.33 1559.59 1327.12 z"/>
<path transform="translate(0,0)" fill="rgb(94,44,96)" d="M 595.77 1361.4 C 626.414 1360.19 658.493 1360.03 683.398 1380.66 C 696.378 1391.42 705.252 1407.07 706.805 1423.96 A 63.478 63.478 0 0 1 691.859 1470.41 C 669.795 1496.42 642.075 1494.87 611.206 1497.4 C 610.818 1511.27 612.423 1536.26 604.87 1548.04 C 602.385 1551.92 598.731 1554.33 594.203 1555.12 C 584.28 1556.85 570.815 1556.9 562.375 1550.86 C 559.88 1549.07 557.951 1547.17 557.457 1544.01 C 555.109 1529.01 561.205 1488.25 562.703 1470.59 C 565.223 1440.89 566.138 1409.98 570.659 1380.6 C 571.296 1376.46 571.797 1371.52 574.544 1368.19 C 579.501 1362.18 588.641 1362.04 595.77 1361.4 z"/>
<path transform="translate(0,0)" fill="rgb(254,254,254)" d="M 615.273 1405.79 C 627.992 1405.58 640.651 1405.68 650.321 1415.36 C 654.81 1419.85 658.469 1426.54 658.011 1433.08 C 657.527 1439.98 653.961 1445.78 648.888 1450.21 C 637.005 1456.54 626.225 1456.41 613.147 1456.38 A 3460.08 3460.08 0 0 0 615.273 1405.79 z"/>
<path transform="translate(0,0)" fill="rgb(94,44,96)" d="M 1050.36 1317.2 C 1057.91 1316.32 1064.69 1315.74 1070.94 1320.84 C 1074.15 1323.45 1076.12 1326.9 1077.38 1330.8 C 1081.36 1343.19 1082.74 1377.42 1084.24 1392.82 C 1099.06 1386.55 1114.13 1384.5 1130 1387.65 C 1145.99 1390.83 1160.14 1399.17 1169.25 1412.89 C 1179.37 1428.15 1183.27 1449.01 1179.62 1466.91 C 1175.78 1485.77 1164.48 1499.54 1148.73 1509.99 C 1130.48 1520.36 1113.14 1521.25 1092.69 1521.56 C 1090.87 1523.04 1089.03 1524.43 1087.04 1525.67 C 1080.46 1529.76 1071.54 1531.36 1064 1529.35 C 1060.06 1528.29 1054.32 1525.37 1052.37 1521.57 C 1046.54 1510.21 1031.93 1368.61 1030.7 1345.71 C 1030.44 1341.02 1029.84 1334.86 1031.72 1330.47 C 1034.92 1322.99 1043.3 1319.82 1050.36 1317.2 z"/>
<path transform="translate(0,0)" fill="rgb(254,254,254)" d="M 1107.8 1426.3 C 1110.48 1426.51 1113.3 1426.65 1115.9 1427.38 C 1121.7 1429.02 1126.82 1433.62 1129.62 1438.89 C 1133.15 1445.51 1133.81 1453.85 1131.2 1460.9 C 1128.08 1469.33 1122.66 1472.94 1114.82 1476.47 C 1108.7 1477.55 1099.21 1478.31 1093.64 1475.35 C 1092.75 1473.28 1092.1 1471.36 1091.58 1469.16 C 1089.18 1459.09 1086.08 1443.15 1092.22 1434.04 C 1095.84 1428.67 1101.79 1427.31 1107.8 1426.3 z"/>
<path transform="translate(0,0)" fill="rgb(94,44,96)" d="M 1263.71 1364.35 C 1282.08 1362.09 1301.53 1364.97 1317.27 1375.05 C 1335.15 1386.51 1347.43 1405.91 1351.89 1426.5 C 1356.77 1448.97 1353.79 1471.46 1341.15 1490.91 C 1328.13 1510.96 1309.88 1520.06 1287.02 1524.82 C 1265.41 1526.86 1245.78 1523.84 1227.89 1510.81 C 1210.03 1497.81 1198.56 1479.08 1195.33 1457.21 C 1192.03 1434.86 1197.17 1411.36 1210.93 1393.26 C 1224.43 1375.5 1242.02 1367.38 1263.71 1364.35 z"/>
<path transform="translate(0,0)" fill="rgb(254,254,254)" d="M 1270.11 1409.13 C 1276.42 1408.82 1282.82 1409.71 1288.43 1412.77 C 1296.18 1417.01 1301.02 1424.51 1303.22 1432.92 C 1305.92 1443.22 1305.18 1454.69 1299.67 1463.97 C 1294.53 1472.63 1287.33 1476.69 1277.79 1478.99 C 1270.56 1479.22 1264.71 1478.46 1258.35 1474.73 C 1250.78 1470.28 1245.57 1462.93 1243.44 1454.46 C 1240.97 1444.6 1242.41 1432.91 1247.65 1424.17 C 1252.97 1415.3 1260.35 1411.46 1270.11 1409.13 z"/>
<path transform="translate(0,0)" fill="rgb(94,44,96)" d="M 1439.73 1365.39 C 1459.51 1364.19 1477.54 1366.28 1494.08 1378.07 C 1511.66 1390.61 1522.78 1412 1526.23 1433.02 C 1529.79 1454.75 1525.22 1478.2 1512.2 1496.16 C 1498.3 1515.33 1477.98 1524.21 1455.23 1527.83 C 1433.86 1529.53 1413.29 1523.98 1396.38 1510.59 A 77.5694 77.5694 0 0 1 1367.55 1457.81 C 1365.11 1435.65 1370.35 1410.69 1384.68 1393.17 C 1398.87 1375.81 1417.78 1367.59 1439.73 1365.39 z"/>
<path transform="translate(0,0)" fill="rgb(254,254,254)" d="M 1444.84 1409.32 C 1451.54 1409.71 1457.4 1410.73 1463.07 1414.55 C 1471.18 1420.02 1475.64 1428.79 1477.09 1438.31 C 1478.75 1449.15 1477.22 1461.38 1470.18 1470.16 C 1464.09 1477.76 1456.81 1480.46 1447.46 1481.67 C 1441.32 1481.33 1436.32 1480.75 1430.99 1477.46 C 1422.96 1472.52 1417.89 1464.13 1415.97 1455.01 C 1413.68 1444.13 1415.77 1432.14 1422.09 1422.92 C 1427.83 1414.55 1435.1 1411.01 1444.84 1409.32 z"/>
<path transform="translate(0,0)" fill="rgb(94,44,96)" d="M 451.648 1311.41 C 468.445 1310.51 487.268 1314.16 502.575 1321.13 C 517.185 1327.77 529.321 1337.77 535.004 1353.12 C 530.984 1361.19 526.089 1368.77 518.042 1373.37 C 501.905 1382.6 485.183 1369.97 469.556 1365.55 C 462.293 1363.5 449.471 1360.44 442.897 1365.04 C 439.546 1367.38 436.377 1372.95 436.362 1377.08 C 436.343 1382.4 440.943 1386.38 445.207 1388.71 C 452.088 1392.47 460.292 1394.04 467.84 1396.03 C 489.69 1401.79 516.751 1407.66 533.338 1423.96 C 543.511 1433.96 547.389 1446.64 547.377 1460.57 C 547.361 1480.89 539.873 1501.61 525.286 1516 C 505.446 1535.56 478.846 1540.34 452.042 1540.27 C 438.183 1539.39 424.942 1536.36 412.222 1530.71 C 399.951 1525.26 384.293 1515.71 379.624 1502.47 C 376.809 1494.49 378.736 1486.88 382.4 1479.54 C 387.185 1469.95 393.32 1465.72 403.109 1462.4 C 403.889 1462.62 404.668 1462.85 405.439 1463.1 L 406.537 1463.47 C 427.034 1470.2 434.39 1485.55 461.601 1486.37 C 470.17 1486.63 479.704 1484.81 486.062 1478.6 C 488.897 1475.83 491.886 1470.84 491.301 1466.72 C 489.412 1453.4 442.685 1447.29 430.873 1443.44 C 419.289 1439.66 407.96 1434.6 398.581 1426.68 C 386.135 1416.17 378.957 1402.12 377.84 1385.8 A 68.6204 68.6204 0 0 1 394.596 1335.92 C 409.625 1318.94 429.689 1312.85 451.648 1311.41 z"/>
<path transform="translate(0,0)" fill="rgb(94,44,96)" d="M 1025.95 508.53 C 1026.69 507.765 1027.43 506.992 1028.22 506.263 C 1042.42 493.029 1059.68 481.798 1075.42 470.352 A 1658.13 1658.13 0 0 1 1210 381.827 C 1245.68 360.289 1282.31 338.537 1321.03 322.887 C 1340.9 314.857 1362.57 307.612 1384.29 308.634 C 1402.21 309.477 1419.75 317.446 1431.68 330.947 C 1439.49 339.788 1444.09 351.203 1447.51 362.361 C 1459.81 402.458 1485.1 561.036 1482.21 598.751 C 1481.63 606.323 1479.33 613.708 1473.22 618.653 C 1469.04 622.042 1464.22 623.145 1458.94 622.359 C 1435.49 618.873 1406.52 581.776 1393.22 563.487 L 1392.44 562.396 A 2485.21 2485.21 0 0 1 1381.9 616.552 C 1376.99 639.265 1371.18 662.513 1368.32 685.571 C 1376.34 696.529 1387.71 706.402 1397.2 716.267 C 1420.7 740.706 1444.76 765.777 1463.27 794.34 C 1471.57 807.154 1483.9 826.895 1480.03 842.857 C 1478.71 848.286 1475.3 852.544 1470.58 855.442 C 1453.08 866.179 1422.13 860.162 1403.41 855.832 C 1393.79 853.608 1377.62 850.441 1372.19 841.679 L 1369.26 843.432 C 1372.14 846.799 1374.38 850.366 1375.91 854.552 C 1380.2 866.318 1378.88 880.194 1373.53 891.403 C 1366.35 906.473 1350.97 919.528 1335.14 924.716 C 1321.6 929.152 1311.56 925.562 1299.59 919.293 C 1288.39 932.484 1277.16 940.939 1260.31 945.601 C 1255.25 947 1249.27 947.879 1244.46 949.905 C 1242.09 950.903 1240.27 952.135 1239.22 954.537 C 1244.27 961.794 1254.86 968.815 1261.37 975.036 C 1276.02 989.015 1290.46 1003.75 1303.31 1019.4 C 1320.55 1040.4 1337.76 1061.95 1352.5 1084.8 A 955.869 955.869 0 0 1 1384.04 1138.23 C 1395.3 1158.97 1449.12 1263.82 1446.59 1282.25 C 1446.3 1284.37 1445.95 1285.13 1444.1 1286.27 C 1433.42 1292.82 1191.49 1307.75 1160.69 1307.85 C 1150.37 1307.88 1139.75 1307.12 1129.85 1304.04 C 1104.1 1296.05 1084.88 1279.25 1072.4 1255.57 C 1035.2 1267.16 996.533 1275.82 958.724 1285.27 C 923.806 1294 861.679 1312.58 827.384 1309.43 C 821.712 1308.91 816.536 1306.87 811.417 1304.5 C 787.369 1293.37 764.162 1278.68 740.987 1265.77 C 718.961 1253.51 696.175 1242.41 674.563 1229.45 C 668.823 1218.24 665.054 1205.9 660.814 1194.06 C 651.392 1194.57 642.126 1194.72 633.123 1191.41 C 614.712 1184.64 603.538 1167.95 595.58 1150.89 C 585.854 1130.04 576.89 1100.13 585.698 1077.54 C 590.903 1064.19 600.686 1057.04 613.298 1051.45 C 605.305 1033.22 598.786 1014.21 591.411 995.705 L 530.356 842.603 C 540.376 848.802 550.557 854.613 560.844 860.352 C 573.316 849.503 587.215 841.22 603.035 836.249 C 631.657 827.253 662.932 831.769 689.237 845.635 C 725.343 864.666 749.988 898.616 762.026 936.987 C 800.902 888.257 862.626 851.656 924.023 840.125 C 920.965 830.125 918.058 820.19 917.262 809.713 C 915.111 781.385 927.8 762.285 945.31 741.69 C 934.443 731.463 924.054 722.809 915.871 710.065 C 899.723 684.918 898.503 658.166 904.812 629.612 C 888.336 619.495 873.156 604.746 860.53 590.224 C 847.762 575.537 831.71 551.852 833.712 531.269 C 834.247 525.773 836.468 521.434 840.938 518.122 C 848.925 512.205 860.933 509.987 870.487 508.094 C 920.766 498.131 975.568 500.736 1025.95 508.53 z"/>
<path transform="translate(0,0)" fill="rgb(131,74,122)" d="M 1206.63 906.69 C 1197.79 908.834 1191.66 913.871 1183.73 917.758 C 1182.26 918.475 1183.03 918.383 1181.32 917.786 C 1180.84 914.954 1180.99 913.5 1181.88 910.773 C 1185.7 908.188 1201.18 904.481 1206.83 902.272 L 1203.81 905.516 L 1206.63 906.69 z"/>
<path transform="translate(0,0)" fill="rgb(244,173,154)" d="M 1145.89 1238.5 L 1146.3 1238.73 L 1146.17 1239.86 C 1134.67 1246.64 1122.64 1250.49 1109.24 1249.41 L 1107.4 1248.37 C 1112.43 1243.54 1138.33 1239.46 1145.89 1238.5 z"/>
<path transform="translate(0,0)" fill="rgb(131,74,122)" d="M 1353.71 769.645 C 1358.8 771.677 1362.63 774.696 1366.9 778.03 C 1366.23 788.177 1364.57 797.448 1361.6 807.181 C 1361.08 808.775 1360.34 810.243 1359.63 811.762 L 1358.48 811.726 C 1357.84 797.044 1357.36 783.97 1353.71 769.645 z"/>
<path transform="translate(0,0)" fill="rgb(254,213,139)" d="M 1065.72 939.911 C 1076.53 947.351 1087.04 957.051 1096.79 965.908 C 1104.79 973.181 1117.26 983.131 1117.84 994.632 C 1110.28 993.535 1088.4 980.028 1078.67 976.12 C 1073.94 964.564 1068.36 952.128 1065.72 939.911 z"/>
<path transform="translate(0,0)" fill="rgb(244,173,154)" d="M 1085.04 999.771 C 1095.6 1003.93 1106.04 1008.49 1116.51 1012.87 C 1117.53 1028.23 1119.3 1043.39 1119.18 1058.81 C 1114.27 1058.98 1109.34 1059.72 1104.46 1060.27 A 3187.53 3187.53 0 0 1 1085.04 999.771 z"/>
<path transform="translate(0,0)" fill="rgb(254,254,254)" d="M 1160.89 918.296 C 1163.06 922.119 1162.52 928.861 1162.78 933.312 C 1149.98 943.827 1138.68 955.16 1128.65 968.356 L 1122.59 961.607 C 1114.68 950.646 1113.75 941.542 1112.58 928.348 C 1129.1 926.584 1144.83 922.388 1160.89 918.296 z"/>
<path transform="translate(0,0)" fill="rgb(254,254,254)" d="M 925.386 519.725 C 939.926 518.725 954.984 520.046 969.487 521.306 C 1016.21 525.366 1059.18 535.213 1104.09 548.312 C 1082.84 552.01 1061.11 543.447 1039.73 545.837 C 1001.43 537.408 964.251 525.94 925.386 519.725 z"/>
<path transform="translate(0,0)" fill="rgb(254,254,254)" d="M 1098.81 477.809 A 658.938 658.938 0 0 1 1134.21 487.248 C 1118.31 497.933 1104.97 511.45 1089.6 522.731 C 1077.05 518.96 1064.02 516.369 1051.28 513.313 C 1066.89 501.203 1082.9 489.522 1098.81 477.809 z"/>
<path transform="translate(0,0)" fill="rgb(248,197,136)" d="M 1208.14 927.091 C 1212.71 926.391 1219.18 925.98 1223.15 928.817 C 1226.1 930.92 1226.76 934.401 1227.45 937.688 C 1224.47 944.215 1160.14 979.686 1148.62 986.394 C 1143.34 989.417 1138.43 992.409 1132.54 994.13 C 1132.96 993.398 1133.39 992.675 1133.8 991.938 C 1145.59 970.812 1185.67 936.722 1208.14 927.091 z"/>
<path transform="translate(0,0)" fill="rgb(248,197,136)" d="M 1384.42 789.772 C 1408.2 802.619 1438.07 822.633 1457.38 841.212 C 1431.39 843.315 1403.99 835.461 1378.42 831.362 C 1376.37 832.638 1375.96 833.824 1375.08 835.969 C 1374.38 837.645 1373.8 839.127 1372.86 840.69 C 1372.65 841.03 1372.41 841.349 1372.19 841.679 L 1369.26 843.432 C 1367.48 842.012 1366.04 839.808 1364.6 838.032 C 1374.38 822.691 1382.68 808.17 1384.42 789.772 z"/>
<path transform="translate(0,0)" fill="rgb(131,74,122)" d="M 1231.92 682.748 C 1241.55 688.14 1249.47 697.784 1258.3 704.509 C 1276.86 718.659 1296.73 731.026 1315.13 745.417 C 1306.87 744.535 1299.38 744.519 1291.11 745.232 C 1272.5 749.446 1262.23 756.75 1250.37 771.551 C 1237.59 744.073 1232.63 712.842 1231.92 682.748 z"/>
<path transform="translate(0,0)" fill="rgb(248,197,136)" d="M 866.802 530.292 C 899.281 528.638 934.644 538.58 965.489 548.25 C 948.358 555.676 934.977 566.058 924.514 581.521 C 919.201 590.604 915.849 599.83 912.681 609.843 C 894.721 596.27 860.079 562.317 854.605 540.996 C 853.862 538.1 854.135 536.262 855.605 533.717 C 859.256 531.683 862.746 531.063 866.802 530.292 z"/>
<path transform="translate(0,0)" fill="rgb(254,254,254)" d="M 624.902 1070.23 C 627.923 1070.11 631.083 1070.36 634.038 1071.02 C 643.191 1073.09 648.642 1079.58 653.259 1087.22 C 646.182 1094.35 634.164 1100.45 628.806 1108.61 C 627.381 1110.78 627.295 1111.92 627.724 1114.4 C 629.009 1115.55 630.024 1116.48 631.792 1116.82 C 640.332 1118.5 653.105 1106.73 659.963 1102.08 C 663.315 1107.53 665.796 1112.58 668.011 1118.57 C 660.617 1136.37 651.488 1135.22 645.129 1145.88 C 643.88 1147.97 644.589 1148.92 645.217 1151.12 C 647.005 1152.63 647.56 1153.17 649.987 1153.42 C 656.039 1154.05 662.105 1150.23 666.61 1146.68 C 669.8 1143.59 673.419 1141.05 676.972 1138.4 C 679.138 1145.3 681.085 1151.4 677.234 1158.22 C 673.255 1165.27 664.208 1171.07 656.46 1172.91 A 28.0298 28.0298 0 0 1 634.297 1169.02 C 616.927 1157.56 606.721 1129.57 603.102 1110.05 C 601.204 1099.81 600.801 1088.9 607.176 1080.05 C 611.798 1073.63 617.388 1071.61 624.902 1070.23 z"/>
<path transform="translate(0,0)" fill="rgb(254,254,254)" d="M 966.517 850.344 C 970.808 851.364 982.964 870.82 986.281 875.332 C 964.141 884.934 940.458 891.742 917.495 899.105 C 885.049 909.507 852.891 920.134 821.335 933.011 C 852.499 911.829 887.011 902.145 920.967 887.084 C 923.156 886.113 924.71 885.588 925.585 883.265 C 925.33 883.116 925.093 882.93 924.82 882.817 C 916.633 879.437 886.234 889.485 877.271 892.73 A 296.437 296.437 0 0 0 814.696 924.748 C 799.897 934.85 784.498 947.939 768.14 955.315 L 768.952 954.185 C 810.317 897.816 899.134 861.329 966.517 850.344 z"/>
<path transform="translate(0,0)" fill="rgb(131,74,122)" d="M 1258.08 873.17 C 1279.68 877.634 1307.05 872.253 1325.42 860.09 C 1333.36 854.832 1340.48 848.222 1347.5 841.815 C 1355.42 848.489 1361.41 855.731 1362.11 866.613 C 1362.73 876.311 1358.08 885.077 1351.53 891.928 C 1341.01 902.932 1328.31 907.738 1313.38 908.467 C 1314.85 902.048 1318.03 891.848 1313.56 886.042 C 1311.51 883.386 1308.3 882.943 1305.23 882.473 C 1296.71 885.968 1288.97 915.074 1257.84 924.863 C 1254.66 925.864 1249.57 927.542 1246.42 926.295 C 1243.68 925.204 1241.24 922.499 1239.13 920.493 C 1228.56 910.447 1221.23 907.172 1206.63 906.69 L 1203.81 905.516 L 1206.83 902.272 C 1224.03 892.612 1241.61 884.14 1258.08 873.17 z"/>
<path transform="translate(0,0)" fill="rgb(254,254,254)" d="M 628.558 851.365 C 645.763 849.667 663.618 855.35 678.763 863.128 C 709.442 878.883 733.405 909.034 743.459 941.922 C 744.56 945.521 745.385 948.928 743.535 952.423 C 740.996 953.773 740.541 953.692 737.64 953.486 C 730.273 945.564 725.201 934.847 718.728 926.055 C 700.744 901.627 670.542 879.337 639.925 875.037 C 634.208 874.234 626.734 873.309 621.845 877.014 C 622.251 878.067 622.573 879.238 623.209 880.172 C 665.164 887.224 695.06 915.667 719.531 948.418 C 707.23 939.762 693.532 932.631 680.487 925.144 C 647.313 906.104 613.454 888.54 579.852 870.293 C 595.188 859.374 609.97 853.903 628.558 851.365 z"/>
<path transform="translate(0,0)" fill="rgb(244,173,154)" d="M 1170.78 1077.86 C 1184.39 1080.65 1204.53 1087.67 1212.9 1099.39 C 1230.84 1124.5 1235.43 1163.79 1229.92 1193.45 C 1224.13 1224.69 1206.07 1255.55 1179.45 1273.41 C 1164.76 1283.26 1152.51 1285.68 1135.1 1282.23 C 1122.23 1278.3 1112.79 1273.3 1102.47 1264.67 C 1106.1 1265.43 1109.83 1266.28 1113.51 1266.69 C 1130.44 1268.59 1146.68 1261.31 1159.57 1250.86 C 1182.31 1232.44 1197.69 1203.08 1200.66 1174.05 C 1204.39 1137.61 1193.7 1105.89 1170.78 1077.86 z"/>
<path transform="translate(0,0)" fill="rgb(254,254,254)" d="M 1118.68 463.548 C 1134.43 451.52 1152.35 441.353 1169.07 430.686 C 1212.24 403.157 1256.59 375.483 1302.62 352.978 C 1328.2 340.47 1369 320.065 1397.33 330.429 C 1410.94 335.41 1419.66 345.336 1425.64 358.168 C 1420.2 358.911 1410.78 351.022 1404.67 349.244 C 1396.52 346.876 1386.19 347.202 1377.84 348.504 C 1330.69 355.849 1235.12 418.693 1193.97 446.346 C 1181.01 455.058 1166.84 463.546 1155.13 473.848 C 1143.22 469.66 1130.95 466.481 1118.68 463.548 z"/>
<path transform="translate(0,0)" fill="rgb(254,254,254)" d="M 1117.23 1077.15 C 1128.51 1076.27 1138.5 1077.18 1148.14 1083.77 C 1169.25 1098.21 1176.17 1125.12 1181.03 1148.63 C 1161.18 1167.28 1157.89 1175.62 1129.07 1181.88 C 1118.2 1184.23 1098.65 1187.24 1089.09 1180.38 C 1086.73 1178.69 1085.57 1176.94 1085.2 1174.11 C 1089.11 1170.93 1097.14 1169.19 1102.03 1167.17 C 1104.9 1165.27 1108.51 1163.33 1109.69 1159.94 C 1108.95 1157.95 1107.55 1155.06 1105.84 1153.68 C 1104.05 1152.23 1074.58 1160.72 1063.15 1154.49 L 1063.52 1153.47 L 1062.16 1152.03 C 1065.05 1141 1085.78 1136.46 1092.13 1126.79 C 1092.23 1124.09 1091.99 1122.68 1090.86 1120.22 C 1080.78 1112.56 1069.26 1126.7 1058.42 1125.87 C 1056.51 1125.72 1057.24 1125.91 1055.85 1124.16 C 1056.11 1120.68 1057.32 1118 1059.17 1115.04 C 1070.9 1096.36 1096.08 1081.66 1117.23 1077.15 z"/>
<path transform="translate(0,0)" fill="rgb(131,74,122)" d="M 989.904 552.933 C 1013.16 553.377 1061.97 575.005 1083.3 585.242 C 1056.28 607.181 1028.45 631.857 992.256 635.346 C 979.708 636.556 966.642 634.933 954.268 637.561 C 944.687 639.596 938.265 643.774 933.107 652.054 C 931.984 655.007 930.431 658.528 931.099 661.765 C 931.579 664.09 932.767 665.554 934.998 666.351 C 938.394 667.564 942.327 665.393 945.412 664.131 C 944.933 672.17 943.568 680.208 942.587 688.202 C 941.503 697.036 939.204 703.759 944.928 711.097 L 943.69 711.969 C 937.952 709.683 932.459 698.34 929.723 693.029 C 918.77 671.77 919.003 640.698 926.553 618.456 C 937.5 586.202 960.351 567.625 989.904 552.933 z"/>
<path transform="translate(0,0)" fill="rgb(248,197,136)" d="M 753.412 973.555 L 766.773 972.972 A 17810 17810 0 0 0 819.333 1152.98 C 832.468 1197.03 846.987 1241.48 856.795 1286.39 C 848.044 1287.36 839.508 1288.02 830.701 1287.99 C 828.347 1287.55 825.399 1287.22 823.282 1286.08 C 820.464 1284.56 819.036 1281.43 817.932 1278.6 C 812.827 1265.52 809.386 1251.38 805.449 1237.88 A 6307.26 6307.26 0 0 0 785.421 1170.06 C 773.281 1129.48 762.003 1088.73 750.417 1048 C 743.462 1023.55 734.972 998.629 730.039 973.712 L 753.412 973.555 z"/>
<path transform="translate(0,0)" fill="rgb(248,197,136)" d="M 1134.21 487.248 C 1207.8 508.798 1273.2 548.472 1330.06 599.617 C 1340.34 608.863 1349.54 619.049 1359.48 628.613 C 1356.3 643.033 1353.65 657.567 1350.47 671.977 C 1289.25 615.959 1202.03 559.253 1122.92 532.48 C 1112.5 528.954 1100.44 524.308 1089.6 522.731 C 1104.97 511.45 1118.31 497.933 1134.21 487.248 z"/>
<path transform="translate(0,0)" fill="rgb(211,167,202)" d="M 1039.73 545.837 C 1061.11 543.447 1082.84 552.01 1104.09 548.312 C 1213.4 579.207 1320.9 662.589 1397.22 744.703 C 1416.64 765.592 1432.76 789.103 1451.95 810.023 C 1400.41 775.486 1347.14 744.322 1296.63 708.1 C 1259.91 681.77 1227.22 650.198 1190.96 623.172 C 1160.46 600.444 1125.83 580.313 1090.81 565.449 C 1074 558.314 1056.6 552.778 1039.73 545.837 z"/>
<path transform="translate(0,0)" fill="rgb(248,197,136)" d="M 569.886 887.6 C 584.098 893.726 597.961 903.132 611.517 910.717 A 6670.01 6670.01 0 0 0 705.202 962.721 A 7833.16 7833.16 0 0 0 763.447 1168.6 C 773.23 1202.23 782.245 1235.96 793.07 1269.28 C 789.105 1267.47 785.204 1265.47 781.281 1263.56 A 4039.42 4039.42 0 0 0 726.953 1234.22 C 714.142 1227.42 700.729 1221.08 688.676 1212.99 C 686.264 1203.17 683.059 1193.87 679.532 1184.41 C 687.417 1177.82 694.419 1170.61 697.417 1160.48 C 699.174 1154.54 699.681 1148.04 698.416 1141.95 C 697.082 1135.53 693.1 1129.72 690.685 1123.64 C 685.279 1110.04 681.543 1097.02 674.297 1084.07 C 664.576 1066.71 654.779 1055.23 634.855 1049.67 L 569.886 887.6 z"/>
<path transform="translate(0,0)" fill="rgb(211,167,202)" d="M 1220.66 967.94 L 1222.43 967.969 C 1237.03 975.794 1250.87 992.246 1262.5 1004.04 C 1318.94 1061.29 1360.75 1131.21 1394.92 1203.51 C 1404.95 1224.73 1412.42 1247.48 1423.23 1268.23 L 1424.02 1269.73 C 1401.01 1273.44 1376.51 1274 1353.25 1275.73 L 1244.04 1283.77 C 1225.82 1285.02 1207.56 1285.69 1189.38 1287.3 C 1195.23 1284.4 1200.39 1281.31 1205.62 1277.39 C 1222.89 1262.71 1235.71 1241.88 1243.49 1220.77 C 1258.52 1180.03 1254.01 1143.24 1236.14 1104.6 C 1248.66 1109.65 1295.31 1141.66 1301.93 1141.29 C 1304.1 1141.16 1306.11 1140.08 1307.32 1138.22 C 1308.97 1135.7 1309.38 1131.93 1308.65 1129.05 C 1307.06 1122.72 1297.39 1116.91 1292.15 1113.47 C 1265.66 1096.11 1203.37 1062.96 1173.38 1058.66 C 1161.72 1056.98 1150.54 1059.19 1139.15 1061.61 C 1139.09 1045.33 1138.2 1029.05 1137.52 1012.79 C 1165.9 999.37 1193.63 983.91 1220.66 967.94 z"/>
<path transform="translate(0,0)" fill="rgb(94,44,96)" d="M 1163.98 1012.13 C 1166.73 1011.99 1169.69 1011.71 1172.34 1012.58 C 1176.08 1013.81 1179.33 1016.87 1181 1020.4 C 1182.5 1023.59 1182.62 1027.18 1181.43 1030.49 C 1179.79 1035.07 1176.47 1037.19 1172.3 1039.26 C 1170.38 1039.44 1168.37 1039.65 1166.45 1039.36 A 13.7042 13.7042 0 0 1 1157.14 1033.42 C 1154.95 1030.16 1154.44 1026.12 1155.37 1022.34 C 1156.67 1017.05 1159.44 1014.82 1163.98 1012.13 z"/>
<path transform="translate(0,0)" fill="rgb(211,167,202)" d="M 1155.13 473.848 C 1166.84 463.546 1181.01 455.058 1193.97 446.346 C 1235.12 418.693 1330.69 355.849 1377.84 348.504 C 1386.19 347.202 1396.52 346.876 1404.67 349.244 C 1410.78 351.022 1420.2 358.911 1425.64 358.168 C 1439.72 390.419 1465 565.102 1462.8 603.896 C 1459.03 602.45 1455.07 601.043 1451.69 598.787 C 1433.8 586.829 1409.98 553.748 1397.5 535.465 C 1399.8 517.653 1414.98 432.827 1406.83 421.875 C 1405.94 420.691 1405.26 420.77 1403.94 420.389 C 1400.46 421.505 1397.46 423.508 1395.82 426.905 C 1391.16 436.615 1382.85 502.886 1380.18 518.419 C 1375.23 547.274 1368.61 576.107 1364.34 605.036 C 1306.37 552.653 1260.59 514.957 1187.01 485.458 C 1177.26 481.549 1165.45 475.143 1155.13 473.848 z"/>
<path transform="translate(0,0)" fill="rgb(254,254,254)" d="M 1098.67 592.127 C 1141.15 609.177 1180.49 637.739 1214.65 667.834 C 1210.41 703.641 1215.74 750.301 1234.61 781.715 C 1237.64 786.752 1243.5 797.277 1249.77 798.026 C 1258.22 799.037 1268.57 779.87 1274.35 774.103 C 1282.91 765.556 1293.29 759.63 1305.71 759.924 C 1315.16 760.147 1323.97 764.589 1330.17 771.658 C 1337.35 779.839 1340.99 791.12 1340.24 801.928 C 1339.3 815.451 1331.06 830.701 1320.5 839.334 C 1301.21 855.098 1273.32 856.63 1249.74 854.04 C 1215.55 876.615 1193.6 888.1 1154.75 900.472 C 1120.95 909.639 1089.57 912.335 1054.7 912.066 A 1755.74 1755.74 0 0 0 1035.7 855.092 C 1025.84 857.79 1016.84 862.933 1007.79 867.558 C 997.182 855.181 988.023 842.028 979.877 827.925 C 968.368 828.912 957.04 831.426 945.721 833.649 C 941.92 826.029 938.861 818.451 937.98 809.902 C 935.008 781.071 951.041 766.621 967.606 746.374 C 972.559 723.227 967.947 680.116 968.005 654.926 C 974.912 654.336 981.768 654.5 988.69 654.623 C 983.631 660.572 979.921 665.346 977.525 672.942 C 976.585 675.922 976.231 677.961 977.689 680.758 C 979.437 681.503 980.553 681.6 982.387 681.221 C 990.588 679.525 996.667 667.961 1003.71 663.055 C 1036.52 640.189 1075.99 628.25 1098.67 592.127 z"/>
<path transform="translate(0,0)" fill="rgb(94,44,96)" d="M 1039 775.002 C 1042.47 774.825 1045.56 774.759 1048.92 775.814 C 1055.29 777.809 1062.26 781.778 1065.18 788.093 C 1066.24 790.383 1066.68 791.675 1065.83 794.125 C 1059.66 796.903 1052.61 790.368 1046.43 789.574 C 1045.79 789.492 1045.15 789.444 1044.51 789.378 C 1045.89 793.511 1048.73 799.135 1046.77 803.364 C 1045.99 805.047 1045.26 804.885 1043.66 805.519 C 1040.09 804.695 1037.93 803.093 1035.68 800.259 C 1032.35 796.063 1030.38 790.633 1031.15 785.242 C 1031.9 779.996 1034.91 777.839 1039 775.002 z"/>
<path transform="translate(0,0)" fill="rgb(94,44,96)" d="M 1306.03 781.23 C 1308.04 781.15 1310.02 781.449 1311.95 782.04 C 1315.18 783.029 1316.98 784.579 1318.39 787.512 C 1316.38 795.91 1295.45 800.61 1288.37 805.198 C 1288.05 805.405 1287.74 805.624 1287.42 805.838 C 1289.47 807.656 1291.67 809.494 1293.42 811.606 C 1295.79 814.459 1297.7 820.416 1296.87 824.125 C 1296.26 826.8 1295.53 827.378 1293.3 828.44 C 1290.03 827.902 1288.74 827.171 1286.12 825.142 L 1281.3 815.954 C 1277.48 817.815 1272.41 821.123 1268.06 819.862 C 1266.5 819.41 1266.46 818.69 1265.66 817.41 C 1265.62 812.889 1267.66 809.365 1270.17 805.728 C 1278.56 793.575 1291.47 784.065 1306.03 781.23 z"/>
<path transform="translate(0,0)" fill="rgb(94,44,96)" d="M 1150.97 657.328 C 1152.83 657.354 1154.7 657.398 1156.55 657.604 C 1166.48 658.709 1175.24 663.827 1181.5 671.555 C 1190.11 682.193 1194.8 698.738 1192.99 712.441 C 1192.42 716.792 1190.84 721.721 1186.96 724.235 C 1184.01 726.137 1181.35 725.902 1178.15 725.011 C 1173.54 720.493 1175.32 710.091 1174.89 703.522 C 1172.93 694.956 1170.15 686.35 1163.15 680.514 C 1147.58 667.53 1136.69 684.079 1124.52 683.731 C 1121.48 683.644 1121.2 683.06 1119.22 680.975 C 1119.07 676.849 1120.83 674.261 1123.32 670.988 C 1130.31 661.836 1140.05 658.848 1150.97 657.328 z"/>
<path transform="translate(0,0)" fill="rgb(94,44,96)" d="M 1010.01 693.904 C 1011.65 694.162 1013.34 694.397 1014.84 695.16 C 1018.04 696.788 1019.86 700.396 1021.04 703.62 C 1026.54 718.642 1022.53 744.531 1015.93 758.785 C 1012.8 765.557 1010.21 768.613 1003.2 771.172 C 999.219 768.941 996.384 766.897 994.198 762.785 C 987.241 749.698 990.039 728.598 994.343 714.915 C 997.277 705.584 1001.22 698.514 1010.01 693.904 z"/>
<path transform="translate(0,0)" fill="rgb(94,44,96)" d="M 1133.01 706.67 C 1134.83 706.678 1136.73 706.651 1138.53 706.949 C 1141.72 707.478 1144.5 710.027 1146.15 712.699 C 1152.88 723.59 1149.73 743.481 1146.91 755.378 C 1144.38 766.04 1140.21 779.616 1130.47 785.646 C 1129.97 785.649 1129.46 785.672 1128.96 785.654 C 1125.03 785.512 1122.43 784.298 1119.99 781.278 C 1113.44 773.208 1113.69 758.241 1114.5 748.306 C 1115.72 733.319 1121.31 716.602 1133.01 706.67 z"/>
<path transform="translate(0,0)" fill="rgb(94,44,96)" d="M 1130.85 792.376 C 1136.28 791.969 1142.82 790.799 1147.89 793.231 C 1152.66 795.52 1155.77 799.769 1157.32 804.738 C 1161.98 819.693 1156.92 840.632 1149.69 854.111 C 1141.37 869.62 1127.03 882.002 1110.02 886.92 C 1095 891.262 1081.09 889.054 1067.58 881.61 C 1051.98 871.586 1035.67 851.949 1030.58 833.915 C 1029.57 830.32 1029.17 826.069 1031.33 822.787 C 1033.52 819.442 1038.26 817.466 1041.79 815.977 C 1050.92 812.129 1061.34 810.192 1070.89 807.543 C 1090.58 802.079 1110.55 794.855 1130.85 792.376 z"/>
<path transform="translate(0,0)" fill="rgb(254,254,254)" d="M 1125.58 806.236 C 1128.93 805.999 1131.69 805.706 1134.77 807.392 C 1138.77 809.585 1140.58 814.275 1141.37 818.519 C 1143.62 830.595 1139.28 843.498 1132.61 853.543 C 1125.57 864.131 1114.08 874.352 1101.28 876.513 C 1091.18 878.218 1082.95 874.61 1074.95 868.797 C 1070.6 864.624 1067.15 860.278 1064.37 854.933 C 1060.9 848.253 1055.28 835.557 1058.65 828.333 C 1062.04 821.046 1089.57 816.165 1097.87 813.994 C 1098.09 814.356 1098.31 814.715 1098.53 815.08 C 1100.5 818.416 1101.73 821.589 1105.31 823.398 C 1106.89 823.412 1107.56 823.888 1108.69 822.574 C 1111.68 819.077 1110.54 814.377 1110.08 810.194 C 1115.23 808.5 1120.27 807.3 1125.58 806.236 z"/>
<path transform="translate(0,0)" fill="rgb(248,197,136)" d="M 1022.5 884.976 C 1023.15 885.366 1024.02 885.519 1024.44 886.147 C 1028.17 891.738 1038.63 929.261 1041.62 938.368 C 1048.46 959.165 1055.94 979.745 1062.94 1000.49 C 1070.51 1022.94 1077.57 1045.57 1085.92 1067.76 C 1072.68 1075.92 1060.05 1084.52 1049.98 1096.54 C 1043.51 1104.27 1036.84 1114.71 1038.12 1125.2 C 1038.97 1132.24 1042.03 1135.83 1047.32 1140.2 A 190.697 190.697 0 0 0 1047.01 1147.77 C 1046.81 1159.45 1051.63 1161.98 1060.01 1168.73 C 1060.63 1169.22 1063.09 1170.92 1063.38 1171.42 C 1066.48 1176.68 1062.62 1182.12 1071.18 1190.38 C 1083.5 1202.27 1105.2 1203.15 1121.24 1202.9 C 1122.68 1208.7 1124.52 1214.33 1126.38 1220 C 1104.19 1226.6 1081.56 1231.86 1059.15 1237.66 L 928.96 1270.69 L 878.936 1282.74 C 870.106 1245.6 856.898 1208.21 846.154 1171.48 A 14738.8 14738.8 0 0 0 786.544 967.006 C 863.617 934.552 944.033 913.303 1022.5 884.976 z"/>
<path transform="translate(0,0)" fill="rgb(94,44,96)" d="M 955.306 979.657 C 959.699 980.387 963.161 982.21 965.979 985.751 A 15.6461 15.6461 0 0 1 969.24 998.222 C 968.459 1002.75 966.059 1004.92 962.503 1007.55 C 958.423 1007.72 955.171 1007.76 952.019 1004.7 C 949.521 1002.27 948.418 998.771 948.378 995.355 C 948.3 988.658 950.677 984.229 955.306 979.657 z"/>
<path transform="translate(0,0)" fill="rgb(254,213,139)" d="M 956.389 986.285 C 958.801 987.268 960.712 988.687 961.834 991.144 C 963.66 995.143 962.508 998.914 961.192 1002.84 C 958.524 1002.1 956.194 1000.82 954.987 998.156 C 953.195 994.205 954.958 990.02 956.389 986.285 z"/>
<path transform="translate(0,0)" fill="rgb(94,44,96)" d="M 913.645 995.933 C 919.264 995.799 923.571 996.564 927.866 1000.49 C 931.472 1003.78 933.585 1008.04 933.649 1012.96 C 933.728 1019.01 931.164 1022.7 927.073 1026.85 C 926.235 1027.04 925.398 1027.25 924.549 1027.4 C 920.51 1028.07 916.912 1027.58 913.599 1025.02 C 909.967 1022.2 908.211 1017.82 907.783 1013.35 C 907.114 1006.37 909.159 1001.16 913.645 995.933 z"/>
<path transform="translate(0,0)" fill="rgb(254,213,139)" d="M 917.802 1001.76 C 919.987 1002.56 921.818 1003.41 923.574 1004.94 C 925.956 1007.02 927.426 1009.72 927.32 1012.96 C 927.205 1016.47 925.451 1018.37 923.196 1020.84 C 921.281 1020.43 919.93 1020.02 918.234 1018.97 C 916.015 1017.61 914.453 1015.08 914.14 1012.5 C 913.639 1008.38 915.569 1005.01 917.802 1001.76 z"/>
</svg>