<svg width="320" height="240" viewBox="0 0 320 240" fill="none" xmlns="http://www.w3.org/2000/svg">
<g clip-path="url(#clip0_1_8118)">
<rect width="320" height="240" fill="white"/>
<rect width="16" height="16" fill="#D9D9D9"/>
<rect y="16" width="16" height="16" fill="#D9D9D9"/>
<rect y="32" width="16" height="16" fill="#D9D9D9"/>
<rect y="48" width="16" height="16" fill="#D9D9D9"/>
<rect y="64" width="16" height="16" fill="#D9D9D9"/>
<rect y="80" width="16" height="16" fill="#D9D9D9"/>
<rect y="96" width="16" height="16" fill="#D9D9D9"/>
<rect y="112" width="16" height="16" fill="#D9D9D9"/>
<rect y="128" width="16" height="16" fill="#D9D9D9"/>
<rect y="144" width="16" height="16" fill="#D9D9D9"/>
<rect y="160" width="16" height="16" fill="#D9D9D9"/>
<rect y="176" width="16" height="16" fill="#D9D9D9"/>
<rect y="192" width="16" height="16" fill="#D9D9D9"/>
<rect y="208" width="16" height="16" fill="#D9D9D9"/>
<rect y="224" width="16" height="16" fill="#D9D9D9"/>
<rect x="16" width="16" height="16" fill="#D9D9D9"/>
<rect x="16" y="16" width="16" height="16" fill="#BDC755" fill-opacity="0.2"/>
<rect x="16" y="32" width="16" height="16" fill="#BDC755" fill-opacity="0.2"/>
<rect x="16" y="48" width="16" height="16" fill="#BDC755" fill-opacity="0.2"/>
<rect x="16" y="64" width="16" height="16" fill="#BDC755" fill-opacity="0.2"/>
<rect x="16" y="80" width="16" height="16" fill="#BDC755" fill-opacity="0.2"/>
<rect x="16" y="96" width="16" height="16" fill="#BDC755" fill-opacity="0.2"/>
<rect x="16" y="112" width="16" height="16" fill="#BDC755" fill-opacity="0.2"/>
<rect x="16" y="128" width="16" height="16" fill="#BDC755" fill-opacity="0.2"/>
<rect x="16" y="144" width="16" height="16" fill="#BDC755" fill-opacity="0.2"/>
<rect x="16" y="160" width="16" height="16" fill="#BDC755" fill-opacity="0.2"/>
<rect x="16" y="176" width="16" height="16" fill="#BDC755" fill-opacity="0.2"/>
<rect x="16" y="192" width="16" height="16" fill="#BDC755" fill-opacity="0.2"/>
<rect x="16" y="208" width="16" height="16" fill="#BDC755" fill-opacity="0.2"/>
<rect x="16" y="224" width="16" height="16" fill="#D9D9D9"/>
<rect x="32" width="16" height="16" fill="#D9D9D9"/>
<rect x="32" y="16" width="16" height="16" fill="#BDC755" fill-opacity="0.2"/>
<rect x="32" y="32" width="16" height="16" fill="#BDC755" fill-opacity="0.2"/>
<rect x="32" y="48" width="16" height="16" fill="#BDC755" fill-opacity="0.2"/>
<rect x="32" y="64" width="16" height="16" fill="#BDC755" fill-opacity="0.2"/>
<rect x="32" y="80" width="16" height="16" fill="#BDC755" fill-opacity="0.2"/>
<rect x="32" y="96" width="16" height="16" fill="#BDC755" fill-opacity="0.2"/>
<rect x="32" y="112" width="16" height="16" fill="#BDC755" fill-opacity="0.2"/>
<rect x="32" y="128" width="16" height="16" fill="#BDC755" fill-opacity="0.2"/>
<rect x="32" y="144" width="16" height="16" fill="#BDC755" fill-opacity="0.2"/>
<rect x="32" y="160" width="16" height="16" fill="#BDC755" fill-opacity="0.2"/>
<rect x="32" y="176" width="16" height="16" fill="#BDC755" fill-opacity="0.2"/>
<rect x="32" y="192" width="16" height="16" fill="#BDC755" fill-opacity="0.2"/>
<rect x="32" y="208" width="16" height="16" fill="#BDC755" fill-opacity="0.2"/>
<rect x="32" y="224" width="16" height="16" fill="#D9D9D9"/>
<rect x="48" width="16" height="16" fill="#D9D9D9"/>
<rect x="48" y="16" width="16" height="16" fill="white"/>
<rect x="48" y="32" width="16" height="16" fill="white"/>
<rect x="48" y="48" width="16" height="16" fill="white"/>
<rect x="48" y="64" width="16" height="16" fill="white"/>
<rect x="48" y="80" width="16" height="16" fill="white"/>
<rect x="48" y="96" width="16" height="16" fill="white"/>
<rect x="48" y="112" width="16" height="16" fill="white"/>
<rect x="48" y="128" width="16" height="16" fill="white"/>
<rect x="48" y="144" width="16" height="16" fill="white"/>
<rect x="48" y="160" width="16" height="16" fill="white"/>
<rect x="48" y="176" width="16" height="16" fill="white"/>
<rect x="48" y="192" width="16" height="16" fill="white"/>
<rect x="48" y="208" width="16" height="16" fill="white"/>
<rect x="48" y="224" width="16" height="16" fill="#D9D9D9"/>
<rect x="64" width="16" height="16" fill="#D9D9D9"/>
<rect x="64" y="16" width="16" height="16" fill="#939393"/>
<rect x="64" y="32" width="16" height="16" fill="#939393"/>
<rect x="64" y="48" width="16" height="16" fill="#939393"/>
<rect x="64" y="64" width="16" height="16" fill="#939393"/>
<rect x="64" y="80" width="16" height="16" fill="#939393"/>
<rect x="64" y="96" width="16" height="16" fill="#939393"/>
<rect x="64" y="112" width="16" height="16" fill="white"/>
<rect x="64" y="128" width="16" height="16" fill="#939393"/>
<rect x="64" y="144" width="16" height="16" fill="#939393"/>
<rect x="64" y="160" width="16" height="16" fill="#939393"/>
<rect x="64" y="176" width="16" height="16" fill="#939393"/>
<rect x="64" y="192" width="16" height="16" fill="#939393"/>
<rect x="64" y="208" width="16" height="16" fill="#939393"/>
<rect x="64" y="224" width="16" height="16" fill="#D9D9D9"/>
<rect x="80" width="16" height="16" fill="#D9D9D9"/>
<rect x="80" y="16" width="16" height="16" fill="#939393"/>
<rect x="80" y="32" width="16" height="16" fill="#939393"/>
<rect x="80" y="48" width="16" height="16" fill="#939393"/>
<rect x="80" y="64" width="16" height="16" fill="#939393"/>
<rect x="80" y="80" width="16" height="16" fill="#939393"/>
<rect x="80" y="96" width="16" height="16" fill="#939393"/>
<rect x="80" y="112" width="16" height="16" fill="white"/>
<rect x="80" y="128" width="16" height="16" fill="#939393"/>
<rect x="80" y="144" width="16" height="16" fill="#939393"/>
<rect x="80" y="160" width="16" height="16" fill="#939393"/>
<rect x="80" y="176" width="16" height="16" fill="#939393"/>
<rect x="80" y="192" width="16" height="16" fill="#939393"/>
<rect x="80" y="208" width="16" height="16" fill="#939393"/>
<rect x="80" y="224" width="16" height="16" fill="#D9D9D9"/>
<rect x="96" width="16" height="16" fill="#D9D9D9"/>
<rect x="96" y="16" width="16" height="16" fill="#939393"/>
<rect x="96" y="32" width="16" height="16" fill="#939393"/>
<rect x="96" y="48" width="16" height="16" fill="#939393"/>
<rect x="96" y="64" width="16" height="16" fill="#939393"/>
<rect x="96" y="80" width="16" height="16" fill="#939393"/>
<rect x="96" y="96" width="16" height="16" fill="#939393"/>
<rect x="96" y="112" width="16" height="16" fill="white"/>
<rect x="96" y="128" width="16" height="16" fill="#939393"/>
<rect x="96" y="144" width="16" height="16" fill="#939393"/>
<rect x="96" y="160" width="16" height="16" fill="#939393"/>
<rect x="96" y="176" width="16" height="16" fill="#939393"/>
<rect x="96" y="192" width="16" height="16" fill="#939393"/>
<rect x="96" y="208" width="16" height="16" fill="#939393"/>
<rect x="96" y="224" width="16" height="16" fill="#D9D9D9"/>
<rect x="112" width="16" height="16" fill="#D9D9D9"/>
<rect x="112" y="16" width="16" height="16" fill="#939393"/>
<rect x="112" y="32" width="16" height="16" fill="#939393"/>
<rect x="112" y="48" width="16" height="16" fill="#939393"/>
<rect x="112" y="64" width="16" height="16" fill="#939393"/>
<rect x="112" y="80" width="16" height="16" fill="#939393"/>
<rect x="112" y="96" width="16" height="16" fill="#939393"/>
<rect x="112" y="112" width="16" height="16" fill="white"/>
<rect x="112" y="128" width="16" height="16" fill="#939393"/>
<rect x="112" y="144" width="16" height="16" fill="#939393"/>
<rect x="112" y="160" width="16" height="16" fill="#939393"/>
<rect x="112" y="176" width="16" height="16" fill="#939393"/>
<rect x="112" y="192" width="16" height="16" fill="#939393"/>
<rect x="112" y="208" width="16" height="16" fill="#939393"/>
<rect x="112" y="224" width="16" height="16" fill="#D9D9D9"/>
<rect x="128" width="16" height="16" fill="#D9D9D9"/>
<rect x="128" y="16" width="16" height="16" fill="#939393"/>
<rect x="128" y="32" width="16" height="16" fill="#939393"/>
<rect x="128" y="48" width="16" height="16" fill="#939393"/>
<rect x="128" y="64" width="16" height="16" fill="#939393"/>
<rect x="128" y="80" width="16" height="16" fill="#939393"/>
<rect x="128" y="96" width="16" height="16" fill="#939393"/>
<rect x="128" y="112" width="16" height="16" fill="white"/>
<rect x="128" y="128" width="16" height="16" fill="#939393"/>
<rect x="128" y="144" width="16" height="16" fill="#939393"/>
<rect x="128" y="160" width="16" height="16" fill="#939393"/>
<rect x="128" y="176" width="16" height="16" fill="#939393"/>
<rect x="128" y="192" width="16" height="16" fill="#939393"/>
<rect x="128" y="208" width="16" height="16" fill="#939393"/>
<rect x="128" y="224" width="16" height="16" fill="#D9D9D9"/>
<rect x="144" width="16" height="16" fill="#D9D9D9"/>
<rect x="144" y="16" width="16" height="16" fill="#939393"/>
<rect x="144" y="32" width="16" height="16" fill="#939393"/>
<rect x="144" y="48" width="16" height="16" fill="#939393"/>
<rect x="144" y="64" width="16" height="16" fill="#939393"/>
<rect x="144" y="80" width="16" height="16" fill="#939393"/>
<rect x="144" y="96" width="16" height="16" fill="#939393"/>
<rect x="144" y="112" width="16" height="16" fill="white"/>
<rect x="144" y="128" width="16" height="16" fill="#939393"/>
<rect x="144" y="144" width="16" height="16" fill="#939393"/>
<rect x="144" y="160" width="16" height="16" fill="#939393"/>
<rect x="144" y="176" width="16" height="16" fill="#939393"/>
<rect x="144" y="192" width="16" height="16" fill="#939393"/>
<rect x="144" y="208" width="16" height="16" fill="#939393"/>
<rect x="144" y="224" width="16" height="16" fill="#D9D9D9"/>
<rect x="160" width="16" height="16" fill="#D9D9D9"/>
<rect x="160" y="16" width="16" height="16" fill="#939393"/>
<rect x="160" y="32" width="16" height="16" fill="#939393"/>
<rect x="160" y="48" width="16" height="16" fill="#939393"/>
<rect x="160" y="64" width="16" height="16" fill="#939393"/>
<rect x="160" y="80" width="16" height="16" fill="#939393"/>
<rect x="160" y="96" width="16" height="16" fill="#939393"/>
<rect x="160" y="112" width="16" height="16" fill="white"/>
<rect x="160" y="128" width="16" height="16" fill="#939393"/>
<rect x="160" y="144" width="16" height="16" fill="#939393"/>
<rect x="160" y="160" width="16" height="16" fill="#939393"/>
<rect x="160" y="176" width="16" height="16" fill="#939393"/>
<rect x="160" y="192" width="16" height="16" fill="#939393"/>
<rect x="160" y="208" width="16" height="16" fill="#939393"/>
<rect x="160" y="224" width="16" height="16" fill="#D9D9D9"/>
<rect x="176" width="16" height="16" fill="#D9D9D9"/>
<rect x="176" y="16" width="16" height="16" fill="#939393"/>
<rect x="176" y="32" width="16" height="16" fill="#939393"/>
<rect x="176" y="48" width="16" height="16" fill="#939393"/>
<rect x="176" y="64" width="16" height="16" fill="#939393"/>
<rect x="176" y="80" width="16" height="16" fill="#939393"/>
<rect x="176" y="96" width="16" height="16" fill="#939393"/>
<rect x="176" y="112" width="16" height="16" fill="white"/>
<rect x="176" y="128" width="16" height="16" fill="#939393"/>
<rect x="176" y="144" width="16" height="16" fill="#939393"/>
<rect x="176" y="160" width="16" height="16" fill="#939393"/>
<rect x="176" y="176" width="16" height="16" fill="#939393"/>
<rect x="176" y="192" width="16" height="16" fill="#939393"/>
<rect x="176" y="208" width="16" height="16" fill="#939393"/>
<rect x="176" y="224" width="16" height="16" fill="#D9D9D9"/>
<rect x="192" width="16" height="16" fill="#D9D9D9"/>
<rect x="192" y="16" width="16" height="16" fill="#939393"/>
<rect x="192" y="32" width="16" height="16" fill="#939393"/>
<rect x="192" y="48" width="16" height="16" fill="#939393"/>
<rect x="192" y="64" width="16" height="16" fill="#939393"/>
<rect x="192" y="80" width="16" height="16" fill="#939393"/>
<rect x="192" y="96" width="16" height="16" fill="#939393"/>
<rect x="192" y="112" width="16" height="16" fill="white"/>
<rect x="192" y="128" width="16" height="16" fill="#939393"/>
<rect x="192" y="144" width="16" height="16" fill="#939393"/>
<rect x="192" y="160" width="16" height="16" fill="#939393"/>
<rect x="192" y="176" width="16" height="16" fill="#939393"/>
<rect x="192" y="192" width="16" height="16" fill="#939393"/>
<rect x="192" y="208" width="16" height="16" fill="#939393"/>
<rect x="192" y="224" width="16" height="16" fill="#D9D9D9"/>
<rect x="208" width="16" height="16" fill="#D9D9D9"/>
<rect x="208" y="16" width="16" height="16" fill="#939393"/>
<rect x="208" y="32" width="16" height="16" fill="#939393"/>
<rect x="208" y="48" width="16" height="16" fill="#939393"/>
<rect x="208" y="64" width="16" height="16" fill="#939393"/>
<rect x="208" y="80" width="16" height="16" fill="#939393"/>
<rect x="208" y="96" width="16" height="16" fill="#939393"/>
<rect x="208" y="112" width="16" height="16" fill="white"/>
<rect x="208" y="128" width="16" height="16" fill="#939393"/>
<rect x="208" y="144" width="16" height="16" fill="#939393"/>
<rect x="208" y="160" width="16" height="16" fill="#939393"/>
<rect x="208" y="176" width="16" height="16" fill="#939393"/>
<rect x="208" y="192" width="16" height="16" fill="#939393"/>
<rect x="208" y="208" width="16" height="16" fill="#939393"/>
<rect x="208" y="224" width="16" height="16" fill="#D9D9D9"/>
<rect x="224" width="16" height="16" fill="#D9D9D9"/>
<rect x="224" y="16" width="16" height="16" fill="#939393"/>
<rect x="224" y="32" width="16" height="16" fill="#939393"/>
<rect x="224" y="48" width="16" height="16" fill="#939393"/>
<rect x="224" y="64" width="16" height="16" fill="#939393"/>
<rect x="224" y="80" width="16" height="16" fill="#939393"/>
<rect x="224" y="96" width="16" height="16" fill="#939393"/>
<rect x="224" y="112" width="16" height="16" fill="white"/>
<rect x="224" y="128" width="16" height="16" fill="#939393"/>
<rect x="224" y="144" width="16" height="16" fill="#939393"/>
<rect x="224" y="160" width="16" height="16" fill="#939393"/>
<rect x="224" y="176" width="16" height="16" fill="#939393"/>
<rect x="224" y="192" width="16" height="16" fill="#939393"/>
<rect x="224" y="208" width="16" height="16" fill="#939393"/>
<rect x="224" y="224" width="16" height="16" fill="#D9D9D9"/>
<rect x="240" width="16" height="16" fill="#D9D9D9"/>
<rect x="240" y="16" width="16" height="16" fill="#939393"/>
<rect x="240" y="32" width="16" height="16" fill="#939393"/>
<rect x="240" y="48" width="16" height="16" fill="#939393"/>
<rect x="240" y="64" width="16" height="16" fill="#939393"/>
<rect x="240" y="80" width="16" height="16" fill="#939393"/>
<rect x="240" y="96" width="16" height="16" fill="#939393"/>
<rect x="240" y="112" width="16" height="16" fill="white"/>
<rect x="240" y="128" width="16" height="16" fill="#939393"/>
<rect x="240" y="144" width="16" height="16" fill="#939393"/>
<rect x="240" y="160" width="16" height="16" fill="#939393"/>
<rect x="240" y="176" width="16" height="16" fill="#939393"/>
<rect x="240" y="192" width="16" height="16" fill="#939393"/>
<rect x="240" y="208" width="16" height="16" fill="#939393"/>
<rect x="240" y="224" width="16" height="16" fill="#D9D9D9"/>
<rect x="256" width="16" height="16" fill="#D9D9D9"/>
<rect x="256" y="16" width="16" height="16" fill="white"/>
<rect x="256" y="32" width="16" height="16" fill="white"/>
<rect x="256" y="48" width="16" height="16" fill="white"/>
<rect x="256" y="64" width="16" height="16" fill="white"/>
<rect x="256" y="80" width="16" height="16" fill="white"/>
<rect x="256" y="96" width="16" height="16" fill="white"/>
<rect x="256" y="112" width="16" height="16" fill="white"/>
<rect x="256" y="128" width="16" height="16" fill="white"/>
<rect x="256" y="144" width="16" height="16" fill="white"/>
<rect x="256" y="160" width="16" height="16" fill="white"/>
<rect x="256" y="176" width="16" height="16" fill="white"/>
<rect x="256" y="192" width="16" height="16" fill="white"/>
<rect x="256" y="208" width="16" height="16" fill="white"/>
<rect x="256" y="224" width="16" height="16" fill="#D9D9D9"/>
<rect x="272" width="16" height="16" fill="#D9D9D9"/>
<rect x="272" y="16" width="16" height="16" fill="#952525" fill-opacity="0.2"/>
<rect x="272" y="32" width="16" height="16" fill="#952525" fill-opacity="0.2"/>
<rect x="272" y="48" width="16" height="16" fill="#952525" fill-opacity="0.2"/>
<rect x="272" y="64" width="16" height="16" fill="#952525" fill-opacity="0.2"/>
<rect x="272" y="80" width="16" height="16" fill="#952525" fill-opacity="0.2"/>
<rect x="272" y="96" width="16" height="16" fill="#952525" fill-opacity="0.2"/>
<rect x="272" y="112" width="16" height="16" fill="#952525" fill-opacity="0.2"/>
<rect x="272" y="128" width="16" height="16" fill="#952525" fill-opacity="0.2"/>
<rect x="272" y="144" width="16" height="16" fill="#952525" fill-opacity="0.2"/>
<rect x="272" y="160" width="16" height="16" fill="#952525" fill-opacity="0.2"/>
<rect x="272" y="176" width="16" height="16" fill="#952525" fill-opacity="0.2"/>
<rect x="272" y="192" width="16" height="16" fill="#952525" fill-opacity="0.2"/>
<rect x="272" y="208" width="16" height="16" fill="#952525" fill-opacity="0.2"/>
<rect x="272" y="224" width="16" height="16" fill="#D9D9D9"/>
<rect x="288" width="16" height="16" fill="#D9D9D9"/>
<rect x="288" y="16" width="16" height="16" fill="#952525" fill-opacity="0.2"/>
<rect x="288" y="32" width="16" height="16" fill="#952525" fill-opacity="0.2"/>
<rect x="288" y="48" width="16" height="16" fill="#952525" fill-opacity="0.2"/>
<rect x="288" y="64" width="16" height="16" fill="#952525" fill-opacity="0.2"/>
<rect x="288" y="80" width="16" height="16" fill="#952525" fill-opacity="0.2"/>
<rect x="288" y="96" width="16" height="16" fill="#952525" fill-opacity="0.2"/>
<rect x="288" y="112" width="16" height="16" fill="#952525" fill-opacity="0.2"/>
<rect x="288" y="128" width="16" height="16" fill="#952525" fill-opacity="0.2"/>
<rect x="288" y="144" width="16" height="16" fill="#952525" fill-opacity="0.2"/>
<rect x="288" y="160" width="16" height="16" fill="#952525" fill-opacity="0.2"/>
<rect x="288" y="176" width="16" height="16" fill="#952525" fill-opacity="0.2"/>
<rect x="288" y="192" width="16" height="16" fill="#952525" fill-opacity="0.2"/>
<rect x="288" y="208" width="16" height="16" fill="#952525" fill-opacity="0.2"/>
<rect x="288" y="224" width="16" height="16" fill="#D9D9D9"/>
<rect x="304" width="16" height="16" fill="#D9D9D9"/>
<rect x="304" y="16" width="16" height="16" fill="#D9D9D9"/>
<rect x="304" y="32" width="16" height="16" fill="#D9D9D9"/>
<rect x="304" y="48" width="16" height="16" fill="#D9D9D9"/>
<rect x="304" y="64" width="16" height="16" fill="#D9D9D9"/>
<rect x="304" y="80" width="16" height="16" fill="#D9D9D9"/>
<rect x="304" y="96" width="16" height="16" fill="#D9D9D9"/>
<rect x="304" y="112" width="16" height="16" fill="#D9D9D9"/>
<rect x="304" y="128" width="16" height="16" fill="#D9D9D9"/>
<rect x="304" y="144" width="16" height="16" fill="#D9D9D9"/>
<rect x="304" y="160" width="16" height="16" fill="#D9D9D9"/>
<rect x="304" y="176" width="16" height="16" fill="#D9D9D9"/>
<rect x="304" y="192" width="16" height="16" fill="#D9D9D9"/>
<rect x="304" y="208" width="16" height="16" fill="#D9D9D9"/>
<rect x="304" y="224" width="16" height="16" fill="#D9D9D9"/>
<path d="M161.488 66.791H158.641L157.955 69H156.871L159.625 60.4688H160.533L163.24 69H162.162L161.488 66.791ZM158.934 65.8477H161.201L160.076 62.1445L158.934 65.8477Z" fill="black"/>
<path d="M157.404 184V175.469H159.941C160.293 175.473 160.637 175.52 160.973 175.609C161.309 175.695 161.607 175.83 161.869 176.014C162.131 176.197 162.34 176.432 162.496 176.717C162.652 177.002 162.729 177.344 162.725 177.742C162.721 177.965 162.684 178.168 162.613 178.352C162.547 178.535 162.455 178.699 162.338 178.844C162.217 178.992 162.082 179.117 161.934 179.219C161.789 179.32 161.613 179.416 161.406 179.506V179.523C161.621 179.574 161.828 179.666 162.027 179.799C162.227 179.932 162.391 180.078 162.52 180.238C162.656 180.414 162.762 180.611 162.836 180.83C162.914 181.049 162.953 181.285 162.953 181.539C162.957 181.938 162.881 182.289 162.725 182.594C162.568 182.898 162.359 183.152 162.098 183.355C161.836 183.562 161.533 183.721 161.189 183.83C160.85 183.939 160.498 183.996 160.135 184H157.404ZM158.494 180.01V183.08H160.164C160.391 183.076 160.605 183.039 160.809 182.969C161.012 182.895 161.191 182.793 161.348 182.664C161.504 182.535 161.627 182.377 161.717 182.189C161.811 182.002 161.857 181.789 161.857 181.551C161.861 181.309 161.82 181.094 161.734 180.906C161.652 180.719 161.537 180.559 161.389 180.426C161.24 180.297 161.066 180.197 160.867 180.127C160.668 180.057 160.453 180.018 160.223 180.01H158.494ZM158.494 179.107H160.006C160.209 179.104 160.408 179.072 160.604 179.014C160.799 178.951 160.973 178.861 161.125 178.744C161.277 178.631 161.4 178.49 161.494 178.322C161.588 178.154 161.635 177.959 161.635 177.736C161.635 177.498 161.588 177.295 161.494 177.127C161.404 176.959 161.283 176.82 161.131 176.711C160.975 176.605 160.795 176.527 160.592 176.477C160.393 176.426 160.188 176.398 159.977 176.395H158.494V179.107Z" fill="black"/>
</g>
<defs>
<clipPath id="clip0_1_8118">
<rect width="320" height="240" fill="white"/>
</clipPath>
</defs>
</svg>
