<svg width="320" height="240" viewBox="0 0 320 240" fill="none" xmlns="http://www.w3.org/2000/svg">
<g clip-path="url(#clip0_1_8719)">
<rect width="320" height="240" fill="white"/>
<rect width="16" height="16" fill="#D9D9D9"/>
<rect y="16" width="16" height="16" fill="#D9D9D9"/>
<rect y="32" width="16" height="16" fill="#D9D9D9"/>
<rect y="48" width="16" height="16" fill="#D9D9D9"/>
<rect y="64" width="16" height="16" fill="#D9D9D9"/>
<rect y="80" width="16" height="16" fill="#D9D9D9"/>
<rect y="96" width="16" height="16" fill="#D9D9D9"/>
<rect y="112" width="16" height="16" fill="#D9D9D9"/>
<rect y="128" width="16" height="16" fill="#D9D9D9"/>
<rect y="144" width="16" height="16" fill="#D9D9D9"/>
<rect y="160" width="16" height="16" fill="#D9D9D9"/>
<rect y="176" width="16" height="16" fill="#D9D9D9"/>
<rect y="192" width="16" height="16" fill="#D9D9D9"/>
<rect y="208" width="16" height="16" fill="#D9D9D9"/>
<rect y="224" width="16" height="16" fill="#D9D9D9"/>
<rect x="16" width="16" height="16" fill="#D9D9D9"/>
<rect x="16" y="16" width="16" height="16" fill="#BDC755" fill-opacity="0.2"/>
<rect x="16" y="32" width="16" height="16" fill="#BDC755" fill-opacity="0.2"/>
<rect x="16" y="48" width="16" height="16" fill="#BDC755" fill-opacity="0.2"/>
<rect x="16" y="64" width="16" height="16" fill="#BDC755" fill-opacity="0.2"/>
<rect x="16" y="80" width="16" height="16" fill="#BDC755" fill-opacity="0.2"/>
<rect x="16" y="96" width="16" height="16" fill="#BDC755" fill-opacity="0.2"/>
<rect x="16" y="112" width="16" height="16" fill="#BDC755" fill-opacity="0.2"/>
<rect x="16" y="128" width="16" height="16" fill="#BDC755" fill-opacity="0.2"/>
<rect x="16" y="144" width="16" height="16" fill="#BDC755" fill-opacity="0.2"/>
<rect x="16" y="160" width="16" height="16" fill="#BDC755" fill-opacity="0.2"/>
<rect x="16" y="176" width="16" height="16" fill="#BDC755" fill-opacity="0.2"/>
<rect x="16" y="192" width="16" height="16" fill="#BDC755" fill-opacity="0.2"/>
<rect x="16" y="208" width="16" height="16" fill="#BDC755" fill-opacity="0.2"/>
<rect x="16" y="224" width="16" height="16" fill="#D9D9D9"/>
<rect x="32" width="16" height="16" fill="#D9D9D9"/>
<rect x="32" y="16" width="16" height="16" fill="#BDC755" fill-opacity="0.2"/>
<rect x="32" y="32" width="16" height="16" fill="#BDC755" fill-opacity="0.2"/>
<rect x="32" y="48" width="16" height="16" fill="#BDC755" fill-opacity="0.2"/>
<rect x="32" y="64" width="16" height="16" fill="#BDC755" fill-opacity="0.2"/>
<rect x="32" y="80" width="16" height="16" fill="#BDC755" fill-opacity="0.2"/>
<rect x="32" y="96" width="16" height="16" fill="#BDC755" fill-opacity="0.2"/>
<rect x="32" y="112" width="16" height="16" fill="#BDC755" fill-opacity="0.2"/>
<rect x="32" y="128" width="16" height="16" fill="#BDC755" fill-opacity="0.2"/>
<rect x="32" y="144" width="16" height="16" fill="#BDC755" fill-opacity="0.2"/>
<rect x="32" y="160" width="16" height="16" fill="#BDC755" fill-opacity="0.2"/>
<rect x="32" y="176" width="16" height="16" fill="#BDC755" fill-opacity="0.2"/>
<rect x="32" y="192" width="16" height="16" fill="#BDC755" fill-opacity="0.2"/>
<rect x="32" y="208" width="16" height="16" fill="#BDC755" fill-opacity="0.2"/>
<rect x="32" y="224" width="16" height="16" fill="#D9D9D9"/>
<rect x="48" width="16" height="16" fill="#D9D9D9"/>
<rect x="48" y="16" width="16" height="16" fill="white"/>
<rect x="48" y="32" width="16" height="16" fill="white"/>
<rect x="48" y="48" width="16" height="16" fill="white"/>
<rect x="48" y="64" width="16" height="16" fill="white"/>
<rect x="48" y="80" width="16" height="16" fill="white"/>
<rect x="48" y="96" width="16" height="16" fill="white"/>
<rect x="48" y="112" width="16" height="16" fill="white"/>
<rect x="48" y="128" width="16" height="16" fill="white"/>
<rect x="48" y="144" width="16" height="16" fill="white"/>
<rect x="48" y="160" width="16" height="16" fill="white"/>
<rect x="48" y="176" width="16" height="16" fill="white"/>
<rect x="48" y="192" width="16" height="16" fill="white"/>
<rect x="48" y="208" width="16" height="16" fill="white"/>
<rect x="48" y="224" width="16" height="16" fill="#D9D9D9"/>
<rect x="64" width="16" height="16" fill="#D9D9D9"/>
<rect x="64" y="16" width="16" height="16" fill="#939393"/>
<rect x="64" y="32" width="16" height="16" fill="#939393"/>
<rect x="64" y="48" width="16" height="16" fill="#939393"/>
<rect x="64" y="64" width="16" height="16" fill="#939393"/>
<rect x="64" y="80" width="16" height="16" fill="#939393"/>
<rect x="64" y="96" width="16" height="16" fill="#939393"/>
<rect x="64" y="112" width="16" height="16" fill="#939393"/>
<rect x="64" y="128" width="16" height="16" fill="#939393"/>
<rect x="64" y="144" width="16" height="16" fill="#939393"/>
<rect x="64" y="160" width="16" height="16" fill="#939393"/>
<rect x="64" y="176" width="16" height="16" fill="#939393"/>
<rect x="64" y="192" width="16" height="16" fill="white"/>
<rect x="64" y="208" width="16" height="16" fill="#4AA1DB"/>
<rect x="64" y="224" width="16" height="16" fill="#D9D9D9"/>
<rect x="80" width="16" height="16" fill="#D9D9D9"/>
<rect x="80" y="16" width="16" height="16" fill="#939393"/>
<rect x="80" y="32" width="16" height="16" fill="#939393"/>
<rect x="80" y="48" width="16" height="16" fill="#939393"/>
<rect x="80" y="64" width="16" height="16" fill="#939393"/>
<rect x="80" y="80" width="16" height="16" fill="#939393"/>
<rect x="80" y="96" width="16" height="16" fill="#939393"/>
<rect x="80" y="112" width="16" height="16" fill="#939393"/>
<rect x="80" y="128" width="16" height="16" fill="#939393"/>
<rect x="80" y="144" width="16" height="16" fill="#939393"/>
<rect x="80" y="160" width="16" height="16" fill="#939393"/>
<rect x="80" y="176" width="16" height="16" fill="#939393"/>
<rect x="80" y="192" width="16" height="16" fill="white"/>
<rect x="80" y="208" width="16" height="16" fill="#4AA1DB"/>
<rect x="80" y="224" width="16" height="16" fill="#D9D9D9"/>
<rect x="96" width="16" height="16" fill="#D9D9D9"/>
<rect x="96" y="16" width="16" height="16" fill="#939393"/>
<rect x="96" y="32" width="16" height="16" fill="#939393"/>
<rect x="96" y="48" width="16" height="16" fill="#939393"/>
<rect x="96" y="64" width="16" height="16" fill="#939393"/>
<rect x="96" y="80" width="16" height="16" fill="#939393"/>
<rect x="96" y="96" width="16" height="16" fill="#939393"/>
<rect x="96" y="112" width="16" height="16" fill="#939393"/>
<rect x="96" y="128" width="16" height="16" fill="#939393"/>
<rect x="96" y="144" width="16" height="16" fill="#939393"/>
<rect x="96" y="160" width="16" height="16" fill="#939393"/>
<rect x="96" y="176" width="16" height="16" fill="#939393"/>
<rect x="96" y="192" width="16" height="16" fill="white"/>
<rect x="96" y="208" width="16" height="16" fill="#4AA1DB"/>
<rect x="96" y="224" width="16" height="16" fill="#D9D9D9"/>
<rect x="112" width="16" height="16" fill="#D9D9D9"/>
<rect x="112" y="16" width="16" height="16" fill="#939393"/>
<rect x="112" y="32" width="16" height="16" fill="#939393"/>
<rect x="112" y="48" width="16" height="16" fill="#939393"/>
<rect x="112" y="64" width="16" height="16" fill="#939393"/>
<rect x="112" y="80" width="16" height="16" fill="#939393"/>
<rect x="112" y="96" width="16" height="16" fill="#939393"/>
<rect x="112" y="112" width="16" height="16" fill="#939393"/>
<rect x="112" y="128" width="16" height="16" fill="#939393"/>
<rect x="112" y="144" width="16" height="16" fill="#939393"/>
<rect x="112" y="160" width="16" height="16" fill="#939393"/>
<rect x="112" y="176" width="16" height="16" fill="#939393"/>
<rect x="112" y="192" width="16" height="16" fill="white"/>
<rect x="112" y="208" width="16" height="16" fill="#4AA1DB"/>
<rect x="112" y="224" width="16" height="16" fill="#D9D9D9"/>
<rect x="128" width="16" height="16" fill="#D9D9D9"/>
<rect x="128" y="16" width="16" height="16" fill="#939393"/>
<rect x="128" y="32" width="16" height="16" fill="#939393"/>
<rect x="128" y="48" width="16" height="16" fill="#939393"/>
<rect x="128" y="64" width="16" height="16" fill="#939393"/>
<rect x="128" y="80" width="16" height="16" fill="#939393"/>
<rect x="128" y="96" width="16" height="16" fill="#939393"/>
<rect x="128" y="112" width="16" height="16" fill="#939393"/>
<rect x="128" y="128" width="16" height="16" fill="#939393"/>
<rect x="128" y="144" width="16" height="16" fill="#939393"/>
<rect x="128" y="160" width="16" height="16" fill="#939393"/>
<rect x="128" y="176" width="16" height="16" fill="#939393"/>
<rect x="128" y="192" width="16" height="16" fill="white"/>
<rect x="128" y="208" width="16" height="16" fill="#4AA1DB"/>
<rect x="128" y="224" width="16" height="16" fill="#D9D9D9"/>
<rect x="144" width="16" height="16" fill="#D9D9D9"/>
<rect x="144" y="16" width="16" height="16" fill="#939393"/>
<rect x="144" y="32" width="16" height="16" fill="#939393"/>
<rect x="144" y="48" width="16" height="16" fill="#939393"/>
<rect x="144" y="64" width="16" height="16" fill="#939393"/>
<rect x="144" y="80" width="16" height="16" fill="#939393"/>
<rect x="144" y="96" width="16" height="16" fill="#939393"/>
<rect x="144" y="112" width="16" height="16" fill="#939393"/>
<rect x="144" y="128" width="16" height="16" fill="#939393"/>
<rect x="144" y="144" width="16" height="16" fill="#939393"/>
<rect x="144" y="160" width="16" height="16" fill="#939393"/>
<rect x="144" y="176" width="16" height="16" fill="#939393"/>
<rect x="144" y="192" width="16" height="16" fill="white"/>
<rect x="144" y="208" width="16" height="16" fill="#4AA1DB"/>
<rect x="144" y="224" width="16" height="16" fill="#D9D9D9"/>
<rect x="160" width="16" height="16" fill="#D9D9D9"/>
<rect x="160" y="16" width="16" height="16" fill="#939393"/>
<rect x="160" y="32" width="16" height="16" fill="#939393"/>
<rect x="160" y="48" width="16" height="16" fill="#939393"/>
<rect x="160" y="64" width="16" height="16" fill="#939393"/>
<rect x="160" y="80" width="16" height="16" fill="#939393"/>
<rect x="160" y="96" width="16" height="16" fill="#939393"/>
<rect x="160" y="112" width="16" height="16" fill="#939393"/>
<rect x="160" y="128" width="16" height="16" fill="#939393"/>
<rect x="160" y="144" width="16" height="16" fill="#939393"/>
<rect x="160" y="160" width="16" height="16" fill="#939393"/>
<rect x="160" y="176" width="16" height="16" fill="#939393"/>
<rect x="160" y="192" width="16" height="16" fill="white"/>
<rect x="160" y="208" width="16" height="16" fill="#8AB99D"/>
<rect x="160" y="224" width="16" height="16" fill="#D9D9D9"/>
<rect x="176" width="16" height="16" fill="#D9D9D9"/>
<rect x="176" y="16" width="16" height="16" fill="#939393"/>
<rect x="176" y="32" width="16" height="16" fill="#939393"/>
<rect x="176" y="48" width="16" height="16" fill="#939393"/>
<rect x="176" y="64" width="16" height="16" fill="#939393"/>
<rect x="176" y="80" width="16" height="16" fill="#939393"/>
<rect x="176" y="96" width="16" height="16" fill="#939393"/>
<rect x="176" y="112" width="16" height="16" fill="#939393"/>
<rect x="176" y="128" width="16" height="16" fill="#939393"/>
<rect x="176" y="144" width="16" height="16" fill="#939393"/>
<rect x="176" y="160" width="16" height="16" fill="#939393"/>
<rect x="176" y="176" width="16" height="16" fill="#939393"/>
<rect x="176" y="192" width="16" height="16" fill="white"/>
<rect x="176" y="208" width="16" height="16" fill="#8AB99D"/>
<rect x="176" y="224" width="16" height="16" fill="#D9D9D9"/>
<rect x="192" width="16" height="16" fill="#D9D9D9"/>
<rect x="192" y="16" width="16" height="16" fill="#939393"/>
<rect x="192" y="32" width="16" height="16" fill="#939393"/>
<rect x="192" y="48" width="16" height="16" fill="#939393"/>
<rect x="192" y="64" width="16" height="16" fill="#939393"/>
<rect x="192" y="80" width="16" height="16" fill="#939393"/>
<rect x="192" y="96" width="16" height="16" fill="#939393"/>
<rect x="192" y="112" width="16" height="16" fill="#939393"/>
<rect x="192" y="128" width="16" height="16" fill="#939393"/>
<rect x="192" y="144" width="16" height="16" fill="#939393"/>
<rect x="192" y="160" width="16" height="16" fill="#939393"/>
<rect x="192" y="176" width="16" height="16" fill="#939393"/>
<rect x="192" y="192" width="16" height="16" fill="white"/>
<rect x="192" y="208" width="16" height="16" fill="#8AB99D"/>
<rect x="192" y="224" width="16" height="16" fill="#D9D9D9"/>
<rect x="208" width="16" height="16" fill="#D9D9D9"/>
<rect x="208" y="16" width="16" height="16" fill="#939393"/>
<rect x="208" y="32" width="16" height="16" fill="#939393"/>
<rect x="208" y="48" width="16" height="16" fill="#939393"/>
<rect x="208" y="64" width="16" height="16" fill="#939393"/>
<rect x="208" y="80" width="16" height="16" fill="#939393"/>
<rect x="208" y="96" width="16" height="16" fill="#939393"/>
<rect x="208" y="112" width="16" height="16" fill="#939393"/>
<rect x="208" y="128" width="16" height="16" fill="#939393"/>
<rect x="208" y="144" width="16" height="16" fill="#939393"/>
<rect x="208" y="160" width="16" height="16" fill="#939393"/>
<rect x="208" y="176" width="16" height="16" fill="#939393"/>
<rect x="208" y="192" width="16" height="16" fill="white"/>
<rect x="208" y="208" width="16" height="16" fill="#8AB99D"/>
<rect x="208" y="224" width="16" height="16" fill="#D9D9D9"/>
<rect x="224" width="16" height="16" fill="#D9D9D9"/>
<rect x="224" y="16" width="16" height="16" fill="#939393"/>
<rect x="224" y="32" width="16" height="16" fill="#939393"/>
<rect x="224" y="48" width="16" height="16" fill="#939393"/>
<rect x="224" y="64" width="16" height="16" fill="#939393"/>
<rect x="224" y="80" width="16" height="16" fill="#939393"/>
<rect x="224" y="96" width="16" height="16" fill="#939393"/>
<rect x="224" y="112" width="16" height="16" fill="#939393"/>
<rect x="224" y="128" width="16" height="16" fill="#939393"/>
<rect x="224" y="144" width="16" height="16" fill="#939393"/>
<rect x="224" y="160" width="16" height="16" fill="#939393"/>
<rect x="224" y="176" width="16" height="16" fill="#939393"/>
<rect x="224" y="192" width="16" height="16" fill="white"/>
<rect x="224" y="208" width="16" height="16" fill="#8AB99D"/>
<rect x="224" y="224" width="16" height="16" fill="#D9D9D9"/>
<rect x="240" width="16" height="16" fill="#D9D9D9"/>
<rect x="240" y="16" width="16" height="16" fill="#939393"/>
<rect x="240" y="32" width="16" height="16" fill="#939393"/>
<rect x="240" y="48" width="16" height="16" fill="#939393"/>
<rect x="240" y="64" width="16" height="16" fill="#939393"/>
<rect x="240" y="80" width="16" height="16" fill="#939393"/>
<rect x="240" y="96" width="16" height="16" fill="#939393"/>
<rect x="240" y="112" width="16" height="16" fill="#939393"/>
<rect x="240" y="128" width="16" height="16" fill="#939393"/>
<rect x="240" y="144" width="16" height="16" fill="#939393"/>
<rect x="240" y="160" width="16" height="16" fill="#939393"/>
<rect x="240" y="176" width="16" height="16" fill="#939393"/>
<rect x="240" y="192" width="16" height="16" fill="white"/>
<rect x="240" y="208" width="16" height="16" fill="#8AB99D"/>
<rect x="240" y="224" width="16" height="16" fill="#D9D9D9"/>
<rect x="256" width="16" height="16" fill="#D9D9D9"/>
<rect x="256" y="16" width="16" height="16" fill="white"/>
<rect x="256" y="32" width="16" height="16" fill="white"/>
<rect x="256" y="48" width="16" height="16" fill="white"/>
<rect x="256" y="64" width="16" height="16" fill="white"/>
<rect x="256" y="80" width="16" height="16" fill="white"/>
<rect x="256" y="96" width="16" height="16" fill="white"/>
<rect x="256" y="112" width="16" height="16" fill="white"/>
<rect x="256" y="128" width="16" height="16" fill="white"/>
<rect x="256" y="144" width="16" height="16" fill="white"/>
<rect x="256" y="160" width="16" height="16" fill="white"/>
<rect x="256" y="176" width="16" height="16" fill="white"/>
<rect x="256" y="192" width="16" height="16" fill="white"/>
<rect x="256" y="208" width="16" height="16" fill="white"/>
<rect x="256" y="224" width="16" height="16" fill="#D9D9D9"/>
<rect x="272" width="16" height="16" fill="#D9D9D9"/>
<rect x="272" y="16" width="16" height="16" fill="#952525" fill-opacity="0.2"/>
<rect x="272" y="32" width="16" height="16" fill="#952525" fill-opacity="0.2"/>
<rect x="272" y="48" width="16" height="16" fill="#952525" fill-opacity="0.2"/>
<rect x="272" y="64" width="16" height="16" fill="#952525" fill-opacity="0.2"/>
<rect x="272" y="80" width="16" height="16" fill="#952525" fill-opacity="0.2"/>
<rect x="272" y="96" width="16" height="16" fill="#952525" fill-opacity="0.2"/>
<rect x="272" y="112" width="16" height="16" fill="#952525" fill-opacity="0.2"/>
<rect x="272" y="128" width="16" height="16" fill="#952525" fill-opacity="0.2"/>
<rect x="272" y="144" width="16" height="16" fill="#952525" fill-opacity="0.2"/>
<rect x="272" y="160" width="16" height="16" fill="#952525" fill-opacity="0.2"/>
<rect x="272" y="176" width="16" height="16" fill="#952525" fill-opacity="0.2"/>
<rect x="272" y="192" width="16" height="16" fill="#952525" fill-opacity="0.2"/>
<rect x="272" y="208" width="16" height="16" fill="#952525" fill-opacity="0.2"/>
<rect x="272" y="224" width="16" height="16" fill="#D9D9D9"/>
<rect x="288" width="16" height="16" fill="#D9D9D9"/>
<rect x="288" y="16" width="16" height="16" fill="#952525" fill-opacity="0.2"/>
<rect x="288" y="32" width="16" height="16" fill="#952525" fill-opacity="0.2"/>
<rect x="288" y="48" width="16" height="16" fill="#952525" fill-opacity="0.2"/>
<rect x="288" y="64" width="16" height="16" fill="#952525" fill-opacity="0.2"/>
<rect x="288" y="80" width="16" height="16" fill="#952525" fill-opacity="0.2"/>
<rect x="288" y="96" width="16" height="16" fill="#952525" fill-opacity="0.2"/>
<rect x="288" y="112" width="16" height="16" fill="#952525" fill-opacity="0.2"/>
<rect x="288" y="128" width="16" height="16" fill="#952525" fill-opacity="0.2"/>
<rect x="288" y="144" width="16" height="16" fill="#952525" fill-opacity="0.2"/>
<rect x="288" y="160" width="16" height="16" fill="#952525" fill-opacity="0.2"/>
<rect x="288" y="176" width="16" height="16" fill="#952525" fill-opacity="0.2"/>
<rect x="288" y="192" width="16" height="16" fill="#952525" fill-opacity="0.2"/>
<rect x="288" y="208" width="16" height="16" fill="#952525" fill-opacity="0.2"/>
<rect x="288" y="224" width="16" height="16" fill="#D9D9D9"/>
<rect x="304" width="16" height="16" fill="#D9D9D9"/>
<rect x="304" y="16" width="16" height="16" fill="#D9D9D9"/>
<rect x="304" y="32" width="16" height="16" fill="#D9D9D9"/>
<rect x="304" y="48" width="16" height="16" fill="#D9D9D9"/>
<rect x="304" y="64" width="16" height="16" fill="#D9D9D9"/>
<rect x="304" y="80" width="16" height="16" fill="#D9D9D9"/>
<rect x="304" y="96" width="16" height="16" fill="#D9D9D9"/>
<rect x="304" y="112" width="16" height="16" fill="#D9D9D9"/>
<rect x="304" y="128" width="16" height="16" fill="#D9D9D9"/>
<rect x="304" y="144" width="16" height="16" fill="#D9D9D9"/>
<rect x="304" y="160" width="16" height="16" fill="#D9D9D9"/>
<rect x="304" y="176" width="16" height="16" fill="#D9D9D9"/>
<rect x="304" y="192" width="16" height="16" fill="#D9D9D9"/>
<rect x="304" y="208" width="16" height="16" fill="#D9D9D9"/>
<rect x="304" y="224" width="16" height="16" fill="#D9D9D9"/>
<path d="M98.2559 213.395H95.6191V221H94.5645V213.395H91.9277V212.469H98.2559V213.395ZM103.875 221C103.832 220.918 103.797 220.816 103.77 220.695C103.746 220.57 103.729 220.441 103.717 220.309C103.607 220.418 103.484 220.521 103.348 220.619C103.215 220.717 103.068 220.803 102.908 220.877C102.744 220.951 102.57 221.01 102.387 221.053C102.203 221.096 102.008 221.117 101.801 221.117C101.465 221.117 101.16 221.068 100.887 220.971C100.617 220.873 100.389 220.74 100.201 220.572C100.01 220.408 99.8613 220.213 99.7559 219.986C99.6543 219.756 99.6035 219.508 99.6035 219.242C99.6035 218.895 99.6719 218.59 99.8086 218.328C99.9492 218.066 100.146 217.848 100.4 217.672C100.654 217.5 100.959 217.371 101.314 217.285C101.674 217.199 102.074 217.156 102.516 217.156H103.699V216.658C103.699 216.467 103.664 216.295 103.594 216.143C103.523 215.99 103.424 215.859 103.295 215.75C103.166 215.645 103.008 215.562 102.82 215.504C102.637 215.445 102.43 215.416 102.199 215.416C101.984 215.416 101.791 215.443 101.619 215.498C101.451 215.553 101.309 215.625 101.191 215.715C101.074 215.805 100.982 215.912 100.916 216.037C100.854 216.158 100.822 216.285 100.822 216.418H99.7324C99.7363 216.188 99.7949 215.961 99.9082 215.738C100.025 215.516 100.193 215.314 100.412 215.135C100.627 214.959 100.889 214.816 101.197 214.707C101.51 214.598 101.863 214.543 102.258 214.543C102.617 214.543 102.951 214.588 103.26 214.678C103.568 214.764 103.836 214.895 104.062 215.07C104.285 215.25 104.461 215.473 104.59 215.738C104.719 216.004 104.783 216.314 104.783 216.67V219.617C104.783 219.828 104.803 220.053 104.842 220.291C104.881 220.525 104.936 220.73 105.006 220.906V221H103.875ZM101.959 220.174C102.17 220.174 102.367 220.146 102.551 220.092C102.734 220.037 102.902 219.965 103.055 219.875C103.203 219.785 103.332 219.684 103.441 219.57C103.551 219.453 103.637 219.332 103.699 219.207V217.924H102.691C102.316 217.924 101.988 217.957 101.707 218.023C101.43 218.086 101.209 218.184 101.045 218.316C100.928 218.41 100.838 218.521 100.775 218.65C100.717 218.779 100.688 218.926 100.688 219.09C100.688 219.246 100.713 219.391 100.764 219.523C100.818 219.656 100.898 219.77 101.004 219.863C101.109 219.961 101.242 220.037 101.402 220.092C101.562 220.146 101.748 220.174 101.959 220.174ZM112.289 217.9C112.289 218.178 112.268 218.445 112.225 218.703C112.186 218.957 112.127 219.195 112.049 219.418C111.943 219.711 111.805 219.975 111.633 220.209C111.465 220.439 111.262 220.631 111.023 220.783C110.852 220.889 110.662 220.971 110.455 221.029C110.252 221.088 110.031 221.117 109.793 221.117C109.52 221.117 109.27 221.084 109.043 221.018C108.82 220.951 108.619 220.855 108.439 220.73C108.354 220.668 108.271 220.6 108.193 220.525C108.115 220.451 108.041 220.369 107.971 220.279L107.918 221H106.922V212H108.006V215.34C108.096 215.227 108.195 215.125 108.305 215.035C108.414 214.941 108.531 214.861 108.656 214.795C108.812 214.713 108.984 214.65 109.172 214.607C109.359 214.564 109.562 214.543 109.781 214.543C110.055 214.543 110.307 214.58 110.537 214.654C110.768 214.729 110.977 214.832 111.164 214.965C111.332 215.09 111.482 215.242 111.615 215.422C111.748 215.598 111.865 215.795 111.967 216.014C112.072 216.26 112.152 216.533 112.207 216.834C112.262 217.131 112.289 217.445 112.289 217.777V217.9ZM111.205 217.777C111.205 217.578 111.191 217.385 111.164 217.197C111.141 217.006 111.104 216.826 111.053 216.658C110.982 216.451 110.891 216.262 110.777 216.09C110.664 215.918 110.525 215.783 110.361 215.686C110.248 215.615 110.121 215.561 109.98 215.521C109.84 215.482 109.684 215.463 109.512 215.463C109.324 215.463 109.152 215.488 108.996 215.539C108.84 215.586 108.701 215.652 108.58 215.738C108.455 215.828 108.344 215.934 108.246 216.055C108.152 216.172 108.072 216.301 108.006 216.441V219.213C108.076 219.354 108.158 219.484 108.252 219.605C108.35 219.723 108.461 219.826 108.586 219.916C108.711 220.006 108.852 220.076 109.008 220.127C109.164 220.174 109.336 220.197 109.523 220.197C109.703 220.197 109.867 220.176 110.016 220.133C110.164 220.086 110.297 220.02 110.414 219.934C110.57 219.824 110.701 219.686 110.807 219.518C110.912 219.35 110.996 219.162 111.059 218.955C111.109 218.799 111.146 218.631 111.17 218.451C111.193 218.271 111.205 218.088 111.205 217.9V217.777ZM125.402 218.791H122.555L121.869 221H120.785L123.539 212.469H124.447L127.154 221H126.076L125.402 218.791ZM122.848 217.848H125.115L123.99 214.145L122.848 217.848Z" fill="black"/>
<path d="M194.256 213.395H191.619V221H190.564V213.395H187.928V212.469H194.256V213.395ZM199.875 221C199.832 220.918 199.797 220.816 199.77 220.695C199.746 220.57 199.729 220.441 199.717 220.309C199.607 220.418 199.484 220.521 199.348 220.619C199.215 220.717 199.068 220.803 198.908 220.877C198.744 220.951 198.57 221.01 198.387 221.053C198.203 221.096 198.008 221.117 197.801 221.117C197.465 221.117 197.16 221.068 196.887 220.971C196.617 220.873 196.389 220.74 196.201 220.572C196.01 220.408 195.861 220.213 195.756 219.986C195.654 219.756 195.604 219.508 195.604 219.242C195.604 218.895 195.672 218.59 195.809 218.328C195.949 218.066 196.146 217.848 196.4 217.672C196.654 217.5 196.959 217.371 197.314 217.285C197.674 217.199 198.074 217.156 198.516 217.156H199.699V216.658C199.699 216.467 199.664 216.295 199.594 216.143C199.523 215.99 199.424 215.859 199.295 215.75C199.166 215.645 199.008 215.562 198.82 215.504C198.637 215.445 198.43 215.416 198.199 215.416C197.984 215.416 197.791 215.443 197.619 215.498C197.451 215.553 197.309 215.625 197.191 215.715C197.074 215.805 196.982 215.912 196.916 216.037C196.854 216.158 196.822 216.285 196.822 216.418H195.732C195.736 216.188 195.795 215.961 195.908 215.738C196.025 215.516 196.193 215.314 196.412 215.135C196.627 214.959 196.889 214.816 197.197 214.707C197.51 214.598 197.863 214.543 198.258 214.543C198.617 214.543 198.951 214.588 199.26 214.678C199.568 214.764 199.836 214.895 200.062 215.07C200.285 215.25 200.461 215.473 200.59 215.738C200.719 216.004 200.783 216.314 200.783 216.67V219.617C200.783 219.828 200.803 220.053 200.842 220.291C200.881 220.525 200.936 220.73 201.006 220.906V221H199.875ZM197.959 220.174C198.17 220.174 198.367 220.146 198.551 220.092C198.734 220.037 198.902 219.965 199.055 219.875C199.203 219.785 199.332 219.684 199.441 219.57C199.551 219.453 199.637 219.332 199.699 219.207V217.924H198.691C198.316 217.924 197.988 217.957 197.707 218.023C197.43 218.086 197.209 218.184 197.045 218.316C196.928 218.41 196.838 218.521 196.775 218.65C196.717 218.779 196.688 218.926 196.688 219.09C196.688 219.246 196.713 219.391 196.764 219.523C196.818 219.656 196.898 219.77 197.004 219.863C197.109 219.961 197.242 220.037 197.402 220.092C197.562 220.146 197.748 220.174 197.959 220.174ZM208.289 217.9C208.289 218.178 208.268 218.445 208.225 218.703C208.186 218.957 208.127 219.195 208.049 219.418C207.943 219.711 207.805 219.975 207.633 220.209C207.465 220.439 207.262 220.631 207.023 220.783C206.852 220.889 206.662 220.971 206.455 221.029C206.252 221.088 206.031 221.117 205.793 221.117C205.52 221.117 205.27 221.084 205.043 221.018C204.82 220.951 204.619 220.855 204.439 220.73C204.354 220.668 204.271 220.6 204.193 220.525C204.115 220.451 204.041 220.369 203.971 220.279L203.918 221H202.922V212H204.006V215.34C204.096 215.227 204.195 215.125 204.305 215.035C204.414 214.941 204.531 214.861 204.656 214.795C204.812 214.713 204.984 214.65 205.172 214.607C205.359 214.564 205.562 214.543 205.781 214.543C206.055 214.543 206.307 214.58 206.537 214.654C206.768 214.729 206.977 214.832 207.164 214.965C207.332 215.09 207.482 215.242 207.615 215.422C207.748 215.598 207.865 215.795 207.967 216.014C208.072 216.26 208.152 216.533 208.207 216.834C208.262 217.131 208.289 217.445 208.289 217.777V217.9ZM207.205 217.777C207.205 217.578 207.191 217.385 207.164 217.197C207.141 217.006 207.104 216.826 207.053 216.658C206.982 216.451 206.891 216.262 206.777 216.09C206.664 215.918 206.525 215.783 206.361 215.686C206.248 215.615 206.121 215.561 205.98 215.521C205.84 215.482 205.684 215.463 205.512 215.463C205.324 215.463 205.152 215.488 204.996 215.539C204.84 215.586 204.701 215.652 204.58 215.738C204.455 215.828 204.344 215.934 204.246 216.055C204.152 216.172 204.072 216.301 204.006 216.441V219.213C204.076 219.354 204.158 219.484 204.252 219.605C204.35 219.723 204.461 219.826 204.586 219.916C204.711 220.006 204.852 220.076 205.008 220.127C205.164 220.174 205.336 220.197 205.523 220.197C205.703 220.197 205.867 220.176 206.016 220.133C206.164 220.086 206.297 220.02 206.414 219.934C206.57 219.824 206.701 219.686 206.807 219.518C206.912 219.35 206.996 219.162 207.059 218.955C207.109 218.799 207.146 218.631 207.17 218.451C207.193 218.271 207.205 218.088 207.205 217.9V217.777ZM217.318 221V212.469H219.855C220.207 212.473 220.551 212.52 220.887 212.609C221.223 212.695 221.521 212.83 221.783 213.014C222.045 213.197 222.254 213.432 222.41 213.717C222.566 214.002 222.643 214.344 222.639 214.742C222.635 214.965 222.598 215.168 222.527 215.352C222.461 215.535 222.369 215.699 222.252 215.844C222.131 215.992 221.996 216.117 221.848 216.219C221.703 216.32 221.527 216.416 221.32 216.506V216.523C221.535 216.574 221.742 216.666 221.941 216.799C222.141 216.932 222.305 217.078 222.434 217.238C222.57 217.414 222.676 217.611 222.75 217.83C222.828 218.049 222.867 218.285 222.867 218.539C222.871 218.938 222.795 219.289 222.639 219.594C222.482 219.898 222.273 220.152 222.012 220.355C221.75 220.562 221.447 220.721 221.104 220.83C220.764 220.939 220.412 220.996 220.049 221H217.318ZM218.408 217.01V220.08H220.078C220.305 220.076 220.52 220.039 220.723 219.969C220.926 219.895 221.105 219.793 221.262 219.664C221.418 219.535 221.541 219.377 221.631 219.189C221.725 219.002 221.771 218.789 221.771 218.551C221.775 218.309 221.734 218.094 221.648 217.906C221.566 217.719 221.451 217.559 221.303 217.426C221.154 217.297 220.98 217.197 220.781 217.127C220.582 217.057 220.367 217.018 220.137 217.01H218.408ZM218.408 216.107H219.92C220.123 216.104 220.322 216.072 220.518 216.014C220.713 215.951 220.887 215.861 221.039 215.744C221.191 215.631 221.314 215.49 221.408 215.322C221.502 215.154 221.549 214.959 221.549 214.736C221.549 214.498 221.502 214.295 221.408 214.127C221.318 213.959 221.197 213.82 221.045 213.711C220.889 213.605 220.709 213.527 220.506 213.477C220.307 213.426 220.102 213.398 219.891 213.395H218.408V216.107Z" fill="black"/>
<path d="M161.488 106.791H158.641L157.955 109H156.871L159.625 100.469H160.533L163.24 109H162.162L161.488 106.791ZM158.934 105.848H161.201L160.076 102.145L158.934 105.848Z" fill="black"/>
</g>
<defs>
<clipPath id="clip0_1_8719">
<rect width="320" height="240" fill="white"/>
</clipPath>
</defs>
</svg>
