<svg width="320" height="240" viewBox="0 0 320 240" fill="none" xmlns="http://www.w3.org/2000/svg">
<g clip-path="url(#clip0_1_1176)">
<rect width="320" height="240" fill="white"/>
<rect width="16" height="16" fill="#D9D9D9"/>
<rect y="16" width="16" height="16" fill="#D9D9D9"/>
<rect y="32" width="16" height="16" fill="#D9D9D9"/>
<rect y="48" width="16" height="16" fill="#D9D9D9"/>
<rect y="64" width="16" height="16" fill="#D9D9D9"/>
<rect y="80" width="16" height="16" fill="#D9D9D9"/>
<rect y="96" width="16" height="16" fill="#D9D9D9"/>
<rect y="112" width="16" height="16" fill="#D9D9D9"/>
<rect y="128" width="16" height="16" fill="#D9D9D9"/>
<rect y="144" width="16" height="16" fill="#D9D9D9"/>
<rect y="160" width="16" height="16" fill="#D9D9D9"/>
<rect y="176" width="16" height="16" fill="#D9D9D9"/>
<rect y="192" width="16" height="16" fill="#D9D9D9"/>
<rect y="208" width="16" height="16" fill="#D9D9D9"/>
<rect y="224" width="16" height="16" fill="#D9D9D9"/>
<rect x="16" width="16" height="16" fill="#D9D9D9"/>
<rect x="16" y="16" width="16" height="16" fill="#84D5CA" fill-opacity="0.26"/>
<rect x="16" y="32" width="16" height="16" fill="#84D5CA" fill-opacity="0.26"/>
<rect x="16" y="48" width="16" height="16" fill="white"/>
<rect x="16" y="64" width="16" height="16" fill="white"/>
<rect x="16" y="80" width="16" height="16" fill="white"/>
<rect x="16" y="96" width="16" height="16" fill="white"/>
<rect x="16" y="112" width="16" height="16" fill="white"/>
<rect x="16" y="128" width="16" height="16" fill="white"/>
<rect x="16" y="144" width="16" height="16" fill="white"/>
<rect x="16" y="160" width="16" height="16" fill="white"/>
<rect x="16" y="176" width="16" height="16" fill="white"/>
<rect x="16" y="192" width="16" height="16" fill="#A4BF51" fill-opacity="0.21"/>
<rect x="16" y="208" width="16" height="16" fill="#A4BF51" fill-opacity="0.21"/>
<rect x="16" y="224" width="16" height="16" fill="#D9D9D9"/>
<rect x="32" width="16" height="16" fill="#D9D9D9"/>
<rect x="32" y="16" width="16" height="16" fill="#84D5CA" fill-opacity="0.26"/>
<rect x="32" y="32" width="16" height="16" fill="#84D5CA" fill-opacity="0.26"/>
<rect x="32" y="48" width="16" height="16" fill="white"/>
<rect x="32" y="64" width="16" height="16" fill="white"/>
<rect x="32" y="80" width="16" height="16" fill="white"/>
<rect x="32" y="96" width="16" height="16" fill="white"/>
<rect x="32" y="112" width="16" height="16" fill="white"/>
<rect x="32" y="128" width="16" height="16" fill="white"/>
<rect x="32" y="144" width="16" height="16" fill="white"/>
<rect x="32" y="160" width="16" height="16" fill="white"/>
<rect x="32" y="176" width="16" height="16" fill="white"/>
<rect x="32" y="192" width="16" height="16" fill="#A4BF51" fill-opacity="0.21"/>
<rect x="32" y="208" width="16" height="16" fill="#A4BF51" fill-opacity="0.21"/>
<rect x="32" y="224" width="16" height="16" fill="#D9D9D9"/>
<rect x="48" width="16" height="16" fill="#D9D9D9"/>
<rect x="48" y="16" width="16" height="16" fill="#84D5CA" fill-opacity="0.26"/>
<rect x="48" y="32" width="16" height="16" fill="#84D5CA" fill-opacity="0.26"/>
<rect x="48" y="48" width="16" height="16" fill="white"/>
<rect x="48" y="64" width="16" height="16" fill="white"/>
<rect x="48" y="80" width="16" height="16" fill="white"/>
<rect x="48" y="96" width="16" height="16" fill="white"/>
<rect x="48" y="112" width="16" height="16" fill="white"/>
<rect x="48" y="128" width="16" height="16" fill="white"/>
<rect x="48" y="144" width="16" height="16" fill="white"/>
<rect x="48" y="160" width="16" height="16" fill="white"/>
<rect x="48" y="176" width="16" height="16" fill="white"/>
<rect x="48" y="192" width="16" height="16" fill="#A4BF51" fill-opacity="0.21"/>
<rect x="48" y="208" width="16" height="16" fill="#A4BF51" fill-opacity="0.21"/>
<rect x="48" y="224" width="16" height="16" fill="#D9D9D9"/>
<rect x="64" width="16" height="16" fill="#D9D9D9"/>
<rect x="64" y="16" width="16" height="16" fill="#84D5CA" fill-opacity="0.26"/>
<rect x="64" y="32" width="16" height="16" fill="#84D5CA" fill-opacity="0.26"/>
<rect x="64" y="48" width="16" height="16" fill="white"/>
<rect x="64" y="64" width="16" height="16" fill="white"/>
<rect x="64" y="80" width="16" height="16" fill="white"/>
<rect x="64" y="96" width="16" height="16" fill="white"/>
<rect x="64" y="112" width="16" height="16" fill="white"/>
<rect x="64" y="128" width="16" height="16" fill="white"/>
<rect x="64" y="144" width="16" height="16" fill="white"/>
<rect x="64" y="160" width="16" height="16" fill="white"/>
<rect x="64" y="176" width="16" height="16" fill="white"/>
<rect x="64" y="192" width="16" height="16" fill="#A4BF51" fill-opacity="0.21"/>
<rect x="64" y="208" width="16" height="16" fill="#A4BF51" fill-opacity="0.21"/>
<rect x="64" y="224" width="16" height="16" fill="#D9D9D9"/>
<rect x="80" width="16" height="16" fill="#D9D9D9"/>
<rect x="80" y="16" width="16" height="16" fill="#84D5CA" fill-opacity="0.26"/>
<rect x="80" y="32" width="16" height="16" fill="#84D5CA" fill-opacity="0.26"/>
<rect x="80" y="48" width="16" height="16" fill="white"/>
<rect x="80" y="64" width="16" height="16" fill="white"/>
<rect x="80" y="80" width="16" height="16" fill="white"/>
<rect x="80" y="96" width="16" height="16" fill="white"/>
<rect x="80" y="112" width="16" height="16" fill="white"/>
<rect x="80" y="128" width="16" height="16" fill="white"/>
<rect x="80" y="144" width="16" height="16" fill="white"/>
<rect x="80" y="160" width="16" height="16" fill="white"/>
<rect x="80" y="176" width="16" height="16" fill="white"/>
<rect x="80" y="192" width="16" height="16" fill="#A4BF51" fill-opacity="0.21"/>
<rect x="80" y="208" width="16" height="16" fill="#A4BF51" fill-opacity="0.21"/>
<rect x="80" y="224" width="16" height="16" fill="#D9D9D9"/>
<rect x="96" width="16" height="16" fill="#D9D9D9"/>
<rect x="96" y="16" width="16" height="16" fill="#84D5CA" fill-opacity="0.26"/>
<rect x="96" y="32" width="16" height="16" fill="#84D5CA" fill-opacity="0.26"/>
<rect x="96" y="48" width="16" height="16" fill="white"/>
<rect x="96" y="64" width="16" height="16" fill="white"/>
<rect x="96" y="80" width="16" height="16" fill="white"/>
<rect x="96" y="96" width="16" height="16" fill="white"/>
<rect x="96" y="112" width="16" height="16" fill="white"/>
<rect x="96" y="128" width="16" height="16" fill="white"/>
<rect x="96" y="144" width="16" height="16" fill="white"/>
<rect x="96" y="160" width="16" height="16" fill="white"/>
<rect x="96" y="176" width="16" height="16" fill="white"/>
<rect x="96" y="192" width="16" height="16" fill="#A4BF51" fill-opacity="0.21"/>
<rect x="96" y="208" width="16" height="16" fill="#A4BF51" fill-opacity="0.21"/>
<rect x="96" y="224" width="16" height="16" fill="#D9D9D9"/>
<rect x="112" width="16" height="16" fill="#D9D9D9"/>
<rect x="112" y="16" width="16" height="16" fill="#84D5CA" fill-opacity="0.26"/>
<rect x="112" y="32" width="16" height="16" fill="#84D5CA" fill-opacity="0.26"/>
<rect x="112" y="48" width="16" height="16" fill="white"/>
<rect x="112" y="64" width="16" height="16" fill="white"/>
<rect x="112" y="80" width="16" height="16" fill="white"/>
<rect x="112" y="96" width="16" height="16" fill="white"/>
<rect x="112" y="112" width="16" height="16" fill="white"/>
<rect x="112" y="128" width="16" height="16" fill="white"/>
<rect x="112" y="144" width="16" height="16" fill="white"/>
<rect x="112" y="160" width="16" height="16" fill="white"/>
<rect x="112" y="176" width="16" height="16" fill="white"/>
<rect x="112" y="192" width="16" height="16" fill="#A4BF51" fill-opacity="0.21"/>
<rect x="112" y="208" width="16" height="16" fill="#A4BF51" fill-opacity="0.21"/>
<rect x="112" y="224" width="16" height="16" fill="#D9D9D9"/>
<rect x="128" width="16" height="16" fill="#D9D9D9"/>
<rect x="128" y="16" width="16" height="16" fill="#84D5CA" fill-opacity="0.26"/>
<rect x="128" y="32" width="16" height="16" fill="#84D5CA" fill-opacity="0.26"/>
<rect x="128" y="48" width="16" height="16" fill="white"/>
<rect x="128" y="64" width="16" height="16" fill="white"/>
<rect x="128" y="80" width="16" height="16" fill="white"/>
<rect x="128" y="96" width="16" height="16" fill="white"/>
<rect x="128" y="112" width="16" height="16" fill="white"/>
<rect x="128" y="128" width="16" height="16" fill="white"/>
<rect x="128" y="144" width="16" height="16" fill="white"/>
<rect x="128" y="160" width="16" height="16" fill="white"/>
<rect x="128" y="176" width="16" height="16" fill="white"/>
<rect x="128" y="192" width="16" height="16" fill="#A4BF51" fill-opacity="0.21"/>
<rect x="128" y="208" width="16" height="16" fill="#A4BF51" fill-opacity="0.21"/>
<rect x="128" y="224" width="16" height="16" fill="#D9D9D9"/>
<rect x="144" width="16" height="16" fill="#D9D9D9"/>
<rect x="144" y="16" width="16" height="16" fill="#84D5CA" fill-opacity="0.26"/>
<rect x="144" y="32" width="16" height="16" fill="#84D5CA" fill-opacity="0.26"/>
<rect x="144" y="48" width="16" height="16" fill="white"/>
<rect x="144" y="64" width="16" height="16" fill="white"/>
<rect x="144" y="80" width="16" height="16" fill="white"/>
<rect x="144" y="96" width="16" height="16" fill="white"/>
<rect x="144" y="112" width="16" height="16" fill="white"/>
<rect x="144" y="128" width="16" height="16" fill="white"/>
<rect x="144" y="144" width="16" height="16" fill="white"/>
<rect x="144" y="160" width="16" height="16" fill="white"/>
<rect x="144" y="176" width="16" height="16" fill="white"/>
<rect x="144" y="192" width="16" height="16" fill="#A4BF51" fill-opacity="0.21"/>
<rect x="144" y="208" width="16" height="16" fill="#A4BF51" fill-opacity="0.21"/>
<rect x="144" y="224" width="16" height="16" fill="#D9D9D9"/>
<rect x="160" width="16" height="16" fill="#D9D9D9"/>
<rect x="160" y="16" width="16" height="16" fill="#84D5CA" fill-opacity="0.26"/>
<rect x="160" y="32" width="16" height="16" fill="#84D5CA" fill-opacity="0.26"/>
<rect x="160" y="48" width="16" height="16" fill="white"/>
<rect x="160" y="64" width="16" height="16" fill="white"/>
<rect x="160" y="80" width="16" height="16" fill="white"/>
<rect x="160" y="96" width="16" height="16" fill="white"/>
<rect x="160" y="112" width="16" height="16" fill="white"/>
<rect x="160" y="128" width="16" height="16" fill="white"/>
<rect x="160" y="144" width="16" height="16" fill="white"/>
<rect x="160" y="160" width="16" height="16" fill="white"/>
<rect x="160" y="176" width="16" height="16" fill="white"/>
<rect x="160" y="192" width="16" height="16" fill="#A4BF51" fill-opacity="0.21"/>
<rect x="160" y="208" width="16" height="16" fill="#A4BF51" fill-opacity="0.21"/>
<rect x="160" y="224" width="16" height="16" fill="#D9D9D9"/>
<rect x="176" width="16" height="16" fill="#D9D9D9"/>
<rect x="176" y="16" width="16" height="16" fill="#84D5CA" fill-opacity="0.26"/>
<rect x="176" y="32" width="16" height="16" fill="#84D5CA" fill-opacity="0.26"/>
<rect x="176" y="48" width="16" height="16" fill="white"/>
<rect x="176" y="64" width="16" height="16" fill="white"/>
<rect x="176" y="80" width="16" height="16" fill="white"/>
<rect x="176" y="96" width="16" height="16" fill="white"/>
<rect x="176" y="112" width="16" height="16" fill="white"/>
<rect x="176" y="128" width="16" height="16" fill="white"/>
<rect x="176" y="144" width="16" height="16" fill="white"/>
<rect x="176" y="160" width="16" height="16" fill="white"/>
<rect x="176" y="176" width="16" height="16" fill="white"/>
<rect x="176" y="192" width="16" height="16" fill="#A4BF51" fill-opacity="0.21"/>
<rect x="176" y="208" width="16" height="16" fill="#A4BF51" fill-opacity="0.21"/>
<rect x="176" y="224" width="16" height="16" fill="#D9D9D9"/>
<rect x="192" width="16" height="16" fill="#D9D9D9"/>
<rect x="192" y="16" width="16" height="16" fill="#84D5CA" fill-opacity="0.26"/>
<rect x="192" y="32" width="16" height="16" fill="#84D5CA" fill-opacity="0.26"/>
<rect x="192" y="48" width="16" height="16" fill="white"/>
<rect x="192" y="64" width="16" height="16" fill="white"/>
<rect x="192" y="80" width="16" height="16" fill="white"/>
<rect x="192" y="96" width="16" height="16" fill="white"/>
<rect x="192" y="112" width="16" height="16" fill="white"/>
<rect x="192" y="128" width="16" height="16" fill="white"/>
<rect x="192" y="144" width="16" height="16" fill="white"/>
<rect x="192" y="160" width="16" height="16" fill="white"/>
<rect x="192" y="176" width="16" height="16" fill="white"/>
<rect x="192" y="192" width="16" height="16" fill="#A4BF51" fill-opacity="0.21"/>
<rect x="192" y="208" width="16" height="16" fill="#A4BF51" fill-opacity="0.21"/>
<rect x="192" y="224" width="16" height="16" fill="#D9D9D9"/>
<rect x="208" width="16" height="16" fill="#D9D9D9"/>
<rect x="208" y="16" width="16" height="16" fill="#84D5CA" fill-opacity="0.26"/>
<rect x="208" y="32" width="16" height="16" fill="#84D5CA" fill-opacity="0.26"/>
<rect x="208" y="48" width="16" height="16" fill="white"/>
<rect x="208" y="64" width="16" height="16" fill="white"/>
<rect x="208" y="80" width="16" height="16" fill="white"/>
<rect x="208" y="96" width="16" height="16" fill="white"/>
<rect x="208" y="112" width="16" height="16" fill="white"/>
<rect x="208" y="128" width="16" height="16" fill="white"/>
<rect x="208" y="144" width="16" height="16" fill="white"/>
<rect x="208" y="160" width="16" height="16" fill="white"/>
<rect x="208" y="176" width="16" height="16" fill="white"/>
<rect x="208" y="192" width="16" height="16" fill="#A4BF51" fill-opacity="0.21"/>
<rect x="208" y="208" width="16" height="16" fill="#A4BF51" fill-opacity="0.21"/>
<rect x="208" y="224" width="16" height="16" fill="#D9D9D9"/>
<rect x="224" width="16" height="16" fill="#D9D9D9"/>
<rect x="224" y="16" width="16" height="16" fill="#84D5CA" fill-opacity="0.26"/>
<rect x="224" y="32" width="16" height="16" fill="#84D5CA" fill-opacity="0.26"/>
<rect x="224" y="48" width="16" height="16" fill="white"/>
<rect x="224" y="64" width="16" height="16" fill="white"/>
<rect x="224" y="80" width="16" height="16" fill="white"/>
<rect x="224" y="96" width="16" height="16" fill="white"/>
<rect x="224" y="112" width="16" height="16" fill="white"/>
<rect x="224" y="128" width="16" height="16" fill="white"/>
<rect x="224" y="144" width="16" height="16" fill="white"/>
<rect x="224" y="160" width="16" height="16" fill="white"/>
<rect x="224" y="176" width="16" height="16" fill="white"/>
<rect x="224" y="192" width="16" height="16" fill="#A4BF51" fill-opacity="0.21"/>
<rect x="224" y="208" width="16" height="16" fill="#A4BF51" fill-opacity="0.21"/>
<rect x="224" y="224" width="16" height="16" fill="#D9D9D9"/>
<rect x="240" width="16" height="16" fill="#D9D9D9"/>
<rect x="240" y="16" width="16" height="16" fill="#84D5CA" fill-opacity="0.26"/>
<rect x="240" y="32" width="16" height="16" fill="#84D5CA" fill-opacity="0.26"/>
<rect x="240" y="48" width="16" height="16" fill="white"/>
<rect x="240" y="64" width="16" height="16" fill="white"/>
<rect x="240" y="80" width="16" height="16" fill="white"/>
<rect x="240" y="96" width="16" height="16" fill="white"/>
<rect x="240" y="112" width="16" height="16" fill="white"/>
<rect x="240" y="128" width="16" height="16" fill="white"/>
<rect x="240" y="144" width="16" height="16" fill="white"/>
<rect x="240" y="160" width="16" height="16" fill="white"/>
<rect x="240" y="176" width="16" height="16" fill="white"/>
<rect x="240" y="192" width="16" height="16" fill="#A4BF51" fill-opacity="0.21"/>
<rect x="240" y="208" width="16" height="16" fill="#A4BF51" fill-opacity="0.21"/>
<rect x="240" y="224" width="16" height="16" fill="#D9D9D9"/>
<rect x="256" width="16" height="16" fill="#D9D9D9"/>
<rect x="256" y="16" width="16" height="16" fill="#84D5CA" fill-opacity="0.26"/>
<rect x="256" y="32" width="16" height="16" fill="#84D5CA" fill-opacity="0.26"/>
<rect x="256" y="48" width="16" height="16" fill="white"/>
<rect x="256" y="64" width="16" height="16" fill="white"/>
<rect x="256" y="80" width="16" height="16" fill="white"/>
<rect x="256" y="96" width="16" height="16" fill="white"/>
<rect x="256" y="112" width="16" height="16" fill="white"/>
<rect x="256" y="128" width="16" height="16" fill="white"/>
<rect x="256" y="144" width="16" height="16" fill="white"/>
<rect x="256" y="160" width="16" height="16" fill="white"/>
<rect x="256" y="176" width="16" height="16" fill="white"/>
<rect x="256" y="192" width="16" height="16" fill="#A4BF51" fill-opacity="0.21"/>
<rect x="256" y="208" width="16" height="16" fill="#A4BF51" fill-opacity="0.21"/>
<rect x="256" y="224" width="16" height="16" fill="#D9D9D9"/>
<rect x="272" width="16" height="16" fill="#D9D9D9"/>
<rect x="272" y="16" width="16" height="16" fill="#84D5CA" fill-opacity="0.26"/>
<rect x="272" y="32" width="16" height="16" fill="#84D5CA" fill-opacity="0.26"/>
<rect x="272" y="48" width="16" height="16" fill="white"/>
<rect x="272" y="64" width="16" height="16" fill="white"/>
<rect x="272" y="80" width="16" height="16" fill="white"/>
<rect x="272" y="96" width="16" height="16" fill="white"/>
<rect x="272" y="112" width="16" height="16" fill="white"/>
<rect x="272" y="128" width="16" height="16" fill="white"/>
<rect x="272" y="144" width="16" height="16" fill="white"/>
<rect x="272" y="160" width="16" height="16" fill="white"/>
<rect x="272" y="176" width="16" height="16" fill="white"/>
<rect x="272" y="192" width="16" height="16" fill="#A4BF51" fill-opacity="0.21"/>
<rect x="272" y="208" width="16" height="16" fill="#A4BF51" fill-opacity="0.21"/>
<rect x="272" y="224" width="16" height="16" fill="#D9D9D9"/>
<rect x="288" width="16" height="16" fill="#D9D9D9"/>
<rect x="288" y="16" width="16" height="16" fill="#84D5CA" fill-opacity="0.26"/>
<rect x="288" y="32" width="16" height="16" fill="#84D5CA" fill-opacity="0.26"/>
<rect x="288" y="48" width="16" height="16" fill="white"/>
<rect x="288" y="64" width="16" height="16" fill="white"/>
<rect x="288" y="80" width="16" height="16" fill="white"/>
<rect x="288" y="96" width="16" height="16" fill="white"/>
<rect x="288" y="112" width="16" height="16" fill="white"/>
<rect x="288" y="128" width="16" height="16" fill="white"/>
<rect x="288" y="144" width="16" height="16" fill="white"/>
<rect x="288" y="160" width="16" height="16" fill="white"/>
<rect x="288" y="176" width="16" height="16" fill="white"/>
<rect x="288" y="192" width="16" height="16" fill="#A4BF51" fill-opacity="0.21"/>
<rect x="288" y="208" width="16" height="16" fill="#A4BF51" fill-opacity="0.21"/>
<rect x="288" y="224" width="16" height="16" fill="#D9D9D9"/>
<rect x="304" width="16" height="16" fill="#D9D9D9"/>
<rect x="304" y="16" width="16" height="16" fill="#D9D9D9"/>
<rect x="304" y="32" width="16" height="16" fill="#D9D9D9"/>
<rect x="304" y="48" width="16" height="16" fill="#D9D9D9"/>
<rect x="304" y="64" width="16" height="16" fill="#D9D9D9"/>
<rect x="304" y="80" width="16" height="16" fill="#D9D9D9"/>
<rect x="304" y="96" width="16" height="16" fill="#D9D9D9"/>
<rect x="304" y="112" width="16" height="16" fill="#D9D9D9"/>
<rect x="304" y="128" width="16" height="16" fill="#D9D9D9"/>
<rect x="304" y="144" width="16" height="16" fill="#D9D9D9"/>
<rect x="304" y="160" width="16" height="16" fill="#D9D9D9"/>
<rect x="304" y="176" width="16" height="16" fill="#D9D9D9"/>
<rect x="304" y="192" width="16" height="16" fill="#D9D9D9"/>
<rect x="304" y="208" width="16" height="16" fill="#D9D9D9"/>
<rect x="304" y="224" width="16" height="16" fill="#D9D9D9"/>
<path d="M116.387 35.3184C116.387 35.1895 116.361 35.0742 116.311 34.9727C116.26 34.8672 116.174 34.7715 116.053 34.6855C115.932 34.5996 115.771 34.5215 115.572 34.4512C115.373 34.377 115.125 34.3105 114.828 34.252C114.465 34.1777 114.133 34.0879 113.832 33.9824C113.535 33.877 113.281 33.75 113.07 33.6016C112.855 33.457 112.689 33.2871 112.572 33.0918C112.455 32.8926 112.396 32.6621 112.396 32.4004C112.396 32.1426 112.457 31.9023 112.578 31.6797C112.699 31.4531 112.869 31.2559 113.088 31.0879C113.307 30.9199 113.566 30.7871 113.867 30.6895C114.172 30.5918 114.506 30.543 114.869 30.543C115.26 30.543 115.611 30.5938 115.924 30.6953C116.236 30.7969 116.502 30.9375 116.721 31.1172C116.939 31.2969 117.107 31.5078 117.225 31.75C117.346 31.9883 117.406 32.2461 117.406 32.5234H116.322C116.322 32.3867 116.287 32.2539 116.217 32.125C116.146 31.9922 116.049 31.875 115.924 31.7734C115.799 31.6719 115.646 31.5898 115.467 31.5273C115.291 31.4648 115.092 31.4336 114.869 31.4336C114.639 31.4336 114.436 31.459 114.26 31.5098C114.088 31.5605 113.945 31.6289 113.832 31.7148C113.715 31.8008 113.627 31.9004 113.568 32.0137C113.51 32.127 113.48 32.2441 113.48 32.3652C113.48 32.4902 113.504 32.6016 113.551 32.6992C113.598 32.7969 113.68 32.8848 113.797 32.9629C113.91 33.041 114.062 33.1113 114.254 33.1738C114.449 33.2363 114.695 33.2969 114.992 33.3555C115.383 33.4375 115.732 33.5332 116.041 33.6426C116.35 33.748 116.609 33.875 116.82 34.0234C117.031 34.1758 117.191 34.3516 117.301 34.5508C117.414 34.75 117.471 34.9805 117.471 35.2422C117.471 35.5234 117.406 35.7793 117.277 36.0098C117.152 36.2402 116.977 36.4375 116.75 36.6016C116.523 36.7656 116.252 36.8926 115.936 36.9824C115.619 37.0723 115.273 37.1172 114.898 37.1172C114.469 37.1172 114.086 37.0605 113.75 36.9473C113.414 36.8301 113.131 36.6758 112.9 36.4844C112.666 36.2969 112.486 36.0781 112.361 35.8281C112.24 35.5781 112.18 35.3184 112.18 35.0488H113.264C113.279 35.2715 113.338 35.459 113.439 35.6113C113.545 35.7637 113.676 35.8867 113.832 35.9805C113.984 36.0742 114.154 36.1406 114.342 36.1797C114.529 36.2188 114.715 36.2383 114.898 36.2383C115.188 36.2383 115.439 36.2051 115.654 36.1387C115.869 36.0684 116.037 35.9727 116.158 35.8516C116.232 35.7773 116.289 35.6953 116.328 35.6055C116.367 35.5156 116.387 35.4199 116.387 35.3184ZM119.551 28H122.791V36.0625H124.859V37H119.551V36.0625H121.707V28.9434H119.551V28ZM126.283 33.7715C126.283 33.3145 126.35 32.8906 126.482 32.5C126.615 32.1055 126.807 31.7637 127.057 31.4746C127.303 31.1855 127.604 30.959 127.959 30.7949C128.314 30.627 128.715 30.543 129.16 30.543C129.609 30.543 130.012 30.627 130.367 30.7949C130.727 30.959 131.031 31.1855 131.281 31.4746C131.527 31.7637 131.717 32.1055 131.85 32.5C131.982 32.8906 132.049 33.3145 132.049 33.7715V33.9004C132.049 34.3574 131.982 34.7812 131.85 35.1719C131.717 35.5625 131.527 35.9023 131.281 36.1914C131.031 36.4805 130.729 36.707 130.373 36.8711C130.018 37.0352 129.617 37.1172 129.172 37.1172C128.723 37.1172 128.318 37.0352 127.959 36.8711C127.604 36.707 127.303 36.4805 127.057 36.1914C126.807 35.9023 126.615 35.5625 126.482 35.1719C126.35 34.7812 126.283 34.3574 126.283 33.9004V33.7715ZM127.367 33.9004C127.367 34.2129 127.404 34.5117 127.479 34.7969C127.553 35.0781 127.666 35.3262 127.818 35.541C127.967 35.7559 128.154 35.9258 128.381 36.0508C128.607 36.1758 128.871 36.2383 129.172 36.2383C129.469 36.2383 129.729 36.1758 129.951 36.0508C130.178 35.9258 130.367 35.7559 130.52 35.541C130.668 35.3262 130.779 35.0781 130.854 34.7969C130.928 34.5117 130.965 34.2129 130.965 33.9004V33.7715C130.965 33.4629 130.926 33.168 130.848 32.8867C130.773 32.6016 130.662 32.3516 130.514 32.1367C130.361 31.9219 130.172 31.752 129.945 31.627C129.723 31.498 129.461 31.4336 129.16 31.4336C128.859 31.4336 128.598 31.498 128.375 31.627C128.152 31.752 127.967 31.9219 127.818 32.1367C127.666 32.3516 127.553 32.6016 127.479 32.8867C127.404 33.168 127.367 33.4629 127.367 33.7715V33.9004ZM136.361 29.125V30.6602H138.775V31.498H136.361V34.9434C136.361 35.1895 136.393 35.3926 136.455 35.5527C136.518 35.7129 136.604 35.8398 136.713 35.9336C136.822 36.0312 136.947 36.0996 137.088 36.1387C137.232 36.1777 137.385 36.1973 137.545 36.1973C137.662 36.1973 137.783 36.1914 137.908 36.1797C138.033 36.1641 138.156 36.1465 138.277 36.127C138.395 36.1074 138.504 36.0879 138.605 36.0684C138.711 36.0449 138.797 36.0254 138.863 36.0098L139.016 36.7773C138.926 36.832 138.816 36.8809 138.688 36.9238C138.559 36.9629 138.418 36.9961 138.266 37.0234C138.113 37.0547 137.951 37.0781 137.779 37.0938C137.611 37.1094 137.443 37.1172 137.275 37.1172C136.994 37.1172 136.73 37.0781 136.484 37C136.242 36.918 136.031 36.7891 135.852 36.6133C135.672 36.4414 135.529 36.2188 135.424 35.9453C135.322 35.668 135.271 35.334 135.271 34.9434V31.498H133.607V30.6602H135.271V29.125H136.361ZM146.229 32.4297H140.996V31.4863H146.229V32.4297ZM146.229 34.8613H140.996V33.9238H146.229V34.8613ZM150.564 28.7324C150.564 28.916 150.541 29.1094 150.494 29.3125C150.451 29.5156 150.387 29.7148 150.301 29.9102C150.211 30.1094 150.104 30.2988 149.979 30.4785C149.854 30.6582 149.709 30.8184 149.545 30.959L148.953 30.5371C149.137 30.2598 149.273 29.9766 149.363 29.6875C149.457 29.3984 149.504 29.0859 149.504 28.75V27.8711H150.564V28.7324ZM152.51 28.7324C152.51 28.916 152.486 29.1094 152.439 29.3125C152.396 29.5156 152.332 29.7148 152.246 29.9102C152.156 30.1094 152.049 30.2988 151.924 30.4785C151.799 30.6582 151.654 30.8184 151.49 30.959L150.898 30.5371C151.082 30.2598 151.219 29.9766 151.309 29.6875C151.402 29.3984 151.449 29.0859 151.449 28.75V27.8711H152.51V28.7324ZM156.5 31.6035C156.586 31.4746 156.682 31.3574 156.787 31.252C156.893 31.1426 157.004 31.0469 157.121 30.9648C157.309 30.8281 157.514 30.7246 157.736 30.6543C157.963 30.584 158.203 30.5469 158.457 30.543C158.789 30.543 159.09 30.5918 159.359 30.6895C159.633 30.7832 159.865 30.9316 160.057 31.1348C160.248 31.3379 160.395 31.5957 160.496 31.9082C160.602 32.2168 160.654 32.584 160.654 33.0098V37H159.57V32.998C159.57 32.748 159.541 32.5293 159.482 32.3418C159.424 32.1504 159.338 31.9922 159.225 31.8672C159.104 31.7305 158.951 31.6289 158.768 31.5625C158.584 31.4922 158.373 31.459 158.135 31.4629C157.939 31.4629 157.754 31.4902 157.578 31.5449C157.402 31.5996 157.24 31.6777 157.092 31.7793C156.975 31.8574 156.865 31.9492 156.764 32.0547C156.666 32.1562 156.578 32.2695 156.5 32.3945V37H155.416V28H156.5V31.6035ZM165.424 37.1172C164.979 37.1172 164.568 37.041 164.193 36.8887C163.822 36.7363 163.504 36.5234 163.238 36.25C162.973 35.9766 162.766 35.6523 162.617 35.2773C162.469 34.9023 162.395 34.4941 162.395 34.0527V33.8066C162.395 33.2949 162.477 32.8379 162.641 32.4355C162.805 32.0293 163.023 31.6855 163.297 31.4043C163.566 31.127 163.873 30.9141 164.217 30.7656C164.564 30.6172 164.92 30.543 165.283 30.543C165.74 30.543 166.139 30.623 166.479 30.7832C166.822 30.9395 167.107 31.1562 167.334 31.4336C167.561 31.7148 167.729 32.0449 167.838 32.4238C167.951 32.8027 168.008 33.2129 168.008 33.6543V34.1406H163.479V34.1816C163.506 34.4902 163.566 34.7617 163.66 34.9961C163.758 35.2305 163.891 35.4375 164.059 35.6172C164.23 35.8086 164.438 35.959 164.68 36.0684C164.922 36.1777 165.189 36.2324 165.482 36.2324C165.869 36.2324 166.213 36.1543 166.514 35.998C166.814 35.8418 167.064 35.6348 167.264 35.377L167.926 35.8926C167.715 36.2129 167.398 36.498 166.977 36.748C166.559 36.9941 166.041 37.1172 165.424 37.1172ZM165.283 31.4336C165.064 31.4336 164.857 31.4746 164.662 31.5566C164.467 31.6348 164.291 31.75 164.135 31.9023C163.979 32.0586 163.846 32.25 163.736 32.4766C163.631 32.6992 163.557 32.957 163.514 33.25H166.924V33.1973C166.924 33.002 166.887 32.793 166.812 32.5703C166.738 32.3438 166.635 32.1484 166.502 31.9844C166.369 31.8203 166.201 31.6875 165.998 31.5859C165.799 31.4844 165.561 31.4336 165.283 31.4336ZM173.996 37C173.953 36.918 173.918 36.8164 173.891 36.6953C173.867 36.5703 173.85 36.4414 173.838 36.3086C173.729 36.418 173.605 36.5215 173.469 36.6191C173.336 36.7168 173.189 36.8027 173.029 36.877C172.865 36.9512 172.691 37.0098 172.508 37.0527C172.324 37.0957 172.129 37.1172 171.922 37.1172C171.586 37.1172 171.281 37.0684 171.008 36.9707C170.738 36.873 170.51 36.7402 170.322 36.5723C170.131 36.4082 169.982 36.2129 169.877 35.9863C169.775 35.7559 169.725 35.5078 169.725 35.2422C169.725 34.8945 169.793 34.5898 169.93 34.3281C170.07 34.0664 170.268 33.8477 170.521 33.6719C170.775 33.5 171.08 33.3711 171.436 33.2852C171.795 33.1992 172.195 33.1562 172.637 33.1562H173.82V32.6582C173.82 32.4668 173.785 32.2949 173.715 32.1426C173.645 31.9902 173.545 31.8594 173.416 31.75C173.287 31.6445 173.129 31.5625 172.941 31.5039C172.758 31.4453 172.551 31.416 172.32 31.416C172.105 31.416 171.912 31.4434 171.74 31.498C171.572 31.5527 171.43 31.625 171.312 31.7148C171.195 31.8047 171.104 31.9121 171.037 32.0371C170.975 32.1582 170.943 32.2852 170.943 32.418H169.854C169.857 32.1875 169.916 31.9609 170.029 31.7383C170.146 31.5156 170.314 31.3145 170.533 31.1348C170.748 30.959 171.01 30.8164 171.318 30.707C171.631 30.5977 171.984 30.543 172.379 30.543C172.738 30.543 173.072 30.5879 173.381 30.6777C173.689 30.7637 173.957 30.8945 174.184 31.0703C174.406 31.25 174.582 31.4727 174.711 31.7383C174.84 32.0039 174.904 32.3145 174.904 32.6699V35.6172C174.904 35.8281 174.924 36.0527 174.963 36.291C175.002 36.5254 175.057 36.7305 175.127 36.9062V37H173.996ZM172.08 36.1738C172.291 36.1738 172.488 36.1465 172.672 36.0918C172.855 36.0371 173.023 35.9648 173.176 35.875C173.324 35.7852 173.453 35.6836 173.562 35.5703C173.672 35.4531 173.758 35.332 173.82 35.207V33.9238H172.812C172.438 33.9238 172.109 33.957 171.828 34.0234C171.551 34.0859 171.33 34.1836 171.166 34.3164C171.049 34.4102 170.959 34.5215 170.896 34.6504C170.838 34.7793 170.809 34.9258 170.809 35.0898C170.809 35.2461 170.834 35.3906 170.885 35.5234C170.939 35.6562 171.02 35.7695 171.125 35.8633C171.23 35.9609 171.363 36.0371 171.523 36.0918C171.684 36.1465 171.869 36.1738 172.08 36.1738ZM176.832 33.7773C176.832 33.3047 176.891 32.8711 177.008 32.4766C177.129 32.0781 177.301 31.7363 177.523 31.4512C177.742 31.166 178.008 30.9434 178.32 30.7832C178.633 30.623 178.982 30.543 179.369 30.543C179.748 30.543 180.078 30.6074 180.359 30.7363C180.645 30.8613 180.891 31.0449 181.098 31.2871V28H182.182V37H181.186L181.139 36.332C180.928 36.5898 180.676 36.7852 180.383 36.918C180.09 37.0508 179.748 37.1172 179.357 37.1172C178.975 37.1172 178.627 37.0352 178.314 36.8711C178.006 36.707 177.742 36.4805 177.523 36.1914C177.305 35.9023 177.135 35.5625 177.014 35.1719C176.893 34.7773 176.832 34.3535 176.832 33.9004V33.7773ZM177.916 33.9004C177.916 34.209 177.949 34.502 178.016 34.7793C178.082 35.0566 178.186 35.3008 178.326 35.5117C178.463 35.7227 178.639 35.8906 178.854 36.0156C179.068 36.1367 179.326 36.1973 179.627 36.1973C179.99 36.1973 180.291 36.1152 180.529 35.9512C180.768 35.7871 180.957 35.5664 181.098 35.2891V32.3477C180.957 32.0898 180.768 31.8789 180.529 31.7148C180.291 31.5469 179.994 31.4629 179.639 31.4629C179.334 31.4629 179.072 31.5254 178.854 31.6504C178.639 31.7754 178.463 31.9434 178.326 32.1543C178.186 32.3691 178.082 32.6172 178.016 32.8984C177.949 33.1758 177.916 33.4688 177.916 33.7773V33.9004ZM187.045 37.1172C186.6 37.1172 186.189 37.041 185.814 36.8887C185.443 36.7363 185.125 36.5234 184.859 36.25C184.594 35.9766 184.387 35.6523 184.238 35.2773C184.09 34.9023 184.016 34.4941 184.016 34.0527V33.8066C184.016 33.2949 184.098 32.8379 184.262 32.4355C184.426 32.0293 184.645 31.6855 184.918 31.4043C185.188 31.127 185.494 30.9141 185.838 30.7656C186.186 30.6172 186.541 30.543 186.904 30.543C187.361 30.543 187.76 30.623 188.1 30.7832C188.443 30.9395 188.729 31.1562 188.955 31.4336C189.182 31.7148 189.35 32.0449 189.459 32.4238C189.572 32.8027 189.629 33.2129 189.629 33.6543V34.1406H185.1V34.1816C185.127 34.4902 185.188 34.7617 185.281 34.9961C185.379 35.2305 185.512 35.4375 185.68 35.6172C185.852 35.8086 186.059 35.959 186.301 36.0684C186.543 36.1777 186.811 36.2324 187.104 36.2324C187.49 36.2324 187.834 36.1543 188.135 35.998C188.436 35.8418 188.686 35.6348 188.885 35.377L189.547 35.8926C189.336 36.2129 189.02 36.498 188.598 36.748C188.18 36.9941 187.662 37.1172 187.045 37.1172ZM186.904 31.4336C186.686 31.4336 186.479 31.4746 186.283 31.5566C186.088 31.6348 185.912 31.75 185.756 31.9023C185.6 32.0586 185.467 32.25 185.357 32.4766C185.252 32.6992 185.178 32.957 185.135 33.25H188.545V33.1973C188.545 33.002 188.508 32.793 188.434 32.5703C188.359 32.3438 188.256 32.1484 188.123 31.9844C187.99 31.8203 187.822 31.6875 187.619 31.5859C187.42 31.4844 187.182 31.4336 186.904 31.4336ZM195.605 30.543C195.805 30.543 196.012 30.5566 196.227 30.584C196.445 30.6113 196.609 30.6484 196.719 30.6953L196.572 31.7559C196.361 31.709 196.16 31.6758 195.969 31.6562C195.781 31.6328 195.584 31.6211 195.377 31.6211C195.111 31.6211 194.871 31.6543 194.656 31.7207C194.441 31.7832 194.254 31.877 194.094 32.002C193.949 32.1113 193.822 32.2461 193.713 32.4062C193.607 32.5625 193.52 32.7383 193.449 32.9336V37H192.359V30.6602H193.391L193.438 31.5098L193.443 31.668C193.701 31.3203 194.01 31.0469 194.369 30.8477C194.732 30.6445 195.145 30.543 195.605 30.543ZM201.014 28.7324C201.014 28.916 200.99 29.1094 200.943 29.3125C200.9 29.5156 200.836 29.7148 200.75 29.9102C200.66 30.1094 200.553 30.2988 200.428 30.4785C200.303 30.6582 200.158 30.8184 199.994 30.959L199.402 30.5371C199.586 30.2598 199.723 29.9766 199.812 29.6875C199.906 29.3984 199.953 29.0859 199.953 28.75V27.8711H201.014V28.7324ZM202.959 28.7324C202.959 28.916 202.936 29.1094 202.889 29.3125C202.846 29.5156 202.781 29.7148 202.695 29.9102C202.605 30.1094 202.498 30.2988 202.373 30.4785C202.248 30.6582 202.104 30.8184 201.939 30.959L201.348 30.5371C201.531 30.2598 201.668 29.9766 201.758 29.6875C201.852 29.3984 201.898 29.0859 201.898 28.75V27.8711H202.959V28.7324Z" fill="black"/>
<path d="M116.387 211.318C116.387 211.189 116.361 211.074 116.311 210.973C116.26 210.867 116.174 210.771 116.053 210.686C115.932 210.6 115.771 210.521 115.572 210.451C115.373 210.377 115.125 210.311 114.828 210.252C114.465 210.178 114.133 210.088 113.832 209.982C113.535 209.877 113.281 209.75 113.07 209.602C112.855 209.457 112.689 209.287 112.572 209.092C112.455 208.893 112.396 208.662 112.396 208.4C112.396 208.143 112.457 207.902 112.578 207.68C112.699 207.453 112.869 207.256 113.088 207.088C113.307 206.92 113.566 206.787 113.867 206.689C114.172 206.592 114.506 206.543 114.869 206.543C115.26 206.543 115.611 206.594 115.924 206.695C116.236 206.797 116.502 206.938 116.721 207.117C116.939 207.297 117.107 207.508 117.225 207.75C117.346 207.988 117.406 208.246 117.406 208.523H116.322C116.322 208.387 116.287 208.254 116.217 208.125C116.146 207.992 116.049 207.875 115.924 207.773C115.799 207.672 115.646 207.59 115.467 207.527C115.291 207.465 115.092 207.434 114.869 207.434C114.639 207.434 114.436 207.459 114.26 207.51C114.088 207.561 113.945 207.629 113.832 207.715C113.715 207.801 113.627 207.9 113.568 208.014C113.51 208.127 113.48 208.244 113.48 208.365C113.48 208.49 113.504 208.602 113.551 208.699C113.598 208.797 113.68 208.885 113.797 208.963C113.91 209.041 114.062 209.111 114.254 209.174C114.449 209.236 114.695 209.297 114.992 209.355C115.383 209.438 115.732 209.533 116.041 209.643C116.35 209.748 116.609 209.875 116.82 210.023C117.031 210.176 117.191 210.352 117.301 210.551C117.414 210.75 117.471 210.98 117.471 211.242C117.471 211.523 117.406 211.779 117.277 212.01C117.152 212.24 116.977 212.438 116.75 212.602C116.523 212.766 116.252 212.893 115.936 212.982C115.619 213.072 115.273 213.117 114.898 213.117C114.469 213.117 114.086 213.061 113.75 212.947C113.414 212.83 113.131 212.676 112.9 212.484C112.666 212.297 112.486 212.078 112.361 211.828C112.24 211.578 112.18 211.318 112.18 211.049H113.264C113.279 211.271 113.338 211.459 113.439 211.611C113.545 211.764 113.676 211.887 113.832 211.98C113.984 212.074 114.154 212.141 114.342 212.18C114.529 212.219 114.715 212.238 114.898 212.238C115.188 212.238 115.439 212.205 115.654 212.139C115.869 212.068 116.037 211.973 116.158 211.852C116.232 211.777 116.289 211.695 116.328 211.605C116.367 211.516 116.387 211.42 116.387 211.318ZM119.551 204H122.791V212.062H124.859V213H119.551V212.062H121.707V204.943H119.551V204ZM126.283 209.771C126.283 209.314 126.35 208.891 126.482 208.5C126.615 208.105 126.807 207.764 127.057 207.475C127.303 207.186 127.604 206.959 127.959 206.795C128.314 206.627 128.715 206.543 129.16 206.543C129.609 206.543 130.012 206.627 130.367 206.795C130.727 206.959 131.031 207.186 131.281 207.475C131.527 207.764 131.717 208.105 131.85 208.5C131.982 208.891 132.049 209.314 132.049 209.771V209.9C132.049 210.357 131.982 210.781 131.85 211.172C131.717 211.562 131.527 211.902 131.281 212.191C131.031 212.48 130.729 212.707 130.373 212.871C130.018 213.035 129.617 213.117 129.172 213.117C128.723 213.117 128.318 213.035 127.959 212.871C127.604 212.707 127.303 212.48 127.057 212.191C126.807 211.902 126.615 211.562 126.482 211.172C126.35 210.781 126.283 210.357 126.283 209.9V209.771ZM127.367 209.9C127.367 210.213 127.404 210.512 127.479 210.797C127.553 211.078 127.666 211.326 127.818 211.541C127.967 211.756 128.154 211.926 128.381 212.051C128.607 212.176 128.871 212.238 129.172 212.238C129.469 212.238 129.729 212.176 129.951 212.051C130.178 211.926 130.367 211.756 130.52 211.541C130.668 211.326 130.779 211.078 130.854 210.797C130.928 210.512 130.965 210.213 130.965 209.9V209.771C130.965 209.463 130.926 209.168 130.848 208.887C130.773 208.602 130.662 208.352 130.514 208.137C130.361 207.922 130.172 207.752 129.945 207.627C129.723 207.498 129.461 207.434 129.16 207.434C128.859 207.434 128.598 207.498 128.375 207.627C128.152 207.752 127.967 207.922 127.818 208.137C127.666 208.352 127.553 208.602 127.479 208.887C127.404 209.168 127.367 209.463 127.367 209.771V209.9ZM136.361 205.125V206.66H138.775V207.498H136.361V210.943C136.361 211.189 136.393 211.393 136.455 211.553C136.518 211.713 136.604 211.84 136.713 211.934C136.822 212.031 136.947 212.1 137.088 212.139C137.232 212.178 137.385 212.197 137.545 212.197C137.662 212.197 137.783 212.191 137.908 212.18C138.033 212.164 138.156 212.146 138.277 212.127C138.395 212.107 138.504 212.088 138.605 212.068C138.711 212.045 138.797 212.025 138.863 212.01L139.016 212.777C138.926 212.832 138.816 212.881 138.688 212.924C138.559 212.963 138.418 212.996 138.266 213.023C138.113 213.055 137.951 213.078 137.779 213.094C137.611 213.109 137.443 213.117 137.275 213.117C136.994 213.117 136.73 213.078 136.484 213C136.242 212.918 136.031 212.789 135.852 212.613C135.672 212.441 135.529 212.219 135.424 211.945C135.322 211.668 135.271 211.334 135.271 210.943V207.498H133.607V206.66H135.271V205.125H136.361ZM146.229 208.43H140.996V207.486H146.229V208.43ZM146.229 210.861H140.996V209.924H146.229V210.861ZM150.564 204.732C150.564 204.916 150.541 205.109 150.494 205.312C150.451 205.516 150.387 205.715 150.301 205.91C150.211 206.109 150.104 206.299 149.979 206.479C149.854 206.658 149.709 206.818 149.545 206.959L148.953 206.537C149.137 206.26 149.273 205.977 149.363 205.688C149.457 205.398 149.504 205.086 149.504 204.75V203.871H150.564V204.732ZM152.51 204.732C152.51 204.916 152.486 205.109 152.439 205.312C152.396 205.516 152.332 205.715 152.246 205.91C152.156 206.109 152.049 206.299 151.924 206.479C151.799 206.658 151.654 206.818 151.49 206.959L150.898 206.537C151.082 206.26 151.219 205.977 151.309 205.688C151.402 205.398 151.449 205.086 151.449 204.75V203.871H152.51V204.732ZM157.033 213V207.498H155.287V206.66H157.033V206.215C157.033 205.809 157.092 205.453 157.209 205.148C157.33 204.84 157.5 204.582 157.719 204.375C157.934 204.168 158.193 204.012 158.498 203.906C158.803 203.801 159.143 203.748 159.518 203.748C159.674 203.748 159.828 203.758 159.98 203.777C160.133 203.793 160.283 203.814 160.432 203.842C160.529 203.861 160.627 203.883 160.725 203.906C160.822 203.926 160.922 203.949 161.023 203.977L160.895 204.873C160.734 204.818 160.547 204.771 160.332 204.732C160.121 204.689 159.895 204.668 159.652 204.668C159.406 204.668 159.188 204.699 158.996 204.762C158.809 204.82 158.652 204.91 158.527 205.031C158.395 205.156 158.293 205.318 158.223 205.518C158.156 205.717 158.123 205.949 158.123 206.215V206.66H160.566V207.498H158.123V213H157.033ZM162.318 209.771C162.318 209.314 162.385 208.891 162.518 208.5C162.65 208.105 162.842 207.764 163.092 207.475C163.338 207.186 163.639 206.959 163.994 206.795C164.35 206.627 164.75 206.543 165.195 206.543C165.645 206.543 166.047 206.627 166.402 206.795C166.762 206.959 167.066 207.186 167.316 207.475C167.562 207.764 167.752 208.105 167.885 208.5C168.018 208.891 168.084 209.314 168.084 209.771V209.9C168.084 210.357 168.018 210.781 167.885 211.172C167.752 211.562 167.562 211.902 167.316 212.191C167.066 212.48 166.764 212.707 166.408 212.871C166.053 213.035 165.652 213.117 165.207 213.117C164.758 213.117 164.354 213.035 163.994 212.871C163.639 212.707 163.338 212.48 163.092 212.191C162.842 211.902 162.65 211.562 162.518 211.172C162.385 210.781 162.318 210.357 162.318 209.9V209.771ZM163.402 209.9C163.402 210.213 163.439 210.512 163.514 210.797C163.588 211.078 163.701 211.326 163.854 211.541C164.002 211.756 164.189 211.926 164.416 212.051C164.643 212.176 164.906 212.238 165.207 212.238C165.504 212.238 165.764 212.176 165.986 212.051C166.213 211.926 166.402 211.756 166.555 211.541C166.703 211.326 166.814 211.078 166.889 210.797C166.963 210.512 167 210.213 167 209.9V209.771C167 209.463 166.961 209.168 166.883 208.887C166.809 208.602 166.697 208.352 166.549 208.137C166.396 207.922 166.207 207.752 165.98 207.627C165.758 207.498 165.496 207.434 165.195 207.434C164.895 207.434 164.633 207.498 164.41 207.627C164.188 207.752 164.002 207.922 163.854 208.137C163.701 208.352 163.588 208.602 163.514 208.887C163.439 209.168 163.402 209.463 163.402 209.771V209.9ZM169.525 209.771C169.525 209.314 169.592 208.891 169.725 208.5C169.857 208.105 170.049 207.764 170.299 207.475C170.545 207.186 170.846 206.959 171.201 206.795C171.557 206.627 171.957 206.543 172.402 206.543C172.852 206.543 173.254 206.627 173.609 206.795C173.969 206.959 174.273 207.186 174.523 207.475C174.77 207.764 174.959 208.105 175.092 208.5C175.225 208.891 175.291 209.314 175.291 209.771V209.9C175.291 210.357 175.225 210.781 175.092 211.172C174.959 211.562 174.77 211.902 174.523 212.191C174.273 212.48 173.971 212.707 173.615 212.871C173.26 213.035 172.859 213.117 172.414 213.117C171.965 213.117 171.561 213.035 171.201 212.871C170.846 212.707 170.545 212.48 170.299 212.191C170.049 211.902 169.857 211.562 169.725 211.172C169.592 210.781 169.525 210.357 169.525 209.9V209.771ZM170.609 209.9C170.609 210.213 170.646 210.512 170.721 210.797C170.795 211.078 170.908 211.326 171.061 211.541C171.209 211.756 171.396 211.926 171.623 212.051C171.85 212.176 172.113 212.238 172.414 212.238C172.711 212.238 172.971 212.176 173.193 212.051C173.42 211.926 173.609 211.756 173.762 211.541C173.91 211.326 174.021 211.078 174.096 210.797C174.17 210.512 174.207 210.213 174.207 209.9V209.771C174.207 209.463 174.168 209.168 174.09 208.887C174.016 208.602 173.904 208.352 173.756 208.137C173.604 207.922 173.414 207.752 173.188 207.627C172.965 207.498 172.703 207.434 172.402 207.434C172.102 207.434 171.84 207.498 171.617 207.627C171.395 207.752 171.209 207.922 171.061 208.137C170.908 208.352 170.795 208.602 170.721 208.887C170.646 209.168 170.609 209.463 170.609 209.771V209.9ZM179.604 205.125V206.66H182.018V207.498H179.604V210.943C179.604 211.189 179.635 211.393 179.697 211.553C179.76 211.713 179.846 211.84 179.955 211.934C180.064 212.031 180.189 212.1 180.33 212.139C180.475 212.178 180.627 212.197 180.787 212.197C180.904 212.197 181.025 212.191 181.15 212.18C181.275 212.164 181.398 212.146 181.52 212.127C181.637 212.107 181.746 212.088 181.848 212.068C181.953 212.045 182.039 212.025 182.105 212.01L182.258 212.777C182.168 212.832 182.059 212.881 181.93 212.924C181.801 212.963 181.66 212.996 181.508 213.023C181.355 213.055 181.193 213.078 181.021 213.094C180.854 213.109 180.686 213.117 180.518 213.117C180.236 213.117 179.973 213.078 179.727 213C179.484 212.918 179.273 212.789 179.094 212.613C178.914 212.441 178.771 212.219 178.666 211.945C178.564 211.668 178.514 211.334 178.514 210.943V207.498H176.85V206.66H178.514V205.125H179.604ZM187.045 213.117C186.6 213.117 186.189 213.041 185.814 212.889C185.443 212.736 185.125 212.523 184.859 212.25C184.594 211.977 184.387 211.652 184.238 211.277C184.09 210.902 184.016 210.494 184.016 210.053V209.807C184.016 209.295 184.098 208.838 184.262 208.436C184.426 208.029 184.645 207.686 184.918 207.404C185.188 207.127 185.494 206.914 185.838 206.766C186.186 206.617 186.541 206.543 186.904 206.543C187.361 206.543 187.76 206.623 188.1 206.783C188.443 206.939 188.729 207.156 188.955 207.434C189.182 207.715 189.35 208.045 189.459 208.424C189.572 208.803 189.629 209.213 189.629 209.654V210.141H185.1V210.182C185.127 210.49 185.188 210.762 185.281 210.996C185.379 211.23 185.512 211.438 185.68 211.617C185.852 211.809 186.059 211.959 186.301 212.068C186.543 212.178 186.811 212.232 187.104 212.232C187.49 212.232 187.834 212.154 188.135 211.998C188.436 211.842 188.686 211.635 188.885 211.377L189.547 211.893C189.336 212.213 189.02 212.498 188.598 212.748C188.18 212.994 187.662 213.117 187.045 213.117ZM186.904 207.434C186.686 207.434 186.479 207.475 186.283 207.557C186.088 207.635 185.912 207.75 185.756 207.902C185.6 208.059 185.467 208.25 185.357 208.477C185.252 208.699 185.178 208.957 185.135 209.25H188.545V209.197C188.545 209.002 188.508 208.793 188.434 208.57C188.359 208.344 188.256 208.148 188.123 207.984C187.99 207.82 187.822 207.688 187.619 207.586C187.42 207.484 187.182 207.434 186.904 207.434ZM195.605 206.543C195.805 206.543 196.012 206.557 196.227 206.584C196.445 206.611 196.609 206.648 196.719 206.695L196.572 207.756C196.361 207.709 196.16 207.676 195.969 207.656C195.781 207.633 195.584 207.621 195.377 207.621C195.111 207.621 194.871 207.654 194.656 207.721C194.441 207.783 194.254 207.877 194.094 208.002C193.949 208.111 193.822 208.246 193.713 208.406C193.607 208.562 193.52 208.738 193.449 208.934V213H192.359V206.66H193.391L193.438 207.51L193.443 207.668C193.701 207.32 194.01 207.047 194.369 206.848C194.732 206.645 195.145 206.543 195.605 206.543ZM201.014 204.732C201.014 204.916 200.99 205.109 200.943 205.312C200.9 205.516 200.836 205.715 200.75 205.91C200.66 206.109 200.553 206.299 200.428 206.479C200.303 206.658 200.158 206.818 199.994 206.959L199.402 206.537C199.586 206.26 199.723 205.977 199.812 205.688C199.906 205.398 199.953 205.086 199.953 204.75V203.871H201.014V204.732ZM202.959 204.732C202.959 204.916 202.936 205.109 202.889 205.312C202.846 205.516 202.781 205.715 202.695 205.91C202.605 206.109 202.498 206.299 202.373 206.479C202.248 206.658 202.104 206.818 201.939 206.959L201.348 206.537C201.531 206.26 201.668 205.977 201.758 205.688C201.852 205.398 201.898 205.086 201.898 204.75V203.871H202.959V204.732Z" fill="black"/>
</g>
<defs>
<clipPath id="clip0_1_1176">
<rect width="320" height="240" fill="white"/>
</clipPath>
</defs>
</svg>
