<svg width="320" height="240" viewBox="0 0 320 240" fill="none" xmlns="http://www.w3.org/2000/svg">
<g clip-path="url(#clip0_1_3289)">
<rect width="320" height="240" fill="white"/>
<rect width="16" height="16" fill="#D9D9D9"/>
<rect y="16" width="16" height="16" fill="#D9D9D9"/>
<rect y="32" width="16" height="16" fill="#D9D9D9"/>
<rect y="48" width="16" height="16" fill="#D9D9D9"/>
<rect y="64" width="16" height="16" fill="#D9D9D9"/>
<rect y="80" width="16" height="16" fill="#D9D9D9"/>
<rect y="96" width="16" height="16" fill="#D9D9D9"/>
<rect y="112" width="16" height="16" fill="#D9D9D9"/>
<rect y="128" width="16" height="16" fill="#D9D9D9"/>
<rect y="144" width="16" height="16" fill="#D9D9D9"/>
<rect y="160" width="16" height="16" fill="#D9D9D9"/>
<rect y="176" width="16" height="16" fill="#D9D9D9"/>
<rect y="192" width="16" height="16" fill="#D9D9D9"/>
<rect y="208" width="16" height="16" fill="#D9D9D9"/>
<rect y="224" width="16" height="16" fill="#D9D9D9"/>
<rect x="16" width="16" height="16" fill="#D9D9D9"/>
<rect width="16" height="16" transform="translate(16 16)" fill="#281414"/>
<rect x="16" y="16" width="16" height="16" fill="#939393"/>
<rect x="16" y="32" width="16" height="16" fill="#939393"/>
<rect x="16" y="48" width="16" height="16" fill="white"/>
<rect x="16" y="64" width="16" height="16" fill="#939393"/>
<rect x="16" y="80" width="16" height="16" fill="#939393"/>
<rect x="16" y="96" width="16" height="16" fill="white"/>
<rect x="16" y="112" width="16" height="16" fill="#939393"/>
<rect x="16" y="128" width="16" height="16" fill="#939393"/>
<rect x="16" y="144" width="16" height="16" fill="white"/>
<rect x="16" y="160" width="16" height="16" fill="white"/>
<rect x="16" y="176" width="16" height="16" fill="white"/>
<rect x="16" y="192" width="16" height="16" fill="white"/>
<rect x="16" y="208" width="16" height="16" fill="white"/>
<rect x="16" y="224" width="16" height="16" fill="#D9D9D9"/>
<rect x="32" width="16" height="16" fill="#D9D9D9"/>
<rect width="16" height="16" transform="translate(32 16)" fill="#281414"/>
<rect x="32" y="16" width="16" height="16" fill="#939393"/>
<rect x="32" y="32" width="16" height="16" fill="#939393"/>
<rect x="32" y="48" width="16" height="16" fill="white"/>
<rect x="32" y="64" width="16" height="16" fill="#939393"/>
<rect x="32" y="80" width="16" height="16" fill="#939393"/>
<rect x="32" y="96" width="16" height="16" fill="white"/>
<rect x="32" y="112" width="16" height="16" fill="#939393"/>
<rect x="32" y="128" width="16" height="16" fill="#939393"/>
<rect x="32" y="144" width="16" height="16" fill="white"/>
<rect x="32" y="160" width="16" height="16" fill="white"/>
<rect x="32" y="176" width="16" height="16" fill="white"/>
<rect x="32" y="192" width="16" height="16" fill="white"/>
<rect x="32" y="208" width="16" height="16" fill="white"/>
<rect x="32" y="224" width="16" height="16" fill="#D9D9D9"/>
<rect x="48" width="16" height="16" fill="#D9D9D9"/>
<rect width="16" height="16" transform="translate(48 16)" fill="#281414"/>
<rect x="48" y="16" width="16" height="16" fill="#939393"/>
<rect x="48" y="32" width="16" height="16" fill="#939393"/>
<rect x="48" y="48" width="16" height="16" fill="white"/>
<rect x="48" y="64" width="16" height="16" fill="#939393"/>
<rect x="48" y="80" width="16" height="16" fill="#939393"/>
<rect x="48" y="96" width="16" height="16" fill="white"/>
<rect x="48" y="112" width="16" height="16" fill="#939393"/>
<rect x="48" y="128" width="16" height="16" fill="#939393"/>
<rect x="48" y="144" width="16" height="16" fill="white"/>
<rect x="48" y="160" width="16" height="16" fill="white"/>
<rect x="48" y="176" width="16" height="16" fill="white"/>
<rect x="48" y="192" width="16" height="16" fill="white"/>
<rect x="48" y="208" width="16" height="16" fill="white"/>
<rect x="48" y="224" width="16" height="16" fill="#D9D9D9"/>
<rect x="64" width="16" height="16" fill="#D9D9D9"/>
<rect width="16" height="16" transform="translate(64 16)" fill="#281414"/>
<rect x="64" y="16" width="16" height="16" fill="#939393"/>
<rect x="64" y="32" width="16" height="16" fill="#939393"/>
<rect x="64" y="48" width="16" height="16" fill="white"/>
<rect x="64" y="64" width="16" height="16" fill="#939393"/>
<rect x="64" y="80" width="16" height="16" fill="#939393"/>
<rect x="64" y="96" width="16" height="16" fill="white"/>
<rect x="64" y="112" width="16" height="16" fill="#939393"/>
<rect x="64" y="128" width="16" height="16" fill="#939393"/>
<rect x="64" y="144" width="16" height="16" fill="white"/>
<rect x="64" y="160" width="16" height="16" fill="white"/>
<rect x="64" y="176" width="16" height="16" fill="white"/>
<rect x="64" y="192" width="16" height="16" fill="white"/>
<rect x="64" y="208" width="16" height="16" fill="white"/>
<rect x="64" y="224" width="16" height="16" fill="#D9D9D9"/>
<rect x="80" width="16" height="16" fill="#D9D9D9"/>
<rect width="16" height="16" transform="translate(80 16)" fill="#281414"/>
<rect x="80" y="16" width="16" height="16" fill="#939393"/>
<rect x="80" y="32" width="16" height="16" fill="#939393"/>
<rect x="80" y="48" width="16" height="16" fill="white"/>
<rect x="80" y="64" width="16" height="16" fill="#939393"/>
<rect x="80" y="80" width="16" height="16" fill="#939393"/>
<rect x="80" y="96" width="16" height="16" fill="white"/>
<rect x="80" y="112" width="16" height="16" fill="#939393"/>
<rect x="80" y="128" width="16" height="16" fill="#939393"/>
<rect x="80" y="144" width="16" height="16" fill="white"/>
<rect x="80" y="160" width="16" height="16" fill="white"/>
<rect x="80" y="176" width="16" height="16" fill="white"/>
<rect x="80" y="192" width="16" height="16" fill="white"/>
<rect x="80" y="208" width="16" height="16" fill="white"/>
<rect x="80" y="224" width="16" height="16" fill="#D9D9D9"/>
<rect x="96" width="16" height="16" fill="#D9D9D9"/>
<rect width="16" height="16" transform="translate(96 16)" fill="#281414"/>
<rect x="96" y="16" width="16" height="16" fill="#939393"/>
<rect x="96" y="32" width="16" height="16" fill="#939393"/>
<rect x="96" y="48" width="16" height="16" fill="white"/>
<rect x="96" y="64" width="16" height="16" fill="#939393"/>
<rect x="96" y="80" width="16" height="16" fill="#939393"/>
<rect x="96" y="96" width="16" height="16" fill="white"/>
<rect x="96" y="112" width="16" height="16" fill="#939393"/>
<rect x="96" y="128" width="16" height="16" fill="#939393"/>
<rect x="96" y="144" width="16" height="16" fill="white"/>
<rect x="96" y="160" width="16" height="16" fill="white"/>
<rect x="96" y="176" width="16" height="16" fill="white"/>
<rect x="96" y="192" width="16" height="16" fill="white"/>
<rect x="96" y="208" width="16" height="16" fill="white"/>
<rect x="96" y="224" width="16" height="16" fill="#D9D9D9"/>
<rect x="112" width="16" height="16" fill="#D9D9D9"/>
<rect width="16" height="16" transform="translate(112 16)" fill="#281414"/>
<rect x="112" y="16" width="16" height="16" fill="#939393"/>
<rect x="112" y="32" width="16" height="16" fill="#939393"/>
<rect x="112" y="48" width="16" height="16" fill="white"/>
<rect x="112" y="64" width="16" height="16" fill="#939393"/>
<rect x="112" y="80" width="16" height="16" fill="#939393"/>
<rect x="112" y="96" width="16" height="16" fill="white"/>
<rect x="112" y="112" width="16" height="16" fill="#939393"/>
<rect x="112" y="128" width="16" height="16" fill="#939393"/>
<rect x="112" y="144" width="16" height="16" fill="white"/>
<rect x="112" y="160" width="16" height="16" fill="white"/>
<rect x="112" y="176" width="16" height="16" fill="white"/>
<rect x="112" y="192" width="16" height="16" fill="white"/>
<rect x="112" y="208" width="16" height="16" fill="white"/>
<rect x="112" y="224" width="16" height="16" fill="#D9D9D9"/>
<rect x="128" width="16" height="16" fill="#D9D9D9"/>
<rect width="16" height="16" transform="translate(128 16)" fill="#281414"/>
<rect x="128" y="16" width="16" height="16" fill="#939393"/>
<rect x="128" y="32" width="16" height="16" fill="#939393"/>
<rect x="128" y="48" width="16" height="16" fill="white"/>
<rect x="128" y="64" width="16" height="16" fill="#939393"/>
<rect x="128" y="80" width="16" height="16" fill="#939393"/>
<rect x="128" y="96" width="16" height="16" fill="white"/>
<rect x="128" y="112" width="16" height="16" fill="#939393"/>
<rect x="128" y="128" width="16" height="16" fill="#939393"/>
<rect x="128" y="144" width="16" height="16" fill="white"/>
<rect x="128" y="160" width="16" height="16" fill="white"/>
<rect x="128" y="176" width="16" height="16" fill="white"/>
<rect x="128" y="192" width="16" height="16" fill="white"/>
<rect x="128" y="208" width="16" height="16" fill="white"/>
<rect x="128" y="224" width="16" height="16" fill="#D9D9D9"/>
<rect x="144" width="16" height="16" fill="#D9D9D9"/>
<rect width="16" height="16" transform="translate(144 16)" fill="#281414"/>
<rect x="144" y="16" width="16" height="16" fill="#939393"/>
<rect x="144" y="32" width="16" height="16" fill="#939393"/>
<rect x="144" y="48" width="16" height="16" fill="white"/>
<rect x="144" y="64" width="16" height="16" fill="#939393"/>
<rect x="144" y="80" width="16" height="16" fill="#939393"/>
<rect x="144" y="96" width="16" height="16" fill="white"/>
<rect x="144" y="112" width="16" height="16" fill="#939393"/>
<rect x="144" y="128" width="16" height="16" fill="#939393"/>
<rect x="144" y="144" width="16" height="16" fill="white"/>
<rect x="144" y="160" width="16" height="16" fill="white"/>
<rect x="144" y="176" width="16" height="16" fill="white"/>
<rect x="144" y="192" width="16" height="16" fill="white"/>
<rect x="144" y="208" width="16" height="16" fill="white"/>
<rect x="144" y="224" width="16" height="16" fill="#D9D9D9"/>
<rect x="160" width="16" height="16" fill="#D9D9D9"/>
<rect width="16" height="16" transform="translate(160 16)" fill="#281414"/>
<rect x="160" y="16" width="16" height="16" fill="#939393"/>
<rect x="160" y="32" width="16" height="16" fill="#939393"/>
<rect x="160" y="48" width="16" height="16" fill="white"/>
<rect x="160" y="64" width="16" height="16" fill="#939393"/>
<rect x="160" y="80" width="16" height="16" fill="#939393"/>
<rect x="160" y="96" width="16" height="16" fill="white"/>
<rect x="160" y="112" width="16" height="16" fill="#939393"/>
<rect x="160" y="128" width="16" height="16" fill="#939393"/>
<rect x="160" y="144" width="16" height="16" fill="white"/>
<rect x="160" y="160" width="16" height="16" fill="white"/>
<rect x="160" y="176" width="16" height="16" fill="white"/>
<rect x="160" y="192" width="16" height="16" fill="white"/>
<rect x="160" y="208" width="16" height="16" fill="white"/>
<rect x="160" y="224" width="16" height="16" fill="#D9D9D9"/>
<rect x="176" width="16" height="16" fill="#D9D9D9"/>
<rect width="16" height="16" transform="translate(176 16)" fill="#281414"/>
<rect x="176" y="16" width="16" height="16" fill="#939393"/>
<rect x="176" y="32" width="16" height="16" fill="#939393"/>
<rect x="176" y="48" width="16" height="16" fill="white"/>
<rect x="176" y="64" width="16" height="16" fill="#939393"/>
<rect x="176" y="80" width="16" height="16" fill="#939393"/>
<rect x="176" y="96" width="16" height="16" fill="white"/>
<rect x="176" y="112" width="16" height="16" fill="#939393"/>
<rect x="176" y="128" width="16" height="16" fill="#939393"/>
<rect x="176" y="144" width="16" height="16" fill="white"/>
<rect x="176" y="160" width="16" height="16" fill="white"/>
<rect x="176" y="176" width="16" height="16" fill="white"/>
<rect x="176" y="192" width="16" height="16" fill="white"/>
<rect x="176" y="208" width="16" height="16" fill="white"/>
<rect x="176" y="224" width="16" height="16" fill="#D9D9D9"/>
<rect x="192" width="16" height="16" fill="#D9D9D9"/>
<rect width="16" height="16" transform="translate(192 16)" fill="#281414"/>
<rect x="192" y="16" width="16" height="16" fill="#939393"/>
<rect x="192" y="32" width="16" height="16" fill="#939393"/>
<rect x="192" y="48" width="16" height="16" fill="white"/>
<rect x="192" y="64" width="16" height="16" fill="#939393"/>
<rect x="192" y="80" width="16" height="16" fill="#939393"/>
<rect x="192" y="96" width="16" height="16" fill="white"/>
<rect x="192" y="112" width="16" height="16" fill="#939393"/>
<rect x="192" y="128" width="16" height="16" fill="#939393"/>
<rect x="192" y="144" width="16" height="16" fill="white"/>
<rect x="192" y="160" width="16" height="16" fill="white"/>
<rect x="192" y="176" width="16" height="16" fill="white"/>
<rect x="192" y="192" width="16" height="16" fill="white"/>
<rect x="192" y="208" width="16" height="16" fill="white"/>
<rect x="192" y="224" width="16" height="16" fill="#D9D9D9"/>
<rect x="208" width="16" height="16" fill="#D9D9D9"/>
<rect width="16" height="16" transform="translate(208 16)" fill="#281414"/>
<rect x="208" y="16" width="16" height="16" fill="#939393"/>
<rect x="208" y="32" width="16" height="16" fill="#939393"/>
<rect x="208" y="48" width="16" height="16" fill="white"/>
<rect x="208" y="64" width="16" height="16" fill="#939393"/>
<rect x="208" y="80" width="16" height="16" fill="#939393"/>
<rect x="208" y="96" width="16" height="16" fill="white"/>
<rect x="208" y="112" width="16" height="16" fill="#939393"/>
<rect x="208" y="128" width="16" height="16" fill="#939393"/>
<rect x="208" y="144" width="16" height="16" fill="white"/>
<rect x="208" y="160" width="16" height="16" fill="white"/>
<rect x="208" y="176" width="16" height="16" fill="white"/>
<rect x="208" y="192" width="16" height="16" fill="white"/>
<rect x="208" y="208" width="16" height="16" fill="white"/>
<rect x="208" y="224" width="16" height="16" fill="#D9D9D9"/>
<rect x="224" width="16" height="16" fill="#D9D9D9"/>
<rect width="16" height="16" transform="translate(224 16)" fill="#281414"/>
<rect x="224" y="16" width="16" height="16" fill="#939393"/>
<rect x="224" y="32" width="16" height="16" fill="#939393"/>
<rect x="224" y="48" width="16" height="16" fill="white"/>
<rect x="224" y="64" width="16" height="16" fill="#939393"/>
<rect x="224" y="80" width="16" height="16" fill="#939393"/>
<rect x="224" y="96" width="16" height="16" fill="white"/>
<rect x="224" y="112" width="16" height="16" fill="#939393"/>
<rect x="224" y="128" width="16" height="16" fill="#939393"/>
<rect x="224" y="144" width="16" height="16" fill="white"/>
<rect x="224" y="160" width="16" height="16" fill="white"/>
<rect x="224" y="176" width="16" height="16" fill="white"/>
<rect x="224" y="192" width="16" height="16" fill="white"/>
<rect x="224" y="208" width="16" height="16" fill="white"/>
<rect x="224" y="224" width="16" height="16" fill="#D9D9D9"/>
<rect x="240" width="16" height="16" fill="#D9D9D9"/>
<rect width="16" height="16" transform="translate(240 16)" fill="#281414"/>
<rect x="240" y="16" width="16" height="16" fill="#939393"/>
<rect x="240" y="32" width="16" height="16" fill="#939393"/>
<rect x="240" y="48" width="16" height="16" fill="white"/>
<rect x="240" y="64" width="16" height="16" fill="#939393"/>
<rect x="240" y="80" width="16" height="16" fill="#939393"/>
<rect x="240" y="96" width="16" height="16" fill="white"/>
<rect x="240" y="112" width="16" height="16" fill="#939393"/>
<rect x="240" y="128" width="16" height="16" fill="#939393"/>
<rect x="240" y="144" width="16" height="16" fill="white"/>
<rect x="240" y="160" width="16" height="16" fill="white"/>
<rect x="240" y="176" width="16" height="16" fill="white"/>
<rect x="240" y="192" width="16" height="16" fill="white"/>
<rect x="240" y="208" width="16" height="16" fill="white"/>
<rect x="240" y="224" width="16" height="16" fill="#D9D9D9"/>
<rect x="256" width="16" height="16" fill="#D9D9D9"/>
<rect width="16" height="16" transform="translate(256 16)" fill="#281414"/>
<rect x="256" y="16" width="16" height="16" fill="#939393"/>
<rect x="256" y="32" width="16" height="16" fill="#939393"/>
<rect x="256" y="48" width="16" height="16" fill="white"/>
<rect x="256" y="64" width="16" height="16" fill="#939393"/>
<rect x="256" y="80" width="16" height="16" fill="#939393"/>
<rect x="256" y="96" width="16" height="16" fill="white"/>
<rect x="256" y="112" width="16" height="16" fill="#939393"/>
<rect x="256" y="128" width="16" height="16" fill="#939393"/>
<rect x="256" y="144" width="16" height="16" fill="white"/>
<rect x="256" y="160" width="16" height="16" fill="white"/>
<rect x="256" y="176" width="16" height="16" fill="white"/>
<rect x="256" y="192" width="16" height="16" fill="white"/>
<rect x="256" y="208" width="16" height="16" fill="white"/>
<rect x="256" y="224" width="16" height="16" fill="#D9D9D9"/>
<rect x="272" width="16" height="16" fill="#D9D9D9"/>
<rect width="16" height="16" transform="translate(272 16)" fill="#281414"/>
<rect x="272" y="16" width="16" height="16" fill="#939393"/>
<rect x="272" y="32" width="16" height="16" fill="#939393"/>
<rect x="272" y="48" width="16" height="16" fill="white"/>
<rect x="272" y="64" width="16" height="16" fill="#939393"/>
<rect x="272" y="80" width="16" height="16" fill="#939393"/>
<rect x="272" y="96" width="16" height="16" fill="white"/>
<rect x="272" y="112" width="16" height="16" fill="#939393"/>
<rect x="272" y="128" width="16" height="16" fill="#939393"/>
<rect x="272" y="144" width="16" height="16" fill="white"/>
<rect x="272" y="160" width="16" height="16" fill="white"/>
<rect x="272" y="176" width="16" height="16" fill="white"/>
<rect x="272" y="192" width="16" height="16" fill="white"/>
<rect x="272" y="208" width="16" height="16" fill="white"/>
<rect x="272" y="224" width="16" height="16" fill="#D9D9D9"/>
<rect x="288" width="16" height="16" fill="#D9D9D9"/>
<rect width="16" height="16" transform="translate(288 16)" fill="#281414"/>
<rect x="288" y="16" width="16" height="16" fill="#939393"/>
<rect x="288" y="32" width="16" height="16" fill="#939393"/>
<rect x="288" y="48" width="16" height="16" fill="white"/>
<rect x="288" y="64" width="16" height="16" fill="#939393"/>
<rect x="288" y="80" width="16" height="16" fill="#939393"/>
<rect x="288" y="96" width="16" height="16" fill="white"/>
<rect x="288" y="112" width="16" height="16" fill="#939393"/>
<rect x="288" y="128" width="16" height="16" fill="#939393"/>
<rect x="288" y="144" width="16" height="16" fill="white"/>
<rect x="288" y="160" width="16" height="16" fill="white"/>
<rect x="288" y="176" width="16" height="16" fill="white"/>
<rect x="288" y="192" width="16" height="16" fill="white"/>
<rect x="288" y="208" width="16" height="16" fill="white"/>
<rect x="288" y="224" width="16" height="16" fill="#D9D9D9"/>
<rect x="304" width="16" height="16" fill="#D9D9D9"/>
<rect x="304" y="16" width="16" height="16" fill="#D9D9D9"/>
<rect x="304" y="32" width="16" height="16" fill="#D9D9D9"/>
<rect x="304" y="48" width="16" height="16" fill="#D9D9D9"/>
<rect x="304" y="64" width="16" height="16" fill="#D9D9D9"/>
<rect x="304" y="80" width="16" height="16" fill="#D9D9D9"/>
<rect x="304" y="96" width="16" height="16" fill="#D9D9D9"/>
<rect x="304" y="112" width="16" height="16" fill="#D9D9D9"/>
<rect x="304" y="128" width="16" height="16" fill="#D9D9D9"/>
<rect x="304" y="144" width="16" height="16" fill="#D9D9D9"/>
<rect x="304" y="160" width="16" height="16" fill="#D9D9D9"/>
<rect x="304" y="176" width="16" height="16" fill="#D9D9D9"/>
<rect x="304" y="192" width="16" height="16" fill="#D9D9D9"/>
<rect x="304" y="208" width="16" height="16" fill="#D9D9D9"/>
<rect x="304" y="224" width="16" height="16" fill="#D9D9D9"/>
<rect x="16.5" y="16.5" width="15" height="15" stroke="black"/>
<rect x="16" y="16" width="16" height="16" fill="#939393"/>
<path d="M72.8359 177.777C72.8359 177.305 72.8926 176.871 73.0059 176.477C73.123 176.078 73.291 175.736 73.5098 175.451C73.7285 175.166 73.9941 174.943 74.3066 174.783C74.6191 174.623 74.9727 174.543 75.3672 174.543C75.6211 174.543 75.8535 174.572 76.0645 174.631C76.2793 174.689 76.4727 174.775 76.6445 174.889C76.7383 174.947 76.8262 175.016 76.9082 175.094C76.9941 175.172 77.0742 175.258 77.1484 175.352L77.2012 174.66H78.1855V180.865C78.1855 181.283 78.1191 181.654 77.9863 181.979C77.8574 182.303 77.6758 182.578 77.4414 182.805C77.2031 183.031 76.9199 183.203 76.5918 183.32C76.2637 183.438 75.9004 183.496 75.502 183.496C75.3379 183.496 75.1504 183.477 74.9395 183.438C74.7285 183.402 74.5156 183.342 74.3008 183.256C74.082 183.174 73.8711 183.062 73.668 182.922C73.4688 182.781 73.2969 182.607 73.1523 182.4L73.7148 181.75C73.8477 181.91 73.9844 182.045 74.125 182.154C74.2656 182.268 74.4082 182.357 74.5527 182.424C74.6973 182.49 74.8418 182.537 74.9863 182.564C75.1309 182.596 75.2754 182.611 75.4199 182.611C75.6777 182.611 75.9102 182.574 76.1172 182.5C76.3242 182.426 76.502 182.316 76.6504 182.172C76.7949 182.031 76.9062 181.855 76.9844 181.645C77.0625 181.434 77.1016 181.191 77.1016 180.918V180.373C77.0195 180.467 76.9316 180.553 76.8379 180.631C76.748 180.709 76.6504 180.777 76.5449 180.836C76.3809 180.926 76.1992 180.994 76 181.041C75.8008 181.092 75.5859 181.117 75.3555 181.117C74.9688 181.117 74.6191 181.035 74.3066 180.871C73.9941 180.707 73.7305 180.48 73.5156 180.191C73.2969 179.902 73.1289 179.562 73.0117 179.172C72.8945 178.777 72.8359 178.354 72.8359 177.9V177.777ZM73.9199 177.9C73.9199 178.209 73.9512 178.502 74.0137 178.779C74.0801 179.057 74.1836 179.301 74.3242 179.512C74.4609 179.723 74.6367 179.891 74.8516 180.016C75.0664 180.137 75.3242 180.197 75.625 180.197C75.8125 180.197 75.9805 180.176 76.1289 180.133C76.2812 180.086 76.418 180.021 76.5391 179.939C76.6562 179.857 76.7617 179.76 76.8555 179.646C76.9492 179.533 77.0312 179.408 77.1016 179.271V176.365C77.0312 176.232 76.9492 176.111 76.8555 176.002C76.7617 175.893 76.6543 175.797 76.5332 175.715C76.4121 175.637 76.2773 175.576 76.1289 175.533C75.9805 175.486 75.8164 175.463 75.6367 175.463C75.332 175.463 75.0703 175.525 74.8516 175.65C74.6367 175.775 74.4609 175.943 74.3242 176.154C74.1836 176.369 74.0801 176.617 74.0137 176.898C73.9512 177.176 73.9199 177.469 73.9199 177.777V177.9ZM84.4082 181C84.3652 180.918 84.3301 180.816 84.3027 180.695C84.2793 180.57 84.2617 180.441 84.25 180.309C84.1406 180.418 84.0176 180.521 83.8809 180.619C83.748 180.717 83.6016 180.803 83.4414 180.877C83.2773 180.951 83.1035 181.01 82.9199 181.053C82.7363 181.096 82.541 181.117 82.334 181.117C81.998 181.117 81.6934 181.068 81.4199 180.971C81.1504 180.873 80.9219 180.74 80.7344 180.572C80.543 180.408 80.3945 180.213 80.2891 179.986C80.1875 179.756 80.1367 179.508 80.1367 179.242C80.1367 178.895 80.2051 178.59 80.3418 178.328C80.4824 178.066 80.6797 177.848 80.9336 177.672C81.1875 177.5 81.4922 177.371 81.8477 177.285C82.207 177.199 82.6074 177.156 83.0488 177.156H84.2324V176.658C84.2324 176.467 84.1973 176.295 84.127 176.143C84.0566 175.99 83.957 175.859 83.8281 175.75C83.6992 175.645 83.541 175.562 83.3535 175.504C83.1699 175.445 82.9629 175.416 82.7324 175.416C82.5176 175.416 82.3242 175.443 82.1523 175.498C81.9844 175.553 81.8418 175.625 81.7246 175.715C81.6074 175.805 81.5156 175.912 81.4492 176.037C81.3867 176.158 81.3555 176.285 81.3555 176.418H80.2656C80.2695 176.188 80.3281 175.961 80.4414 175.738C80.5586 175.516 80.7266 175.314 80.9453 175.135C81.1602 174.959 81.4219 174.816 81.7305 174.707C82.043 174.598 82.3965 174.543 82.791 174.543C83.1504 174.543 83.4844 174.588 83.793 174.678C84.1016 174.764 84.3691 174.895 84.5957 175.07C84.8184 175.25 84.9941 175.473 85.123 175.738C85.252 176.004 85.3164 176.314 85.3164 176.67V179.617C85.3164 179.828 85.3359 180.053 85.375 180.291C85.4141 180.525 85.4688 180.73 85.5391 180.906V181H84.4082ZM82.4922 180.174C82.7031 180.174 82.9004 180.146 83.084 180.092C83.2676 180.037 83.4355 179.965 83.5879 179.875C83.7363 179.785 83.8652 179.684 83.9746 179.57C84.084 179.453 84.1699 179.332 84.2324 179.207V177.924H83.2246C82.8496 177.924 82.5215 177.957 82.2402 178.023C81.9629 178.086 81.7422 178.184 81.5781 178.316C81.4609 178.41 81.3711 178.521 81.3086 178.65C81.25 178.779 81.2207 178.926 81.2207 179.09C81.2207 179.246 81.2461 179.391 81.2969 179.523C81.3516 179.656 81.4316 179.77 81.5371 179.863C81.6426 179.961 81.7754 180.037 81.9355 180.092C82.0957 180.146 82.2812 180.174 82.4922 180.174ZM87.4434 183.438V174.66H88.4336L88.4863 175.352C88.5723 175.242 88.666 175.145 88.7676 175.059C88.8691 174.969 88.9785 174.893 89.0957 174.83C89.2598 174.736 89.4414 174.666 89.6406 174.619C89.8438 174.568 90.0605 174.543 90.291 174.543C90.6973 174.543 91.0566 174.623 91.3691 174.783C91.6816 174.943 91.9434 175.166 92.1543 175.451C92.3652 175.736 92.5254 176.078 92.6348 176.477C92.7441 176.871 92.7988 177.305 92.7988 177.777V177.9C92.7988 178.354 92.7441 178.777 92.6348 179.172C92.5254 179.562 92.3652 179.902 92.1543 180.191C91.9434 180.48 91.6816 180.707 91.3691 180.871C91.0605 181.035 90.707 181.117 90.3086 181.117C90.0664 181.117 89.8398 181.092 89.6289 181.041C89.4219 180.99 89.2344 180.918 89.0664 180.824C88.9648 180.766 88.8691 180.701 88.7793 180.631C88.6895 180.557 88.6055 180.477 88.5273 180.391V183.438H87.4434ZM91.7148 177.777C91.7148 177.469 91.6797 177.176 91.6094 176.898C91.543 176.617 91.4395 176.369 91.2988 176.154C91.1543 175.943 90.9727 175.775 90.7539 175.65C90.5352 175.525 90.2734 175.463 89.9688 175.463C89.8008 175.463 89.6445 175.482 89.5 175.521C89.3594 175.561 89.2324 175.617 89.1191 175.691C88.9941 175.766 88.8828 175.857 88.7852 175.967C88.6875 176.076 88.6016 176.197 88.5273 176.33V179.383C88.5938 179.5 88.6699 179.609 88.7559 179.711C88.8418 179.812 88.9395 179.898 89.0488 179.969C89.1738 180.051 89.3125 180.115 89.4648 180.162C89.6211 180.209 89.793 180.232 89.9805 180.232C90.2812 180.232 90.541 180.17 90.7598 180.045C90.9785 179.916 91.1582 179.744 91.2988 179.529C91.4395 179.314 91.543 179.066 91.6094 178.785C91.6797 178.504 91.7148 178.209 91.7148 177.9V177.777ZM107.09 176.43H101.857V175.486H107.09V176.43ZM107.09 178.861H101.857V177.924H107.09V178.861ZM121.633 177.736C121.633 178.279 121.57 178.762 121.445 179.184C121.32 179.602 121.141 179.953 120.906 180.238C120.672 180.527 120.385 180.746 120.045 180.895C119.705 181.043 119.316 181.117 118.879 181.117C118.445 181.117 118.057 181.045 117.713 180.9C117.369 180.752 117.078 180.531 116.84 180.238C116.602 179.953 116.42 179.602 116.295 179.184C116.17 178.762 116.107 178.279 116.107 177.736V175.738C116.107 175.195 116.17 174.715 116.295 174.297C116.42 173.875 116.602 173.52 116.84 173.23C117.074 172.941 117.361 172.723 117.701 172.574C118.045 172.422 118.434 172.346 118.867 172.346C119.305 172.346 119.693 172.422 120.033 172.574C120.377 172.723 120.668 172.941 120.906 173.23C121.141 173.52 121.32 173.875 121.445 174.297C121.57 174.715 121.633 175.195 121.633 175.738V177.736ZM117.197 177.52L120.52 174.971C120.488 174.689 120.432 174.441 120.35 174.227C120.271 174.008 120.164 173.826 120.027 173.682C119.895 173.533 119.73 173.422 119.535 173.348C119.344 173.273 119.121 173.236 118.867 173.236C118.609 173.236 118.381 173.277 118.182 173.359C117.986 173.438 117.82 173.553 117.684 173.705C117.52 173.896 117.396 174.145 117.314 174.449C117.236 174.75 117.197 175.1 117.197 175.498V176.928C117.197 177.025 117.197 177.123 117.197 177.221C117.197 177.318 117.197 177.418 117.197 177.52ZM120.543 177.965V176.758C120.543 176.699 120.543 176.588 120.543 176.424C120.543 176.256 120.543 176.117 120.543 176.008L117.227 178.545C117.262 178.83 117.324 179.082 117.414 179.301C117.504 179.516 117.621 179.693 117.766 179.834C117.898 179.967 118.059 180.068 118.246 180.139C118.434 180.205 118.645 180.238 118.879 180.238C119.125 180.238 119.344 180.201 119.535 180.127C119.727 180.053 119.889 179.945 120.021 179.805C120.201 179.613 120.332 179.363 120.414 179.055C120.5 178.746 120.543 178.383 120.543 177.965ZM126.232 180.748C126.232 181.139 126.141 181.537 125.957 181.943C125.773 182.35 125.525 182.691 125.213 182.969L124.539 182.6C124.727 182.326 124.859 182.035 124.938 181.727C125.016 181.418 125.055 181.098 125.055 180.766V179.717H126.232V180.748ZM141.414 181H140.33V173.852L138.098 174.701V173.711L141.326 172.469H141.414V181ZM147.854 180.748C147.854 181.139 147.762 181.537 147.578 181.943C147.395 182.35 147.146 182.691 146.834 182.969L146.16 182.6C146.348 182.326 146.48 182.035 146.559 181.727C146.637 181.418 146.676 181.098 146.676 180.766V179.717H147.854V180.748ZM164.752 181H159.162V180.221L161.957 177.115C162.207 176.838 162.416 176.592 162.584 176.377C162.752 176.162 162.887 175.963 162.988 175.779C163.09 175.6 163.162 175.43 163.205 175.27C163.248 175.105 163.27 174.938 163.27 174.766C163.27 174.555 163.234 174.357 163.164 174.174C163.098 173.986 163 173.824 162.871 173.688C162.738 173.551 162.578 173.443 162.391 173.365C162.207 173.283 161.998 173.242 161.764 173.242C161.479 173.242 161.23 173.283 161.02 173.365C160.812 173.447 160.641 173.562 160.504 173.711C160.363 173.863 160.258 174.047 160.188 174.262C160.121 174.477 160.088 174.717 160.088 174.982H158.998C158.998 174.623 159.061 174.285 159.186 173.969C159.311 173.648 159.492 173.369 159.73 173.131C159.965 172.893 160.252 172.703 160.592 172.562C160.936 172.422 161.326 172.352 161.764 172.352C162.166 172.352 162.527 172.412 162.848 172.533C163.172 172.65 163.445 172.814 163.668 173.025C163.891 173.236 164.061 173.486 164.178 173.775C164.299 174.064 164.359 174.379 164.359 174.719C164.359 174.973 164.316 175.225 164.23 175.475C164.145 175.721 164.029 175.965 163.885 176.207C163.736 176.449 163.564 176.689 163.369 176.928C163.178 177.162 162.975 177.396 162.76 177.631L160.469 180.115H164.752V181ZM169.475 180.748C169.475 181.139 169.383 181.537 169.199 181.943C169.016 182.35 168.768 182.691 168.455 182.969L167.781 182.6C167.969 182.326 168.102 182.035 168.18 181.727C168.258 181.418 168.297 181.098 168.297 180.766V179.717H169.475V180.748ZM182.406 176.213H183.18C183.453 176.213 183.693 176.176 183.9 176.102C184.111 176.027 184.289 175.926 184.434 175.797C184.574 175.668 184.682 175.514 184.756 175.334C184.83 175.154 184.867 174.957 184.867 174.742C184.867 174.488 184.834 174.268 184.768 174.08C184.701 173.889 184.604 173.73 184.475 173.605C184.35 173.484 184.193 173.395 184.006 173.336C183.822 173.273 183.611 173.242 183.373 173.242C183.143 173.242 182.932 173.277 182.74 173.348C182.553 173.414 182.393 173.512 182.26 173.641C182.123 173.77 182.018 173.924 181.943 174.104C181.869 174.283 181.832 174.484 181.832 174.707H180.742C180.742 174.383 180.805 174.078 180.93 173.793C181.059 173.504 181.238 173.252 181.469 173.037C181.699 172.826 181.975 172.66 182.295 172.539C182.619 172.414 182.979 172.352 183.373 172.352C183.756 172.352 184.105 172.404 184.422 172.51C184.738 172.611 185.01 172.764 185.236 172.967C185.463 173.17 185.639 173.422 185.764 173.723C185.889 174.023 185.951 174.371 185.951 174.766C185.951 174.93 185.926 175.1 185.875 175.275C185.824 175.451 185.746 175.621 185.641 175.785C185.535 175.953 185.398 176.111 185.23 176.26C185.066 176.404 184.869 176.525 184.639 176.623C184.916 176.713 185.146 176.83 185.33 176.975C185.518 177.119 185.668 177.281 185.781 177.461C185.891 177.641 185.967 177.83 186.01 178.029C186.057 178.229 186.08 178.426 186.08 178.621C186.08 179.02 186.012 179.373 185.875 179.682C185.738 179.99 185.549 180.25 185.307 180.461C185.064 180.676 184.777 180.84 184.445 180.953C184.117 181.062 183.762 181.117 183.379 181.117C183.004 181.117 182.65 181.064 182.318 180.959C181.99 180.854 181.705 180.699 181.463 180.496C181.221 180.293 181.027 180.045 180.883 179.752C180.742 179.459 180.672 179.125 180.672 178.75H181.756C181.756 178.973 181.793 179.176 181.867 179.359C181.945 179.543 182.055 179.699 182.195 179.828C182.336 179.957 182.506 180.057 182.705 180.127C182.908 180.197 183.133 180.232 183.379 180.232C183.625 180.232 183.848 180.201 184.047 180.139C184.246 180.072 184.416 179.973 184.557 179.84C184.697 179.707 184.805 179.543 184.879 179.348C184.957 179.148 184.996 178.914 184.996 178.645C184.996 178.379 184.951 178.15 184.861 177.959C184.775 177.764 184.654 177.602 184.498 177.473C184.338 177.344 184.145 177.248 183.918 177.186C183.695 177.123 183.449 177.092 183.18 177.092H182.406V176.213ZM191.096 180.748C191.096 181.139 191.004 181.537 190.82 181.943C190.637 182.35 190.389 182.691 190.076 182.969L189.402 182.6C189.59 182.326 189.723 182.035 189.801 181.727C189.879 181.418 189.918 181.098 189.918 180.766V179.717H191.096V180.748ZM207.156 178.135H208.346V179.02H207.156V181H206.072V179.02H202.182V178.381L206.002 172.469H207.156V178.135ZM203.383 178.135H206.072V173.91L205.896 174.238L203.383 178.135ZM219.977 181.117C219.531 181.117 219.121 181.041 218.746 180.889C218.375 180.736 218.057 180.523 217.791 180.25C217.525 179.977 217.318 179.652 217.17 179.277C217.021 178.902 216.947 178.494 216.947 178.053V177.807C216.947 177.295 217.029 176.838 217.193 176.436C217.357 176.029 217.576 175.686 217.85 175.404C218.119 175.127 218.426 174.914 218.77 174.766C219.117 174.617 219.473 174.543 219.836 174.543C220.293 174.543 220.691 174.623 221.031 174.783C221.375 174.939 221.66 175.156 221.887 175.434C222.113 175.715 222.281 176.045 222.391 176.424C222.504 176.803 222.561 177.213 222.561 177.654V178.141H218.031V178.182C218.059 178.49 218.119 178.762 218.213 178.996C218.311 179.23 218.443 179.438 218.611 179.617C218.783 179.809 218.99 179.959 219.232 180.068C219.475 180.178 219.742 180.232 220.035 180.232C220.422 180.232 220.766 180.154 221.066 179.998C221.367 179.842 221.617 179.635 221.816 179.377L222.479 179.893C222.268 180.213 221.951 180.498 221.529 180.748C221.111 180.994 220.594 181.117 219.977 181.117ZM219.836 175.434C219.617 175.434 219.41 175.475 219.215 175.557C219.02 175.635 218.844 175.75 218.688 175.902C218.531 176.059 218.398 176.25 218.289 176.477C218.184 176.699 218.109 176.957 218.066 177.25H221.477V177.197C221.477 177.002 221.439 176.793 221.365 176.57C221.291 176.344 221.188 176.148 221.055 175.984C220.922 175.82 220.754 175.688 220.551 175.586C220.352 175.484 220.113 175.434 219.836 175.434ZM226.949 173.125V174.66H229.363V175.498H226.949V178.943C226.949 179.189 226.98 179.393 227.043 179.553C227.105 179.713 227.191 179.84 227.301 179.934C227.41 180.031 227.535 180.1 227.676 180.139C227.82 180.178 227.973 180.197 228.133 180.197C228.25 180.197 228.371 180.191 228.496 180.18C228.621 180.164 228.744 180.146 228.865 180.127C228.982 180.107 229.092 180.088 229.193 180.068C229.299 180.045 229.385 180.025 229.451 180.01L229.604 180.777C229.514 180.832 229.404 180.881 229.275 180.924C229.146 180.963 229.006 180.996 228.854 181.023C228.701 181.055 228.539 181.078 228.367 181.094C228.199 181.109 228.031 181.117 227.863 181.117C227.582 181.117 227.318 181.078 227.072 181C226.83 180.918 226.619 180.789 226.439 180.613C226.26 180.441 226.117 180.219 226.012 179.945C225.91 179.668 225.859 179.334 225.859 178.943V175.498H224.195V174.66H225.859V173.125H226.949ZM234.291 180.238C234.486 180.238 234.676 180.207 234.859 180.145C235.047 180.082 235.213 179.994 235.357 179.881C235.502 179.771 235.617 179.643 235.703 179.494C235.793 179.342 235.84 179.178 235.844 179.002H236.869C236.865 179.283 236.791 179.553 236.646 179.811C236.506 180.064 236.316 180.287 236.078 180.479C235.84 180.674 235.566 180.83 235.258 180.947C234.949 181.061 234.627 181.117 234.291 181.117C233.811 181.117 233.391 181.031 233.031 180.859C232.672 180.688 232.373 180.455 232.135 180.162C231.893 179.873 231.711 179.539 231.59 179.16C231.469 178.777 231.408 178.375 231.408 177.953V177.707C231.408 177.289 231.469 176.889 231.59 176.506C231.711 176.123 231.893 175.785 232.135 175.492C232.373 175.203 232.672 174.973 233.031 174.801C233.391 174.629 233.811 174.543 234.291 174.543C234.666 174.543 235.01 174.604 235.322 174.725C235.639 174.842 235.912 175.002 236.143 175.205C236.369 175.412 236.547 175.656 236.676 175.938C236.805 176.219 236.869 176.52 236.869 176.84H235.844C235.84 176.648 235.797 176.469 235.715 176.301C235.637 176.129 235.529 175.979 235.393 175.85C235.256 175.721 235.092 175.619 234.9 175.545C234.713 175.471 234.51 175.434 234.291 175.434C233.955 175.434 233.672 175.502 233.441 175.639C233.215 175.771 233.031 175.945 232.891 176.16C232.75 176.379 232.648 176.623 232.586 176.893C232.527 177.162 232.498 177.434 232.498 177.707V177.953C232.498 178.23 232.527 178.506 232.586 178.779C232.648 179.049 232.75 179.291 232.891 179.506C233.027 179.725 233.209 179.902 233.436 180.039C233.666 180.172 233.951 180.238 234.291 180.238ZM240.684 180.297C240.684 180.066 240.754 179.869 240.895 179.705C241.035 179.541 241.248 179.459 241.533 179.459C241.814 179.459 242.027 179.541 242.172 179.705C242.32 179.865 242.395 180.062 242.395 180.297C242.395 180.527 242.32 180.721 242.172 180.877C242.023 181.033 241.811 181.111 241.533 181.111C241.252 181.111 241.039 181.033 240.895 180.877C240.754 180.717 240.684 180.523 240.684 180.297Z" fill="black"/>
<path d="M9.74609 53.6523C9.64193 53.5638 9.54687 53.4701 9.46094 53.3711C9.3776 53.2721 9.30469 53.1693 9.24219 53.0625C9.13281 52.8802 9.05208 52.6836 9 52.4727C8.94531 52.2617 8.91927 52.0404 8.92187 51.8086C8.92448 51.5742 8.95964 51.3581 9.02734 51.1602C9.09766 50.9648 9.19401 50.7891 9.31641 50.6328C9.4362 50.4766 9.57812 50.3398 9.74219 50.2227C9.90625 50.1055 10.0846 50.0078 10.2773 49.9297C10.4674 49.849 10.6667 49.7878 10.875 49.7461C11.0859 49.707 11.2982 49.6862 11.5117 49.6836L12.1719 49.6836C12.3828 49.6862 12.5924 49.7044 12.8008 49.7383C13.0117 49.7747 13.2135 49.8294 13.4062 49.9023C13.599 49.9753 13.7773 50.0664 13.9414 50.1758C14.1081 50.2852 14.2526 50.4167 14.375 50.5703C14.4948 50.7214 14.5898 50.8932 14.6602 51.0859C14.7305 51.2786 14.7656 51.4948 14.7656 51.7344C14.7656 52 14.724 52.2448 14.6406 52.4687C14.5599 52.6927 14.444 52.888 14.293 53.0547C14.1393 53.2214 13.9544 53.3555 13.7383 53.457C13.5247 53.5586 13.2852 53.6211 13.0195 53.6445L13.0195 52.9297C13.1836 52.901 13.3346 52.8568 13.4727 52.7969C13.6133 52.737 13.7331 52.6589 13.832 52.5625C13.931 52.4635 14.0078 52.3464 14.0625 52.2109C14.1198 52.0755 14.1484 51.918 14.1484 51.7383C14.1484 51.5664 14.1185 51.4141 14.0586 51.2812C14.0013 51.1484 13.9232 51.0326 13.8242 50.9336C13.7253 50.8346 13.6094 50.7526 13.4766 50.6875C13.3464 50.6224 13.2083 50.569 13.0625 50.5273C12.9167 50.4857 12.7682 50.4557 12.6172 50.4375C12.4661 50.4193 12.3203 50.4102 12.1797 50.4102L11.5117 50.4102C11.3685 50.4128 11.2201 50.4245 11.0664 50.4453C10.9154 50.4687 10.7669 50.5039 10.6211 50.5508C10.4753 50.5977 10.3372 50.6576 10.207 50.7305C10.0768 50.8034 9.96224 50.8919 9.86328 50.9961C9.76432 51.0977 9.6849 51.2161 9.625 51.3516C9.56771 51.487 9.53776 51.6406 9.53516 51.8125C9.53255 51.9115 9.53646 52.0143 9.54687 52.1211C9.55729 52.2305 9.57812 52.3359 9.60937 52.4375C9.64062 52.5391 9.68229 52.6341 9.73437 52.7227C9.78906 52.8112 9.85937 52.8854 9.94531 52.9453L11.2227 52.9531L11.2227 51.7969L11.832 51.7969L11.832 53.6406L9.74609 53.6523ZM10.4727 57.4922L10.4727 55.5937L9 55.1367L9 54.4141L14.6875 56.25L14.6875 56.8555L9 58.6602L9 57.9414L10.4727 57.4922ZM11.1016 55.7891L11.1016 57.3008L13.5703 56.5508L11.1016 55.7891ZM11.2812 60.3711L9 60.3711L9 59.6484L14.6875 59.6484L14.6875 61.4922C14.6823 61.7474 14.6419 61.9883 14.5664 62.2148C14.4909 62.444 14.3815 62.6445 14.2383 62.8164C14.0951 62.9883 13.918 63.1237 13.707 63.2227C13.4961 63.3242 13.2539 63.375 12.9805 63.375C12.707 63.375 12.4648 63.3242 12.2539 63.2227C12.0456 63.1237 11.8698 62.9883 11.7266 62.8164C11.5833 62.6445 11.474 62.444 11.3984 62.2148C11.3229 61.9883 11.2839 61.7474 11.2812 61.4922L11.2812 60.3711ZM11.875 60.3711L11.875 61.4922C11.8776 61.6589 11.9036 61.8125 11.9531 61.9531C12.0052 62.0937 12.0781 62.2161 12.1719 62.3203C12.2656 62.4245 12.3789 62.5052 12.5117 62.5625C12.6471 62.6224 12.8008 62.6523 12.9727 62.6523C13.1445 62.6523 13.2995 62.6224 13.4375 62.5625C13.5755 62.5052 13.6927 62.4258 13.7891 62.3242C13.8854 62.2201 13.9596 62.0964 14.0117 61.9531C14.0638 61.8125 14.0911 61.6589 14.0937 61.4922L14.0937 60.3711L11.875 60.3711Z" fill="black"/>
<path d="M9.74609 100.652C9.64193 100.564 9.54687 100.47 9.46094 100.371C9.3776 100.272 9.30469 100.169 9.24219 100.062C9.13281 99.8802 9.05208 99.6836 9 99.4727C8.94531 99.2617 8.91927 99.0404 8.92187 98.8086C8.92448 98.5742 8.95964 98.3581 9.02734 98.1602C9.09766 97.9648 9.19401 97.7891 9.31641 97.6328C9.4362 97.4766 9.57812 97.3398 9.74219 97.2227C9.90625 97.1055 10.0846 97.0078 10.2773 96.9297C10.4674 96.849 10.6667 96.7878 10.875 96.7461C11.0859 96.707 11.2982 96.6862 11.5117 96.6836L12.1719 96.6836C12.3828 96.6862 12.5924 96.7044 12.8008 96.7383C13.0117 96.7747 13.2135 96.8294 13.4062 96.9023C13.599 96.9753 13.7773 97.0664 13.9414 97.1758C14.1081 97.2852 14.2526 97.4167 14.375 97.5703C14.4948 97.7214 14.5898 97.8932 14.6602 98.0859C14.7305 98.2786 14.7656 98.4948 14.7656 98.7344C14.7656 99 14.724 99.2448 14.6406 99.4687C14.5599 99.6927 14.444 99.888 14.293 100.055C14.1393 100.221 13.9544 100.355 13.7383 100.457C13.5247 100.559 13.2852 100.621 13.0195 100.645L13.0195 99.9297C13.1836 99.901 13.3346 99.8568 13.4727 99.7969C13.6133 99.737 13.7331 99.6589 13.832 99.5625C13.931 99.4635 14.0078 99.3464 14.0625 99.2109C14.1198 99.0755 14.1484 98.918 14.1484 98.7383C14.1484 98.5664 14.1185 98.4141 14.0586 98.2812C14.0013 98.1484 13.9232 98.0326 13.8242 97.9336C13.7253 97.8346 13.6094 97.7526 13.4766 97.6875C13.3464 97.6224 13.2083 97.569 13.0625 97.5273C12.9167 97.4857 12.7682 97.4557 12.6172 97.4375C12.4661 97.4193 12.3203 97.4102 12.1797 97.4102L11.5117 97.4102C11.3685 97.4128 11.2201 97.4245 11.0664 97.4453C10.9154 97.4687 10.7669 97.5039 10.6211 97.5508C10.4753 97.5977 10.3372 97.6576 10.207 97.7305C10.0768 97.8034 9.96224 97.8919 9.86328 97.9961C9.76432 98.0977 9.6849 98.2161 9.625 98.3516C9.56771 98.487 9.53776 98.6406 9.53516 98.8125C9.53255 98.9115 9.53646 99.0143 9.54687 99.1211C9.55729 99.2305 9.57812 99.3359 9.60937 99.4375C9.64062 99.5391 9.68229 99.6341 9.73437 99.7227C9.78906 99.8112 9.85937 99.8854 9.94531 99.9453L11.2227 99.9531L11.2227 98.7969L11.832 98.7969L11.832 100.641L9.74609 100.652ZM10.4727 104.492L10.4727 102.594L9 102.137L9 101.414L14.6875 103.25L14.6875 103.855L9 105.66L9 104.941L10.4727 104.492ZM11.1016 102.789L11.1016 104.301L13.5703 103.551L11.1016 102.789ZM11.2812 107.371L9 107.371L9 106.648L14.6875 106.648L14.6875 108.492C14.6823 108.747 14.6419 108.988 14.5664 109.215C14.4909 109.444 14.3815 109.645 14.2383 109.816C14.0951 109.988 13.918 110.124 13.707 110.223C13.4961 110.324 13.2539 110.375 12.9805 110.375C12.707 110.375 12.4648 110.324 12.2539 110.223C12.0456 110.124 11.8698 109.988 11.7266 109.816C11.5833 109.645 11.474 109.444 11.3984 109.215C11.3229 108.988 11.2839 108.747 11.2812 108.492L11.2812 107.371ZM11.875 107.371L11.875 108.492C11.8776 108.659 11.9036 108.812 11.9531 108.953C12.0052 109.094 12.0781 109.216 12.1719 109.32C12.2656 109.424 12.3789 109.505 12.5117 109.562C12.6471 109.622 12.8008 109.652 12.9727 109.652C13.1445 109.652 13.2995 109.622 13.4375 109.562C13.5755 109.505 13.6927 109.426 13.7891 109.324C13.8854 109.22 13.9596 109.096 14.0117 108.953C14.0638 108.812 14.0911 108.659 14.0937 108.492L14.0937 107.371L11.875 107.371Z" fill="black"/>
</g>
<defs>
<clipPath id="clip0_1_3289">
<rect width="320" height="240" fill="white"/>
</clipPath>
</defs>
</svg>
