<svg width="320" height="240" viewBox="0 0 320 240" fill="none" xmlns="http://www.w3.org/2000/svg">
<g clip-path="url(#clip0_1_2383)">
<rect width="320" height="240" fill="white"/>
<rect width="16" height="16" fill="#D9D9D9"/>
<rect y="16" width="16" height="16" fill="#D9D9D9"/>
<rect y="32" width="16" height="16" fill="#D9D9D9"/>
<rect y="48" width="16" height="16" fill="#D9D9D9"/>
<rect y="64" width="16" height="16" fill="#D9D9D9"/>
<rect y="80" width="16" height="16" fill="#D9D9D9"/>
<rect y="96" width="16" height="16" fill="#D9D9D9"/>
<rect y="112" width="16" height="16" fill="#D9D9D9"/>
<rect y="128" width="16" height="16" fill="#D9D9D9"/>
<rect y="144" width="16" height="16" fill="#D9D9D9"/>
<rect y="160" width="16" height="16" fill="#D9D9D9"/>
<rect y="176" width="16" height="16" fill="#D9D9D9"/>
<rect y="192" width="16" height="16" fill="#D9D9D9"/>
<rect y="208" width="16" height="16" fill="#D9D9D9"/>
<rect y="224" width="16" height="16" fill="#D9D9D9"/>
<rect x="16" width="16" height="16" fill="#D9D9D9"/>
<rect width="16" height="16" transform="translate(16 16)" fill="#281414"/>
<rect x="16" y="16" width="16" height="16" fill="#F3F3F3"/>
<rect x="16" y="32" width="16" height="16" fill="#F3F3F3"/>
<rect x="16" y="48" width="16" height="16" fill="#F3F3F3"/>
<rect x="16" y="64" width="16" height="16" fill="white"/>
<rect x="16" y="80" width="16" height="16" fill="white"/>
<rect x="16" y="96" width="16" height="16" fill="white"/>
<rect x="16" y="112" width="16" height="16" fill="white"/>
<rect x="16" y="128" width="16" height="16" fill="white"/>
<rect x="16" y="144" width="16" height="16" fill="white"/>
<rect x="16" y="160" width="16" height="16" fill="white"/>
<rect x="16" y="176" width="16" height="16" fill="white"/>
<rect x="16" y="192" width="16" height="16" fill="white"/>
<rect x="16" y="208" width="16" height="16" fill="white"/>
<rect x="16" y="224" width="16" height="16" fill="#D9D9D9"/>
<rect x="32" width="16" height="16" fill="#D9D9D9"/>
<rect width="16" height="16" transform="translate(32 16)" fill="#281414"/>
<rect x="32" y="16" width="16" height="16" fill="#F3F3F3"/>
<rect x="32" y="32" width="16" height="16" fill="#939393"/>
<rect x="32" y="48" width="16" height="16" fill="#F3F3F3"/>
<rect x="32" y="64" width="16" height="16" fill="white"/>
<rect x="32" y="80" width="16" height="16" fill="white"/>
<rect x="32" y="96" width="16" height="16" fill="white"/>
<rect x="32" y="112" width="16" height="16" fill="white"/>
<rect x="32" y="128" width="16" height="16" fill="white"/>
<rect x="32" y="144" width="16" height="16" fill="white"/>
<rect x="32" y="160" width="16" height="16" fill="white"/>
<rect x="32" y="176" width="16" height="16" fill="white"/>
<rect x="32" y="192" width="16" height="16" fill="white"/>
<rect x="32" y="208" width="16" height="16" fill="white"/>
<rect x="32" y="224" width="16" height="16" fill="#D9D9D9"/>
<rect x="48" width="16" height="16" fill="#D9D9D9"/>
<rect width="16" height="16" transform="translate(48 16)" fill="#281414"/>
<rect x="48" y="16" width="16" height="16" fill="#F3F3F3"/>
<rect x="48" y="32" width="16" height="16" fill="#939393"/>
<rect x="48" y="48" width="16" height="16" fill="#F3F3F3"/>
<rect x="48" y="64" width="16" height="16" fill="white"/>
<rect x="48" y="80" width="16" height="16" fill="white"/>
<rect x="48" y="96" width="16" height="16" fill="white"/>
<rect x="48" y="112" width="16" height="16" fill="white"/>
<rect x="48" y="128" width="16" height="16" fill="white"/>
<rect x="48" y="144" width="16" height="16" fill="white"/>
<rect x="48" y="160" width="16" height="16" fill="white"/>
<rect x="48" y="176" width="16" height="16" fill="white"/>
<rect x="48" y="192" width="16" height="16" fill="white"/>
<rect x="48" y="208" width="16" height="16" fill="white"/>
<rect x="48" y="224" width="16" height="16" fill="#D9D9D9"/>
<rect x="64" width="16" height="16" fill="#D9D9D9"/>
<rect width="16" height="16" transform="translate(64 16)" fill="#281414"/>
<rect x="64" y="16" width="16" height="16" fill="#F3F3F3"/>
<rect x="64" y="32" width="16" height="16" fill="#F3F3F3"/>
<rect x="64" y="48" width="16" height="16" fill="#F3F3F3"/>
<rect x="64" y="64" width="16" height="16" fill="white"/>
<rect x="64" y="80" width="16" height="16" fill="white"/>
<rect x="64" y="96" width="16" height="16" fill="white"/>
<rect x="64" y="112" width="16" height="16" fill="white"/>
<rect x="64" y="128" width="16" height="16" fill="white"/>
<rect x="64" y="144" width="16" height="16" fill="white"/>
<rect x="64" y="160" width="16" height="16" fill="white"/>
<rect x="64" y="176" width="16" height="16" fill="white"/>
<rect x="64" y="192" width="16" height="16" fill="white"/>
<rect x="64" y="208" width="16" height="16" fill="white"/>
<rect x="64" y="224" width="16" height="16" fill="#D9D9D9"/>
<rect x="80" width="16" height="16" fill="#D9D9D9"/>
<rect width="16" height="16" transform="translate(80 16)" fill="#281414"/>
<rect x="80" y="16" width="16" height="16" fill="#F3F3F3"/>
<rect x="80" y="32" width="16" height="16" fill="#939393"/>
<rect x="80" y="48" width="16" height="16" fill="#F3F3F3"/>
<rect x="80" y="64" width="16" height="16" fill="white"/>
<rect x="80" y="80" width="16" height="16" fill="white"/>
<rect x="80" y="96" width="16" height="16" fill="white"/>
<rect x="80" y="112" width="16" height="16" fill="white"/>
<rect x="80" y="128" width="16" height="16" fill="white"/>
<rect x="80" y="144" width="16" height="16" fill="white"/>
<rect x="80" y="160" width="16" height="16" fill="white"/>
<rect x="80" y="176" width="16" height="16" fill="white"/>
<rect x="80" y="192" width="16" height="16" fill="white"/>
<rect x="80" y="208" width="16" height="16" fill="white"/>
<rect x="80" y="224" width="16" height="16" fill="#D9D9D9"/>
<rect x="96" width="16" height="16" fill="#D9D9D9"/>
<rect width="16" height="16" transform="translate(96 16)" fill="#281414"/>
<rect x="96" y="16" width="16" height="16" fill="#F3F3F3"/>
<rect x="96" y="32" width="16" height="16" fill="#939393"/>
<rect x="96" y="48" width="16" height="16" fill="#F3F3F3"/>
<rect x="96" y="64" width="16" height="16" fill="white"/>
<rect x="96" y="80" width="16" height="16" fill="white"/>
<rect x="96" y="96" width="16" height="16" fill="white"/>
<rect x="96" y="112" width="16" height="16" fill="white"/>
<rect x="96" y="128" width="16" height="16" fill="white"/>
<rect x="96" y="144" width="16" height="16" fill="white"/>
<rect x="96" y="160" width="16" height="16" fill="white"/>
<rect x="96" y="176" width="16" height="16" fill="white"/>
<rect x="96" y="192" width="16" height="16" fill="white"/>
<rect x="96" y="208" width="16" height="16" fill="white"/>
<rect x="96" y="224" width="16" height="16" fill="#D9D9D9"/>
<rect x="112" width="16" height="16" fill="#D9D9D9"/>
<rect width="16" height="16" transform="translate(112 16)" fill="#281414"/>
<rect x="112" y="16" width="16" height="16" fill="#F3F3F3"/>
<rect x="112" y="32" width="16" height="16" fill="#F3F3F3"/>
<rect x="112" y="48" width="16" height="16" fill="#F3F3F3"/>
<rect x="112" y="64" width="16" height="16" fill="white"/>
<rect x="112" y="80" width="16" height="16" fill="white"/>
<rect x="112" y="96" width="16" height="16" fill="white"/>
<rect x="112" y="112" width="16" height="16" fill="white"/>
<rect x="112" y="128" width="16" height="16" fill="white"/>
<rect x="112" y="144" width="16" height="16" fill="white"/>
<rect x="112" y="160" width="16" height="16" fill="white"/>
<rect x="112" y="176" width="16" height="16" fill="white"/>
<rect x="112" y="192" width="16" height="16" fill="white"/>
<rect x="112" y="208" width="16" height="16" fill="white"/>
<rect x="112" y="224" width="16" height="16" fill="#D9D9D9"/>
<rect x="128" width="16" height="16" fill="#D9D9D9"/>
<rect width="16" height="16" transform="translate(128 16)" fill="#281414"/>
<rect x="128" y="16" width="16" height="16" fill="#F3F3F3"/>
<rect x="128" y="32" width="16" height="16" fill="#939393"/>
<rect x="128" y="48" width="16" height="16" fill="#F3F3F3"/>
<rect x="128" y="64" width="16" height="16" fill="white"/>
<rect x="128" y="80" width="16" height="16" fill="white"/>
<rect x="128" y="96" width="16" height="16" fill="white"/>
<rect x="128" y="112" width="16" height="16" fill="white"/>
<rect x="128" y="128" width="16" height="16" fill="white"/>
<rect x="128" y="144" width="16" height="16" fill="white"/>
<rect x="128" y="160" width="16" height="16" fill="white"/>
<rect x="128" y="176" width="16" height="16" fill="white"/>
<rect x="128" y="192" width="16" height="16" fill="white"/>
<rect x="128" y="208" width="16" height="16" fill="white"/>
<rect x="128" y="224" width="16" height="16" fill="#D9D9D9"/>
<rect x="144" width="16" height="16" fill="#D9D9D9"/>
<rect width="16" height="16" transform="translate(144 16)" fill="#281414"/>
<rect x="144" y="16" width="16" height="16" fill="#F3F3F3"/>
<rect x="144" y="32" width="16" height="16" fill="#939393"/>
<rect x="144" y="48" width="16" height="16" fill="#F3F3F3"/>
<rect x="144" y="64" width="16" height="16" fill="white"/>
<rect x="144" y="80" width="16" height="16" fill="white"/>
<rect x="144" y="96" width="16" height="16" fill="white"/>
<rect x="144" y="112" width="16" height="16" fill="white"/>
<rect x="144" y="128" width="16" height="16" fill="white"/>
<rect x="144" y="144" width="16" height="16" fill="white"/>
<rect x="144" y="160" width="16" height="16" fill="white"/>
<rect x="144" y="176" width="16" height="16" fill="white"/>
<rect x="144" y="192" width="16" height="16" fill="white"/>
<rect x="144" y="208" width="16" height="16" fill="white"/>
<rect x="144" y="224" width="16" height="16" fill="#D9D9D9"/>
<rect x="160" width="16" height="16" fill="#D9D9D9"/>
<rect width="16" height="16" transform="translate(160 16)" fill="#281414"/>
<rect x="160" y="16" width="16" height="16" fill="#F3F3F3"/>
<rect x="160" y="32" width="16" height="16" fill="#F3F3F3"/>
<rect x="160" y="48" width="16" height="16" fill="#F3F3F3"/>
<rect x="160" y="64" width="16" height="16" fill="white"/>
<rect x="160" y="80" width="16" height="16" fill="white"/>
<rect x="160" y="96" width="16" height="16" fill="white"/>
<rect x="160" y="112" width="16" height="16" fill="white"/>
<rect x="160" y="128" width="16" height="16" fill="white"/>
<rect x="160" y="144" width="16" height="16" fill="white"/>
<rect x="160" y="160" width="16" height="16" fill="white"/>
<rect x="160" y="176" width="16" height="16" fill="white"/>
<rect x="160" y="192" width="16" height="16" fill="white"/>
<rect x="160" y="208" width="16" height="16" fill="white"/>
<rect x="160" y="224" width="16" height="16" fill="#D9D9D9"/>
<rect x="176" width="16" height="16" fill="#D9D9D9"/>
<rect width="16" height="16" transform="translate(176 16)" fill="#281414"/>
<rect x="176" y="16" width="16" height="16" fill="#F3F3F3"/>
<rect x="176" y="32" width="16" height="16" fill="#F3F3F3"/>
<rect x="176" y="48" width="16" height="16" fill="#F3F3F3"/>
<rect x="176" y="64" width="16" height="16" fill="white"/>
<rect x="176" y="80" width="16" height="16" fill="white"/>
<rect x="176" y="96" width="16" height="16" fill="white"/>
<rect x="176" y="112" width="16" height="16" fill="white"/>
<rect x="176" y="128" width="16" height="16" fill="white"/>
<rect x="176" y="144" width="16" height="16" fill="white"/>
<rect x="176" y="160" width="16" height="16" fill="white"/>
<rect x="176" y="176" width="16" height="16" fill="white"/>
<rect x="176" y="192" width="16" height="16" fill="white"/>
<rect x="176" y="208" width="16" height="16" fill="white"/>
<rect x="176" y="224" width="16" height="16" fill="#D9D9D9"/>
<rect x="192" width="16" height="16" fill="#D9D9D9"/>
<rect width="16" height="16" transform="translate(192 16)" fill="#281414"/>
<rect x="192" y="16" width="16" height="16" fill="#F3F3F3"/>
<rect x="192" y="32" width="16" height="16" fill="#F3F3F3"/>
<rect x="192" y="48" width="16" height="16" fill="#F3F3F3"/>
<rect x="192" y="64" width="16" height="16" fill="white"/>
<rect x="192" y="80" width="16" height="16" fill="white"/>
<rect x="192" y="96" width="16" height="16" fill="white"/>
<rect x="192" y="112" width="16" height="16" fill="white"/>
<rect x="192" y="128" width="16" height="16" fill="white"/>
<rect x="192" y="144" width="16" height="16" fill="white"/>
<rect x="192" y="160" width="16" height="16" fill="white"/>
<rect x="192" y="176" width="16" height="16" fill="white"/>
<rect x="192" y="192" width="16" height="16" fill="white"/>
<rect x="192" y="208" width="16" height="16" fill="white"/>
<rect x="192" y="224" width="16" height="16" fill="#D9D9D9"/>
<rect x="208" width="16" height="16" fill="#D9D9D9"/>
<rect width="16" height="16" transform="translate(208 16)" fill="#281414"/>
<rect x="208" y="16" width="16" height="16" fill="#F3F3F3"/>
<rect x="208" y="32" width="16" height="16" fill="#F3F3F3"/>
<rect x="208" y="48" width="16" height="16" fill="#F3F3F3"/>
<rect x="208" y="64" width="16" height="16" fill="white"/>
<rect x="208" y="80" width="16" height="16" fill="white"/>
<rect x="208" y="96" width="16" height="16" fill="white"/>
<rect x="208" y="112" width="16" height="16" fill="white"/>
<rect x="208" y="128" width="16" height="16" fill="white"/>
<rect x="208" y="144" width="16" height="16" fill="white"/>
<rect x="208" y="160" width="16" height="16" fill="white"/>
<rect x="208" y="176" width="16" height="16" fill="white"/>
<rect x="208" y="192" width="16" height="16" fill="white"/>
<rect x="208" y="208" width="16" height="16" fill="white"/>
<rect x="208" y="224" width="16" height="16" fill="#D9D9D9"/>
<rect x="224" width="16" height="16" fill="#D9D9D9"/>
<rect width="16" height="16" transform="translate(224 16)" fill="#281414"/>
<rect x="224" y="16" width="16" height="16" fill="#F3F3F3"/>
<rect x="224" y="32" width="16" height="16" fill="#F3F3F3"/>
<rect x="224" y="48" width="16" height="16" fill="#F3F3F3"/>
<rect x="224" y="64" width="16" height="16" fill="white"/>
<rect x="224" y="80" width="16" height="16" fill="white"/>
<rect x="224" y="96" width="16" height="16" fill="white"/>
<rect x="224" y="112" width="16" height="16" fill="white"/>
<rect x="224" y="128" width="16" height="16" fill="white"/>
<rect x="224" y="144" width="16" height="16" fill="white"/>
<rect x="224" y="160" width="16" height="16" fill="white"/>
<rect x="224" y="176" width="16" height="16" fill="white"/>
<rect x="224" y="192" width="16" height="16" fill="white"/>
<rect x="224" y="208" width="16" height="16" fill="white"/>
<rect x="224" y="224" width="16" height="16" fill="#D9D9D9"/>
<rect x="240" width="16" height="16" fill="#D9D9D9"/>
<rect width="16" height="16" transform="translate(240 16)" fill="#281414"/>
<rect x="240" y="16" width="16" height="16" fill="#F3F3F3"/>
<rect x="240" y="32" width="16" height="16" fill="#F3F3F3"/>
<rect x="240" y="48" width="16" height="16" fill="#F3F3F3"/>
<rect x="240" y="64" width="16" height="16" fill="white"/>
<rect x="240" y="80" width="16" height="16" fill="white"/>
<rect x="240" y="96" width="16" height="16" fill="white"/>
<rect x="240" y="112" width="16" height="16" fill="white"/>
<rect x="240" y="128" width="16" height="16" fill="white"/>
<rect x="240" y="144" width="16" height="16" fill="white"/>
<rect x="240" y="160" width="16" height="16" fill="white"/>
<rect x="240" y="176" width="16" height="16" fill="white"/>
<rect x="240" y="192" width="16" height="16" fill="white"/>
<rect x="240" y="208" width="16" height="16" fill="white"/>
<rect x="240" y="224" width="16" height="16" fill="#D9D9D9"/>
<rect x="256" width="16" height="16" fill="#D9D9D9"/>
<rect width="16" height="16" transform="translate(256 16)" fill="#281414"/>
<rect x="256" y="16" width="16" height="16" fill="#F3F3F3"/>
<rect x="256" y="32" width="16" height="16" fill="#F3F3F3"/>
<rect x="256" y="48" width="16" height="16" fill="#F3F3F3"/>
<rect x="256" y="64" width="16" height="16" fill="white"/>
<rect x="256" y="80" width="16" height="16" fill="white"/>
<rect x="256" y="96" width="16" height="16" fill="white"/>
<rect x="256" y="112" width="16" height="16" fill="white"/>
<rect x="256" y="128" width="16" height="16" fill="white"/>
<rect x="256" y="144" width="16" height="16" fill="white"/>
<rect x="256" y="160" width="16" height="16" fill="white"/>
<rect x="256" y="176" width="16" height="16" fill="white"/>
<rect x="256" y="192" width="16" height="16" fill="white"/>
<rect x="256" y="208" width="16" height="16" fill="white"/>
<rect x="256" y="224" width="16" height="16" fill="#D9D9D9"/>
<rect x="272" width="16" height="16" fill="#D9D9D9"/>
<rect width="16" height="16" transform="translate(272 16)" fill="#281414"/>
<rect x="272" y="16" width="16" height="16" fill="#F3F3F3"/>
<rect x="272" y="32" width="16" height="16" fill="#F3F3F3"/>
<rect x="272" y="48" width="16" height="16" fill="#F3F3F3"/>
<rect x="272" y="64" width="16" height="16" fill="white"/>
<rect x="272" y="80" width="16" height="16" fill="white"/>
<rect x="272" y="96" width="16" height="16" fill="white"/>
<rect x="272" y="112" width="16" height="16" fill="white"/>
<rect x="272" y="128" width="16" height="16" fill="white"/>
<rect x="272" y="144" width="16" height="16" fill="white"/>
<rect x="272" y="160" width="16" height="16" fill="white"/>
<rect x="272" y="176" width="16" height="16" fill="white"/>
<rect x="272" y="192" width="16" height="16" fill="white"/>
<rect x="272" y="208" width="16" height="16" fill="white"/>
<rect x="272" y="224" width="16" height="16" fill="#D9D9D9"/>
<rect x="288" width="16" height="16" fill="#D9D9D9"/>
<rect width="16" height="16" transform="translate(288 16)" fill="#281414"/>
<rect x="288" y="16" width="16" height="16" fill="#F3F3F3"/>
<rect x="288" y="32" width="16" height="16" fill="#F3F3F3"/>
<rect x="288" y="48" width="16" height="16" fill="#F3F3F3"/>
<rect x="288" y="64" width="16" height="16" fill="white"/>
<rect x="288" y="80" width="16" height="16" fill="white"/>
<rect x="288" y="96" width="16" height="16" fill="white"/>
<rect x="288" y="112" width="16" height="16" fill="white"/>
<rect x="288" y="128" width="16" height="16" fill="white"/>
<rect x="288" y="144" width="16" height="16" fill="white"/>
<rect x="288" y="160" width="16" height="16" fill="white"/>
<rect x="288" y="176" width="16" height="16" fill="white"/>
<rect x="288" y="192" width="16" height="16" fill="white"/>
<rect x="288" y="208" width="16" height="16" fill="white"/>
<rect x="288" y="224" width="16" height="16" fill="#D9D9D9"/>
<rect x="304" width="16" height="16" fill="#D9D9D9"/>
<rect x="304" y="16" width="16" height="16" fill="#D9D9D9"/>
<rect x="304" y="32" width="16" height="16" fill="#D9D9D9"/>
<rect x="304" y="48" width="16" height="16" fill="#D9D9D9"/>
<rect x="304" y="64" width="16" height="16" fill="#D9D9D9"/>
<rect x="304" y="80" width="16" height="16" fill="#D9D9D9"/>
<rect x="304" y="96" width="16" height="16" fill="#D9D9D9"/>
<rect x="304" y="112" width="16" height="16" fill="#D9D9D9"/>
<rect x="304" y="128" width="16" height="16" fill="#D9D9D9"/>
<rect x="304" y="144" width="16" height="16" fill="#D9D9D9"/>
<rect x="304" y="160" width="16" height="16" fill="#D9D9D9"/>
<rect x="304" y="176" width="16" height="16" fill="#D9D9D9"/>
<rect x="304" y="192" width="16" height="16" fill="#D9D9D9"/>
<rect x="304" y="208" width="16" height="16" fill="#D9D9D9"/>
<rect x="304" y="224" width="16" height="16" fill="#D9D9D9"/>
<rect x="16.5" y="16.5" width="15" height="15" stroke="black"/>
<rect x="16" y="16" width="16" height="16" fill="#F3F3F3"/>
</g>
<defs>
<clipPath id="clip0_1_2383">
<rect width="320" height="240" fill="white"/>
</clipPath>
</defs>
</svg>
